{
.appVersion = "983";
copyright = "Copyright 2017 Google Inc. All Rights Reserved.";
customParameters = (
{
name = description;
value = "Designed by Monotype design team.";
},
{
name = license;
value = "This Font Software is licensed under the SIL Open Font License, Version 1.1. This Font Software is distributed on an \"AS IS\" BASIS, WITHOUT WARRANTIES OR CONDITIONS OF ANY KIND, either express or implied. See the SIL Open Font License for the specific language, permissions and limitations governing your use of this Font Software.";
},
{
name = licenseURL;
value = "http://scripts.sil.org/OFL";
},
{
name = vendorID;
value = GOOG;
},
{
name = panose;
value = (
2,
11,
5,
2,
4,
5,
4,
2,
2,
4
);
},
{
name = unicodeRanges;
value = (
0,
1,
34,
36,
37,
39,
42,
45,
46,
57
);
},
{
name = codePageRanges;
value = (
1252
);
},
{
name = glyphOrder;
value = (
.notdef,
uni000D,
space,
uni0000,
carriagereturn,
universal,
partialdiff,
existential,
emptyset,
gradient,
element,
notelement,
suchthat,
product,
summation,
minus,
asteriskmath,
radical,
proportional,
infinity,
orthogonal,
angle,
logicaland,
logicalor,
intersection,
union,
integral,
therefore,
similar,
congruent,
approxequal,
notequal,
equivalence,
lessequal,
greaterequal,
notsubset,
reflexsubset,
reflexsuperset,
uni27C2,
dotmath,
integraltp,
integralbt,
u1D56C,
u1D56D,
u1D56E,
u1D56F,
u1D570,
u1D571,
u1D572,
u1D573,
u1D574,
u1D575,
u1D576,
u1D577,
u1D578,
u1D579,
u1D57A,
u1D57B,
u1D57C,
u1D57D,
u1D57E,
u1D57F,
u1D580,
u1D581,
u1D582,
u1D583,
u1D584,
u1D585,
u1D586,
u1D587,
u1D588,
u1D589,
u1D58A,
u1D58B,
u1D58C,
u1D58D,
u1D58E,
u1D58F,
u1D590,
u1D591,
u1D592,
u1D593,
u1D594,
u1D595,
u1D596,
u1D597,
u1D598,
u1D599,
u1D59A,
u1D59B,
u1D59C,
u1D59D,
u1D59E,
u1D59F,
u1D5A0,
u1D5A1,
u1D5A2,
u1D5A3,
u1D5A4,
u1D5A5,
u1D5A6,
u1D5A7,
u1D5A8,
u1D5A9,
u1D5AA,
u1D5AB,
u1D5AC,
u1D5AD,
u1D5AE,
u1D5AF,
u1D5B0,
u1D5B1,
u1D5B2,
u1D5B3,
u1D5B4,
u1D5B5,
u1D5B6,
u1D5B7,
u1D5B8,
u1D5B9,
u1D5BA,
u1D5BB,
u1D5BC,
u1D5BD,
u1D5BE,
u1D5BF,
u1D5C0,

glyphs = (
{
glyphname = .notdef;
lastChange = "2017-03-13 20:15:23 +0000";
layers = (
{
layerId = "873A0A4B-B0F6-46C2-B3B5-B41B81B55E35";
paths = (
{
closed = 1;
nodes = (
"505 0 LINE",
"505 714 LINE",
"95 714 LINE",
"95 0 LINE"
);
},
{
closed = 1;
nodes = (
"146 663 LINE",
"455 663 LINE",
"455 51 LINE",
"146 51 LINE"
);
}
);
width = 600;
}
);
note = .notdef;
},
{
glyphname = carriagereturn;
lastChange = "2017-03-13 20:15:23 +0000";
layers = (
{
layerId = "873A0A4B-B0F6-46C2-B3B5-B41B81B55E35";
paths = (
{
closed = 1;
nodes = (
"237 157 OFFCURVE",
"218 189 OFFCURVE",
"200 210 CURVE",
"409 210 LINE",
"409 469 LINE",
"367 469 LINE",
"367 252 LINE",
"200 252 LINE",
"218 273 OFFCURVE",
"237 305 OFFCURVE",
"258 348 CURVE",
"223 348 LINE",
"182 299 OFFCURVE",
"138 263 OFFCURVE",
"91 240 CURVE",
"91 222 LINE",
"138 199 OFFCURVE",
"182 163 OFFCURVE",
"223 114 CURVE",
"258 114 LINE"
);
}
);
width = 500;
}
);
note = carriagereturn;
unicode = 21B5;
},
{
glyphname = universal;
lastChange = "2017-03-13 20:15:23 +0000";
layers = (
{
layerId = "873A0A4B-B0F6-46C2-B3B5-B41B81B55E35";
paths = (
{
closed = 1;
nodes = (
"414 -4 LINE",
"699 715 LINE",
"602 715 LINE",
"516 492 LINE",
"230 492 LINE",
"148 715 LINE",
"51 715 LINE",
"332 -4 LINE"
);
},
{
closed = 1;
nodes = (
"360 132 LINE",
"262 410 LINE",
"488 410 LINE",
"451 313 OFFCURVE",
"421 230 OFFCURVE",
"398 161 CURVE SMOOTH",
"385 122 OFFCURVE",
"378 96 OFFCURVE",
"375 82 CURVE",
"367 110 LINE"
);
}
);
width = 750;
}
);
note = universal;
unicode = 2200;
},
{
glyphname = partialdiff;
lastChange = "2017-03-13 20:15:23 +0000";
layers = (
{
layerId = "873A0A4B-B0F6-46C2-B3B5-B41B81B55E35";
paths = (
{
closed = 1;
nodes = (
"286 -10 OFFCURVE",
"337 9 OFFCURVE",
"382 47 CURVE SMOOTH",
"473 123 OFFCURVE",
"531 284 OFFCURVE",
"531 455 CURVE SMOOTH",
"531 631 OFFCURVE",
"458 722 OFFCURVE",
"321 722 CURVE SMOOTH",
"276 722 OFFCURVE",
"222 711 OFFCURVE",
"183 692 CURVE",
"183 608 LINE",
"220 633 OFFCURVE",
"270 648 OFFCURVE",
"309 648 CURVE SMOOTH",
"396 648 OFFCURVE",
"441 585 OFFCURVE",
"443 458 CURVE",
"441 421 LINE",
"410 468 OFFCURVE",
"363 494 OFFCURVE",
"306 494 CURVE SMOOTH",
"257 494 OFFCURVE",
"213 481 OFFCURVE",
"175 455 CURVE SMOOTH",
"99 403 OFFCURVE",
"51 295 OFFCURVE",
"51 183 CURVE SMOOTH",
"51 58 OFFCURVE",
"113 -10 OFFCURVE",
"228 -10 CURVE SMOOTH"
);
},
{
closed = 1;
nodes = (
"174 64 OFFCURVE",
"142 106 OFFCURVE",
"142 182 CURVE SMOOTH",
"142 224 OFFCURVE",
"150 264 OFFCURVE",
"165 301 CURVE SMOOTH",
"195 376 OFFCURVE",
"251 426 OFFCURVE",
"316 426 CURVE SMOOTH",
"368 426 OFFCURVE",
"413 387 OFFCURVE",
"426 331 CURVE",
"419 280 OFFCURVE",
"406 235 OFFCURVE",
"387 195 CURVE SMOOTH",
"349 114 OFFCURVE",
"293 64 OFFCURVE",
"233 64 CURVE SMOOTH"
);
}
);
width = 582;
}
);
note = partialdiff;
unicode = 2202;
},
{
glyphname = existential;
lastChange = "2017-03-13 20:15:23 +0000";
layers = (
{
layerId = "873A0A4B-B0F6-46C2-B3B5-B41B81B55E35";
paths = (
{
closed = 1;
nodes = (
"523 0 LINE",
"523 715 LINE",
"59 715 LINE",
"59 635 LINE",
"440 635 LINE",
"440 411 LINE",
"80 411 LINE",
"80 331 LINE",
"440 331 LINE",
"440 80 LINE",
"51 80 LINE",
"51 0 LINE"
);
}
);
width = 574;
}
);
note = existential;
unicode = 2203;
},
{
glyphname = emptyset;
lastChange = "2017-03-13 20:15:23 +0000";
layers = (
{
layerId = "873A0A4B-B0F6-46C2-B3B5-B41B81B55E35";
paths = (
{
closed = 1;
nodes = (
"507 -18 OFFCURVE",
"571 -1 OFFCURVE",
"630 34 CURVE SMOOTH",
"749 102 OFFCURVE",
"823 231 OFFCURVE",
"823 368 CURVE SMOOTH",
"823 459 OFFCURVE",
"792 542 OFFCURVE",
"731 617 CURVE",
"797 682 LINE",
"753 729 LINE",
"686 662 LINE",
"613 723 OFFCURVE",
"530 754 OFFCURVE",
"437 754 CURVE SMOOTH",
"368 754 OFFCURVE",
"304 737 OFFCURVE",
"245 703 CURVE SMOOTH",
"126 635 OFFCURVE",
"51 507 OFFCURVE",
"51 368 CURVE SMOOTH",
"51 273 OFFCURVE",
"84 188 OFFCURVE",
"141 120 CURVE",
"76 55 LINE",
"120 8 LINE",
"186 74 LINE",
"261 13 OFFCURVE",
"344 -18 OFFCURVE",
"437 -18 CURVE SMOOTH"
);
},
{
closed = 1;
nodes = (
"146 229 OFFCURVE",
"123 295 OFFCURVE",
"123 368 CURVE SMOOTH",
"123 425 OFFCURVE",
"137 478 OFFCURVE",
"166 525 CURVE SMOOTH",
"222 622 OFFCURVE",
"325 682 OFFCURVE",
"437 682 CURVE SMOOTH",
"510 682 OFFCURVE",
"576 658 OFFCURVE",
"635 611 CURVE",
"192 171 LINE"
);
},
{
closed = 1;
nodes = (
"363 54 OFFCURVE",
"297 78 OFFCURVE",
"238 125 CURVE",
"680 566 LINE",
"725 511 OFFCURVE",
"751 443 OFFCURVE",
"751 368 CURVE SMOOTH",
"751 313 OFFCURVE",
"737 262 OFFCURVE",
"710 213 CURVE SMOOTH",
"654 116 OFFCURVE",
"550 54 OFFCURVE",
"437 54 CURVE SMOOTH"
);
}
);
width = 874;
}
);
note = emptyset;
unicode = 2205;
},
{
glyphname = gradient;
lastChange = "2017-03-13 20:15:23 +0000";
layers = (
{
layerId = "873A0A4B-B0F6-46C2-B3B5-B41B81B55E35";
paths = (
{
closed = 1;
nodes = (
"336 0 LINE",
"561 659 LINE",
"561 714 LINE",
"20 714 LINE",
"20 660 LINE",
"246 0 LINE"
);
},
{
closed = 1;
nodes = (
"283 139 OFFCURVE",
"268 193 OFFCURVE",
"245 259 CURVE SMOOTH",
"119 635 LINE",
"465 635 LINE",
"338 259 LINE SMOOTH",
"326 222 OFFCURVE",
"311 169 OFFCURVE",
"292 98 CURVE"
);
}
);
width = 581;
}
);
note = gradient;
unicode = 2207;
},
{
glyphname = element;
lastChange = "2017-03-13 20:15:23 +0000";
layers = (
{
layerId = "873A0A4B-B0F6-46C2-B3B5-B41B81B55E35";
paths = (
{
closed = 1;
nodes = (
"648 133 LINE",
"394 133 LINE SMOOTH",
"229 133 OFFCURVE",
"139 195 OFFCURVE",
"125 318 CURVE",
"648 318 LINE",
"648 389 LINE",
"125 389 LINE",
"138 512 OFFCURVE",
"227 573 OFFCURVE",
"394 573 CURVE SMOOTH",
"648 573 LINE",
"648 644 LINE",
"394 644 LINE SMOOTH",
"169 644 OFFCURVE",
"51 544 OFFCURVE",
"51 353 CURVE SMOOTH",
"51 162 OFFCURVE",
"170 62 OFFCURVE",
"394 62 CURVE SMOOTH",
"648 62 LINE"
);
}
);
width = 699;
}
);
note = element;
unicode = 2208;
},
{
glyphname = notelement;
lastChange = "2017-03-13 20:15:23 +0000";
layers = (
{
layerId = "873A0A4B-B0F6-46C2-B3B5-B41B81B55E35";
paths = (
{
closed = 1;
nodes = (
"336 64 LINE",
"360 63 OFFCURVE",
"379 62 OFFCURVE",
"394 62 CURVE SMOOTH",
"648 62 LINE",
"648 133 LINE",
"362 133 LINE",
"433 318 LINE",
"648 318 LINE",
"648 389 LINE",
"461 389 LINE",
"531 573 LINE",
"648 573 LINE",
"648 644 LINE",
"559 644 LINE",
"595 737 LINE",
"534 763 LINE",
"488 644 LINE",
"394 644 LINE SMOOTH",
"169 644 OFFCURVE",
"51 544 OFFCURVE",
"51 353 CURVE SMOOTH",
"51 202 OFFCURVE",
"125 107 OFFCURVE",
"269 74 CURVE",
"234 -16 LINE",
"295 -42 LINE"
);
},
{
closed = 1;
nodes = (
"138 512 OFFCURVE",
"227 573 OFFCURVE",
"394 573 CURVE SMOOTH",
"461 573 LINE",
"390 389 LINE",
"125 389 LINE"
);
},
{
closed = 1;
nodes = (
"192 163 OFFCURVE",
"135 222 OFFCURVE",
"125 318 CURVE",
"362 318 LINE",
"295 142 LINE"
);
}
);
width = 699;
}
);
note = notelement;
unicode = 2209;
},
{
glyphname = suchthat;
lastChange = "2017-03-13 20:15:23 +0000";
layers = (
{
layerId = "873A0A4B-B0F6-46C2-B3B5-B41B81B55E35";
paths = (
{
closed = 1;
nodes = (
"305 62 LINE SMOOTH",
"529 62 OFFCURVE",
"648 162 OFFCURVE",
"648 353 CURVE SMOOTH",
"648 544 OFFCURVE",
"529 644 OFFCURVE",
"305 644 CURVE SMOOTH",
"51 644 LINE",
"51 573 LINE",
"305 573 LINE SMOOTH",
"472 573 OFFCURVE",
"561 512 OFFCURVE",
"574 389 CURVE",
"51 389 LINE",
"51 318 LINE",
"574 318 LINE",
"561 195 OFFCURVE",
"472 133 OFFCURVE",
"305 133 CURVE SMOOTH",
"51 133 LINE",
"51 62 LINE"
);
}
);
width = 699;
}
);
note = suchthat;
unicode = 220B;
},
{
glyphname = product;
lastChange = "2017-03-13 20:15:23 +0000";
layers = (
{
layerId = "873A0A4B-B0F6-46C2-B3B5-B41B81B55E35";
paths = (
{
closed = 1;
nodes = (
"141 -240 LINE",
"141 634 LINE",
"508 634 LINE",
"508 -240 LINE",
"598 -240 LINE",
"598 714 LINE",
"51 714 LINE",
"51 -240 LINE"
);
}
);
width = 649;
}
);
note = product;
unicode = 220F;
},
{
glyphname = summation;
lastChange = "2017-03-13 20:15:23 +0000";
layers = (
{
layerId = "873A0A4B-B0F6-46C2-B3B5-B41B81B55E35";
paths = (
{
closed = 1;
nodes = (
"626 -240 LINE",
"626 -161 LINE",
"173 -161 LINE",
"463 264 LINE",
"185 635 LINE",
"594 635 LINE",
"594 714 LINE",
"59 714 LINE",
"59 658 LINE",
"357 262 LINE",
"51 -185 LINE",
"51 -240 LINE"
);
}
);
width = 677;
}
);
note = summation;
unicode = 2211;
},
{
glyphname = minus;
lastChange = "2017-03-13 20:15:23 +0000";
layers = (
{
layerId = "873A0A4B-B0F6-46C2-B3B5-B41B81B55E35";
paths = (
{
closed = 1;
nodes = (
"521 317 LINE",
"521 388 LINE",
"51 388 LINE",
"51 317 LINE"
);
}
);
width = 572;
}
);
note = minus;
unicode = 2212;
},
{
glyphname = asteriskmath;
lastChange = "2017-03-13 20:15:23 +0000";
layers = (
{
layerId = "873A0A4B-B0F6-46C2-B3B5-B41B81B55E35";
paths = (
{
closed = 1;
nodes = (
"229 286 LINE",
"305 177 LINE",
"364 218 LINE",
"281 322 LINE",
"410 361 LINE",
"388 430 LINE",
"263 384 LINE",
"267 515 LINE",
"195 515 LINE",
"199 384 LINE",
"73 430 LINE",
"51 361 LINE",
"177 322 LINE",
"97 218 LINE",
"156 177 LINE"
);
}
);
width = 461;
}
);
note = asteriskmath;
unicode = 2217;
},
{
glyphname = radical;
lastChange = "2017-03-13 20:15:23 +0000";
layers = (
{
layerId = "873A0A4B-B0F6-46C2-B3B5-B41B81B55E35";
paths = (
{
closed = 1;
nodes = (
"306 -7 LINE",
"595 827 LINE",
"524 827 LINE",
"274 114 LINE",
"161 443 LINE",
"18 443 LINE",
"18 373 LINE",
"106 373 LINE",
"241 -7 LINE"
);
}
);
width = 572;
}
);
note = radical;
unicode = 221A;
},
{
glyphname = proportional;
lastChange = "2017-03-13 20:15:23 +0000";
layers = (
{
layerId = "873A0A4B-B0F6-46C2-B3B5-B41B81B55E35";
paths = (
{
closed = 1;
nodes = (
"254 198 OFFCURVE",
"305 235 OFFCURVE",
"344 302 CURVE",
"383 235 OFFCURVE",
"432 200 OFFCURVE",
"489 198 CURVE",
"489 261 LINE",
"446 262 OFFCURVE",
"413 291 OFFCURVE",
"380 351 CURVE",
"416 415 OFFCURVE",
"446 441 OFFCURVE",
"489 444 CURVE",
"489 507 LINE",
"432 503 OFFCURVE",
"384 468 OFFCURVE",
"345 402 CURVE",
"306 472 OFFCURVE",
"257 507 OFFCURVE",
"198 507 CURVE SMOOTH",
"113 507 OFFCURVE",
"51 442 OFFCURVE",
"51 353 CURVE SMOOTH",
"51 261 OFFCURVE",
"110 198 OFFCURVE",
"198 198 CURVE SMOOTH"
);
},
{
closed = 1;
nodes = (
"150 261 OFFCURVE",
"116 300 OFFCURVE",
"116 353 CURVE SMOOTH",
"116 406 OFFCURVE",
"152 444 OFFCURVE",
"201 444 CURVE SMOOTH",
"245 444 OFFCURVE",
"278 416 OFFCURVE",
"311 353 CURVE",
"276 289 OFFCURVE",
"242 261 OFFCURVE",
"202 261 CURVE SMOOTH"
);
}
);
width = 540;
}
);
note = proportional;
unicode = 221D;
},
{
glyphname = infinity;
lastChange = "2017-03-13 20:15:23 +0000";
layers = (
{
layerId = "873A0A4B-B0F6-46C2-B3B5-B41B81B55E35";
paths = (
{
closed = 1;
nodes = (
"522 196 OFFCURVE",
"547 203 OFFCURVE",
"569 217 CURVE SMOOTH",
"613 244 OFFCURVE",
"640 294 OFFCURVE",
"640 351 CURVE SMOOTH",
"640 443 OFFCURVE",
"582 507 OFFCURVE",
"495 507 CURVE SMOOTH",
"436 507 OFFCURVE",
"386 472 OFFCURVE",
"345 402 CURVE",
"306 472 OFFCURVE",
"257 507 OFFCURVE",
"198 507 CURVE SMOOTH",
"113 507 OFFCURVE",
"51 442 OFFCURVE",
"51 353 CURVE SMOOTH",
"51 261 OFFCURVE",
"110 198 OFFCURVE",
"198 198 CURVE SMOOTH",
"254 198 OFFCURVE",
"305 235 OFFCURVE",
"344 302 CURVE",
"385 231 OFFCURVE",
"435 196 OFFCURVE",
"495 196 CURVE SMOOTH"
);
},
{
closed = 1;
nodes = (
"151 261 OFFCURVE",
"116 299 OFFCURVE",
"116 352 CURVE SMOOTH",
"116 405 OFFCURVE",
"152 444 OFFCURVE",
"201 444 CURVE SMOOTH",
"245 444 OFFCURVE",
"278 416 OFFCURVE",
"311 353 CURVE",
"276 289 OFFCURVE",
"242 261 OFFCURVE",
"202 261 CURVE SMOOTH"
);
},
{
closed = 1;
nodes = (
"446 261 OFFCURVE",
"413 288 OFFCURVE",
"380 351 CURVE",
"416 415 OFFCURVE",
"449 444 OFFCURVE",
"489 444 CURVE SMOOTH",
"538 444 OFFCURVE",
"575 404 OFFCURVE",
"575 351 CURVE SMOOTH",
"575 298 OFFCURVE",
"539 261 OFFCURVE",
"490 261 CURVE SMOOTH"
);
}
);
width = 691;
}
);
note = infinity;
unicode = 221E;
},
{
glyphname = orthogonal;
lastChange = "2017-03-13 20:15:23 +0000";
layers = (
{
layerId = "873A0A4B-B0F6-46C2-B3B5-B41B81B55E35";
paths = (
{
closed = 1;
nodes = (
"601 0 LINE",
"601 71 LINE",
"122 71 LINE",
"122 550 LINE",
"51 550 LINE",
"51 0 LINE"
);
}
);
width = 652;
}
);
note = orthogonal;
unicode = 221F;
},
{
glyphname = angle;
lastChange = "2017-03-13 20:15:23 +0000";
layers = (
{
layerId = "873A0A4B-B0F6-46C2-B3B5-B41B81B55E35";
paths = (
{
closed = 1;
nodes = (
"601 0 LINE",
"601 71 LINE",
"166 71 LINE",
"511 464 LINE",
"461 515 LINE",
"51 50 LINE",
"51 0 LINE"
);
}
);
width = 652;
}
);
note = angle;
unicode = 2220;
},
{
glyphname = logicaland;
lastChange = "2017-03-13 20:15:23 +0000";
layers = (
{
layerId = "873A0A4B-B0F6-46C2-B3B5-B41B81B55E35";
paths = (
{
closed = 1;
nodes = (
"134 70 LINE",
"357 548 LINE",
"579 70 LINE",
"662 70 LINE",
"382 650 LINE",
"332 650 LINE",
"51 70 LINE"
);
}
);
width = 713;
}
);
note = logicaland;
unicode = 2227;
},
{
glyphname = logicalor;
lastChange = "2017-03-13 20:15:23 +0000";
layers = (
{
layerId = "873A0A4B-B0F6-46C2-B3B5-B41B81B55E35";
paths = (
{
closed = 1;
nodes = (
"382 70 LINE",
"662 650 LINE",
"579 650 LINE",
"357 172 LINE",
"134 650 LINE",
"51 650 LINE",
"332 70 LINE"
);
}
);
width = 713;
}
);
note = logicalor;
unicode = 2228;
},
{
glyphname = intersection;
lastChange = "2017-03-13 20:15:23 +0000";
layers = (
{
layerId = "873A0A4B-B0F6-46C2-B3B5-B41B81B55E35";
paths = (
{
closed = 1;
nodes = (
"122 47 LINE",
"122 321 LINE SMOOTH",
"122 504 OFFCURVE",
"194 592 OFFCURVE",
"342 592 CURVE SMOOTH",
"490 592 OFFCURVE",
"562 504 OFFCURVE",
"562 321 CURVE SMOOTH",
"562 47 LINE",
"633 47 LINE",
"633 321 LINE SMOOTH",
"633 545 OFFCURVE",
"534 664 OFFCURVE",
"342 664 CURVE SMOOTH",
"151 664 OFFCURVE",
"51 545 OFFCURVE",
"51 321 CURVE SMOOTH",
"51 47 LINE"
);
}
);
width = 684;
}
);
note = intersection;
unicode = 2229;
},
{
glyphname = union;
lastChange = "2017-03-13 20:15:23 +0000";
layers = (
{
layerId = "873A0A4B-B0F6-46C2-B3B5-B41B81B55E35";
paths = (
{
closed = 1;
nodes = (
"533 47 OFFCURVE",
"633 166 OFFCURVE",
"633 390 CURVE SMOOTH",
"633 664 LINE",
"562 664 LINE",
"562 390 LINE SMOOTH",
"562 207 OFFCURVE",
"490 119 OFFCURVE",
"342 119 CURVE SMOOTH",
"194 119 OFFCURVE",
"122 207 OFFCURVE",
"122 390 CURVE SMOOTH",
"122 664 LINE",
"51 664 LINE",
"51 390 LINE SMOOTH",
"51 166 OFFCURVE",
"151 47 OFFCURVE",
"342 47 CURVE SMOOTH"
);
}
);
width = 684;
}
);
note = union;
unicode = 222A;
},
{
glyphname = integral;
lastChange = "2017-03-13 20:15:23 +0000";
layers = (
{
layerId = "873A0A4B-B0F6-46C2-B3B5-B41B81B55E35";
paths = (
{
closed = 1;
nodes = (
"181 -240 OFFCURVE",
"236 -179 OFFCURVE",
"236 -62 CURVE SMOOTH",
"236 576 LINE SMOOTH",
"236 652 OFFCURVE",
"264 690 OFFCURVE",
"319 690 CURVE SMOOTH",
"337 690 OFFCURVE",
"356 686 OFFCURVE",
"375 678 CURVE",
"375 751 LINE",
"360 757 OFFCURVE",
"339 760 OFFCURVE",
"312 760 CURVE SMOOTH",
"205 760 OFFCURVE",
"151 701 OFFCURVE",
"151 582 CURVE SMOOTH",
"151 -56 LINE SMOOTH",
"151 -132 OFFCURVE",
"122 -170 OFFCURVE",
"65 -170 CURVE SMOOTH",
"45 -170 OFFCURVE",
"25 -166 OFFCURVE",
"5 -158 CURVE",
"5 -230 LINE",
"24 -237 OFFCURVE",
"47 -240 OFFCURVE",
"73 -240 CURVE SMOOTH"
);
}
);
width = 387;
}
);
note = integral;
unicode = 222B;
},
{
glyphname = therefore;
lastChange = "2017-03-13 20:15:23 +0000";
layers = (
{
layerId = "873A0A4B-B0F6-46C2-B3B5-B41B81B55E35";
paths = (
{
closed = 1;
nodes = (
"318 463 OFFCURVE",
"345 490 OFFCURVE",
"345 523 CURVE SMOOTH",
"345 555 OFFCURVE",
"320 583 OFFCURVE",
"285 583 CURVE SMOOTH",
"252 583 OFFCURVE",
"225 556 OFFCURVE",
"225 523 CURVE SMOOTH",
"225 490 OFFCURVE",
"253 463 OFFCURVE",
"285 463 CURVE SMOOTH"
);
},
{
closed = 1;
nodes = (
"144 122 OFFCURVE",
"171 149 OFFCURVE",
"171 182 CURVE SMOOTH",
"171 217 OFFCURVE",
"143 242 OFFCURVE",
"111 242 CURVE SMOOTH",
"78 242 OFFCURVE",
"51 215 OFFCURVE",
"51 182 CURVE SMOOTH",
"51 150 OFFCURVE",
"78 122 OFFCURVE",
"111 122 CURVE SMOOTH"
);
},
{
closed = 1;
nodes = (
"493 122 OFFCURVE",
"520 149 OFFCURVE",
"520 182 CURVE SMOOTH",
"520 217 OFFCURVE",
"492 242 OFFCURVE",
"460 242 CURVE SMOOTH",
"428 242 OFFCURVE",
"400 215 OFFCURVE",
"400 182 CURVE SMOOTH",
"400 149 OFFCURVE",
"427 122 OFFCURVE",
"460 122 CURVE SMOOTH"
);
}
);
width = 571;
}
);
note = therefore;
unicode = 2234;
},
{
glyphname = similar;
lastChange = "2017-03-13 20:15:23 +0000";
layers = (
{
layerId = "873A0A4B-B0F6-46C2-B3B5-B41B81B55E35";
paths = (
{
closed = 1;
nodes = (
"87 324 OFFCURVE",
"129 346 OFFCURVE",
"164 346 CURVE SMOOTH",
"195 346 OFFCURVE",
"231 336 OFFCURVE",
"274 317 CURVE SMOOTH",
"317 297 OFFCURVE",
"360 287 OFFCURVE",
"401 287 CURVE SMOOTH",
"448 287 OFFCURVE",
"488 305 OFFCURVE",
"521 341 CURVE",
"521 418 LINE",
"486 382 OFFCURVE",
"442 359 OFFCURVE",
"406 359 CURVE SMOOTH",
"377 359 OFFCURVE",
"340 369 OFFCURVE",
"296 389 CURVE SMOOTH",
"251 408 OFFCURVE",
"209 418 OFFCURVE",
"170 418 CURVE SMOOTH",
"123 418 OFFCURVE",
"83 400 OFFCURVE",
"51 365 CURVE",
"51 287 LINE"
);
}
);
width = 572;
}
);
note = similar;
unicode = 223C;
},
{
glyphname = congruent;
lastChange = "2017-03-13 20:15:23 +0000";
layers = (
{
layerId = "873A0A4B-B0F6-46C2-B3B5-B41B81B55E35";
paths = (
{
closed = 1;
nodes = (
"88 487 OFFCURVE",
"131 509 OFFCURVE",
"164 509 CURVE SMOOTH",
"195 509 OFFCURVE",
"231 499 OFFCURVE",
"274 479 CURVE",
"319 460 OFFCURVE",
"361 450 OFFCURVE",
"401 450 CURVE SMOOTH",
"448 450 OFFCURVE",
"488 468 OFFCURVE",
"521 504 CURVE",
"521 581 LINE",
"486 545 OFFCURVE",
"442 522 OFFCURVE",
"406 522 CURVE SMOOTH",
"376 522 OFFCURVE",
"339 532 OFFCURVE",
"295 552 CURVE SMOOTH",
"251 571 OFFCURVE",
"209 581 OFFCURVE",
"170 581 CURVE SMOOTH",
"123 581 OFFCURVE",
"83 563 OFFCURVE",
"51 528 CURVE",
"51 450 LINE"
);
},
{
closed = 1;
nodes = (
"521 318 LINE",
"521 389 LINE",
"51 389 LINE",
"51 318 LINE"
);
},
{
closed = 1;
nodes = (
"521 158 LINE",
"521 229 LINE",
"51 229 LINE",
"51 158 LINE"
);
}
);
width = 572;
}
);
note = congruent;
unicode = 2245;
},
{
glyphname = approxequal;
lastChange = "2017-03-13 20:15:23 +0000";
layers = (
{
layerId = "873A0A4B-B0F6-46C2-B3B5-B41B81B55E35";
paths = (
{
closed = 1;
nodes = (
"88 423 OFFCURVE",
"131 445 OFFCURVE",
"164 445 CURVE SMOOTH",
"193 445 OFFCURVE",
"230 435 OFFCURVE",
"274 416 CURVE SMOOTH",
"318 396 OFFCURVE",
"360 386 OFFCURVE",
"401 386 CURVE SMOOTH",
"448 386 OFFCURVE",
"488 404 OFFCURVE",
"521 440 CURVE",
"521 517 LINE",
"486 481 OFFCURVE",
"442 458 OFFCURVE",
"406 458 CURVE SMOOTH",
"376 458 OFFCURVE",
"339 468 OFFCURVE",
"295 488 CURVE SMOOTH",
"251 507 OFFCURVE",
"209 517 OFFCURVE",
"170 517 CURVE SMOOTH",
"122 517 OFFCURVE",
"82 499 OFFCURVE",
"51 464 CURVE",
"51 386 LINE"
);
},
{
closed = 1;
nodes = (
"90 228 OFFCURVE",
"131 248 OFFCURVE",
"164 248 CURVE SMOOTH",
"194 248 OFFCURVE",
"231 238 OFFCURVE",
"275 219 CURVE SMOOTH",
"319 199 OFFCURVE",
"361 189 OFFCURVE",
"401 189 CURVE SMOOTH",
"447 189 OFFCURVE",
"487 207 OFFCURVE",
"521 243 CURVE",
"521 320 LINE",
"482 281 OFFCURVE",
"441 261 OFFCURVE",
"406 261 CURVE SMOOTH",
"377 261 OFFCURVE",
"340 271 OFFCURVE",
"296 291 CURVE",
"250 310 OFFCURVE",
"208 320 OFFCURVE",
"170 320 CURVE SMOOTH",
"123 320 OFFCURVE",
"83 302 OFFCURVE",
"51 267 CURVE",
"51 189 LINE"
);
}
);
width = 572;
}
);
note = approxequal;
unicode = 2248;
},
{
glyphname = notequal;
lastChange = "2017-03-13 20:15:23 +0000";
layers = (
{
layerId = "873A0A4B-B0F6-46C2-B3B5-B41B81B55E35";
paths = (
{
closed = 1;
nodes = (
"269 217 LINE",
"521 217 LINE",
"521 288 LINE",
"296 288 LINE",
"345 416 LINE",
"521 416 LINE",
"521 487 LINE",
"373 487 LINE",
"414 594 LINE",
"353 620 LINE",
"302 487 LINE",
"51 487 LINE",
"51 416 LINE",
"274 416 LINE",
"225 288 LINE",
"51 288 LINE",
"51 217 LINE",
"198 217 LINE",
"152 103 LINE",
"213 77 LINE"
);
}
);
width = 572;
}
);
note = notequal;
unicode = 2260;
},
{
glyphname = equivalence;
lastChange = "2017-03-13 20:15:23 +0000";
layers = (
{
layerId = "873A0A4B-B0F6-46C2-B3B5-B41B81B55E35";
paths = (
{
closed = 1;
nodes = (
"521 491 LINE",
"521 562 LINE",
"51 562 LINE",
"51 491 LINE"
);
},
{
closed = 1;
nodes = (
"521 317 LINE",
"521 388 LINE",
"51 388 LINE",
"51 317 LINE"
);
},
{
closed = 1;
nodes = (
"521 143 LINE",
"521 214 LINE",
"51 214 LINE",
"51 143 LINE"
);
}
);
width = 572;
}
);
note = equivalence;
unicode = 2261;
},
{
glyphname = lessequal;
lastChange = "2017-03-13 20:15:23 +0000";
layers = (
{
layerId = "873A0A4B-B0F6-46C2-B3B5-B41B81B55E35";
paths = (
{
closed = 1;
nodes = (
"521 244 LINE",
"155 412 LINE",
"521 580 LINE",
"521 658 LINE",
"51 437 LINE",
"51 387 LINE",
"521 166 LINE"
);
},
{
closed = 1;
nodes = (
"521 47 LINE",
"521 118 LINE",
"51 118 LINE",
"51 47 LINE"
);
}
);
width = 572;
}
);
note = lessequal;
unicode = 2264;
},
{
glyphname = greaterequal;
lastChange = "2017-03-13 20:15:23 +0000";
layers = (
{
layerId = "873A0A4B-B0F6-46C2-B3B5-B41B81B55E35";
paths = (
{
closed = 1;
nodes = (
"521 387 LINE",
"521 437 LINE",
"51 658 LINE",
"51 580 LINE",
"417 412 LINE",
"51 244 LINE",
"51 166 LINE"
);
},
{
closed = 1;
nodes = (
"521 47 LINE",
"521 118 LINE",
"51 118 LINE",
"51 47 LINE"
);
}
);
width = 572;
}
);
note = greaterequal;
unicode = 2265;
},
{
glyphname = notsubset;
lastChange = "2017-03-13 20:15:23 +0000";
layers = (
{
layerId = "873A0A4B-B0F6-46C2-B3B5-B41B81B55E35";
paths = (
{
closed = 1;
nodes = (
"355 62 LINE",
"648 62 LINE",
"648 133 LINE",
"382 133 LINE",
"551 573 LINE",
"648 573 LINE",
"648 644 LINE",
"579 644 LINE",
"615 737 LINE",
"554 763 LINE",
"508 644 LINE",
"394 644 LINE SMOOTH",
"169 644 OFFCURVE",
"51 544 OFFCURVE",
"51 353 CURVE SMOOTH",
"51 197 OFFCURVE",
"131 99 OFFCURVE",
"287 71 CURVE",
"254 -16 LINE",
"315 -42 LINE"
);
},
{
closed = 1;
nodes = (
"186 157 OFFCURVE",
"123 229 OFFCURVE",
"123 353 CURVE SMOOTH",
"123 501 OFFCURVE",
"211 573 OFFCURVE",
"394 573 CURVE SMOOTH",
"481 573 LINE",
"313 138 LINE"
);
}
);
width = 699;
}
);
note = notsubset;
unicode = 2284;
},
{
glyphname = reflexsubset;
lastChange = "2017-03-13 20:15:23 +0000";
layers = (
{
layerId = "873A0A4B-B0F6-46C2-B3B5-B41B81B55E35";
paths = (
{
closed = 1;
nodes = (
"648 211 LINE",
"379 211 LINE SMOOTH",
"203 211 OFFCURVE",
"123 278 OFFCURVE",
"123 431 CURVE SMOOTH",
"123 584 OFFCURVE",
"203 651 OFFCURVE",
"379 651 CURVE SMOOTH",
"648 651 LINE",
"648 722 LINE",
"379 722 LINE SMOOTH",
"163 722 OFFCURVE",
"51 622 OFFCURVE",
"51 431 CURVE SMOOTH",
"51 242 OFFCURVE",
"163 140 OFFCURVE",
"379 140 CURVE SMOOTH",
"648 140 LINE"
);
},
{
closed = 1;
nodes = (
"648 0 LINE",
"648 71 LINE",
"91 71 LINE",
"91 0 LINE"
);
}
);
width = 699;
}
);
note = reflexsubset;
unicode = 2286;
},
{
glyphname = reflexsuperset;
lastChange = "2017-03-13 20:15:23 +0000";
layers = (
{
layerId = "873A0A4B-B0F6-46C2-B3B5-B41B81B55E35";
paths = (
{
closed = 1;
nodes = (
"320 140 LINE SMOOTH",
"536 140 OFFCURVE",
"648 240 OFFCURVE",
"648 431 CURVE SMOOTH",
"648 622 OFFCURVE",
"536 722 OFFCURVE",
"320 722 CURVE SMOOTH",
"51 722 LINE",
"51 651 LINE",
"320 651 LINE SMOOTH",
"495 651 OFFCURVE",
"576 583 OFFCURVE",
"576 431 CURVE SMOOTH",
"576 278 OFFCURVE",
"496 211 OFFCURVE",
"320 211 CURVE SMOOTH",
"51 211 LINE",
"51 140 LINE"
);
},
{
closed = 1;
nodes = (
"608 0 LINE",
"608 71 LINE",
"51 71 LINE",
"51 0 LINE"
);
}
);
width = 699;
}
);
note = reflexsuperset;
unicode = 2287;
},
{
glyphname = uni27C2;
lastChange = "2017-03-13 20:15:23 +0000";
layers = (
{
layerId = "873A0A4B-B0F6-46C2-B3B5-B41B81B55E35";
paths = (
{
closed = 1;
nodes = (
"705 26 LINE",
"705 97 LINE",
"413 97 LINE",
"413 680 LINE",
"342 680 LINE",
"342 97 LINE",
"51 97 LINE",
"51 26 LINE"
);
}
);
width = 756;
}
);
note = uni27C2;
unicode = 27C2;
},
{
glyphname = dotmath;
lastChange = "2017-03-13 20:15:23 +0000";
layers = (
{
layerId = "873A0A4B-B0F6-46C2-B3B5-B41B81B55E35";
paths = (
{
closed = 1;
nodes = (
"144 292 OFFCURVE",
"171 319 OFFCURVE",
"171 352 CURVE SMOOTH",
"171 387 OFFCURVE",
"143 412 OFFCURVE",
"111 412 CURVE SMOOTH",
"78 412 OFFCURVE",
"51 385 OFFCURVE",
"51 352 CURVE SMOOTH",
"51 320 OFFCURVE",
"78 292 OFFCURVE",
"111 292 CURVE SMOOTH"
);
}
);
width = 222;
}
);
note = dotmath;
unicode = 22C5;
},
{
glyphname = integraltp;
lastChange = "2017-03-13 20:15:23 +0000";
layers = (
{
layerId = "873A0A4B-B0F6-46C2-B3B5-B41B81B55E35";
paths = (
{
closed = 1;
nodes = (
"236 -240 LINE",
"236 576 LINE SMOOTH",
"236 652 OFFCURVE",
"264 690 OFFCURVE",
"319 690 CURVE SMOOTH",
"337 690 OFFCURVE",
"356 686 OFFCURVE",
"375 678 CURVE",
"375 751 LINE",
"360 757 OFFCURVE",
"339 760 OFFCURVE",
"312 760 CURVE SMOOTH",
"205 760 OFFCURVE",
"151 701 OFFCURVE",
"151 582 CURVE SMOOTH",
"151 -240 LINE"
);
}
);
width = 387;
}
);
note = integraltp;
unicode = 2320;
},
{
glyphname = integralbt;
lastChange = "2017-03-13 20:15:23 +0000";
layers = (
{
layerId = "873A0A4B-B0F6-46C2-B3B5-B41B81B55E35";
paths = (
{
closed = 1;
nodes = (
"182 -240 OFFCURVE",
"236 -179 OFFCURVE",
"236 -62 CURVE SMOOTH",
"236 833 LINE",
"151 833 LINE",
"151 -56 LINE SMOOTH",
"151 -132 OFFCURVE",
"123 -170 OFFCURVE",
"68 -170 CURVE SMOOTH",
"49 -170 OFFCURVE",
"30 -166 OFFCURVE",
"12 -158 CURVE",
"12 -231 LINE",
"28 -237 OFFCURVE",
"49 -240 OFFCURVE",
"75 -240 CURVE SMOOTH"
);
}
);
width = 387;
}
);
note = integralbt;
unicode = 2321;
},
{
glyphname = u1D56C;
lastChange = "2017-03-13 20:15:23 +0000";
layers = (
{
layerId = "873A0A4B-B0F6-46C2-B3B5-B41B81B55E35";
paths = (
{
closed = 1;
nodes = (
"529 130 LINE",
"532 91 OFFCURVE",
"549 60 OFFCURVE",
"581 37 CURVE",
"586 33 OFFCURVE",
"589 29 OFFCURVE",
"589 26 CURVE SMOOTH",
"589 21 OFFCURVE",
"586 10 OFFCURVE",
"580 -8 CURVE",
"618 -23 LINE",
"775 141 LINE",
"750 171 LINE",
"727 152 OFFCURVE",
"710 143 OFFCURVE",
"698 143 CURVE SMOOTH",
"688 143 OFFCURVE",
"680 149 OFFCURVE",
"674 162 CURVE",
"667 175 OFFCURVE",
"664 193 OFFCURVE",
"664 218 CURVE SMOOTH",
"664 573 LINE SMOOTH",
"664 645 OFFCURVE",
"682 684 OFFCURVE",
"733 707 CURVE",
"733 747 LINE",
"653 736 OFFCURVE",
"610 703 OFFCURVE",
"575 638 CURVE",
"542 702 LINE",
"506 680 LINE",
"519 647 OFFCURVE",
"526 611 OFFCURVE",
"526 570 CURVE SMOOTH",
"526 182 LINE",
"461 138 OFFCURVE",
"375 93 OFFCURVE",
"355 93 CURVE SMOOTH",
"346 93 OFFCURVE",
"334 102 OFFCURVE",
"318 120 CURVE SMOOTH",
"254 190 LINE",
"377 269 OFFCURVE",
"452 390 OFFCURVE",
"452 507 CURVE SMOOTH",
"452 553 OFFCURVE",
"443 594 OFFCURVE",
"424 631 CURVE SMOOTH",
"387 704 OFFCURVE",
"318 747 OFFCURVE",
"238 747 CURVE SMOOTH",
"197 747 OFFCURVE",
"161 738 OFFCURVE",
"129 719 CURVE SMOOTH",
"65 681 OFFCURVE",
"28 610 OFFCURVE",
"28 522 CURVE SMOOTH",
"28 401 OFFCURVE",
"98 322 OFFCURVE",
"230 305 CURVE",
"238 345 LINE",
"127 364 OFFCURVE",
"72 416 OFFCURVE",
"72 502 CURVE SMOOTH",
"72 575 OFFCURVE",
"126 628 OFFCURVE",
"198 628 CURVE SMOOTH",
"285 628 OFFCURVE",
"337 560 OFFCURVE",
"337 451 CURVE SMOOTH",
"337 296 OFFCURVE",
"250 204 OFFCURVE",
"65 151 CURVE",
"79 113 LINE",
"98 121 OFFCURVE",
"115 125 OFFCURVE",
"128 125 CURVE SMOOTH",
"136 125 OFFCURVE",
"149 118 OFFCURVE",
"166 103 CURVE SMOOTH",
"200 74 OFFCURVE",
"235 31 OFFCURVE",
"235 19 CURVE SMOOTH",
"235 14 OFFCURVE",
"226 7 OFFCURVE",
"208 -3 CURVE",
"236 -32 LINE"
);
}
);
width = 781;
}
);
note = u1D56C;
unicode = 1D56C;
},
{
glyphname = u1D56D;
lastChange = "2017-03-13 20:15:23 +0000";
layers = (
{
layerId = "873A0A4B-B0F6-46C2-B3B5-B41B81B55E35";
paths = (
{
closed = 1;
nodes = (
"460 -22 OFFCURVE",
"522 -9 OFFCURVE",
"594 16 CURVE SMOOTH",
"737 67 OFFCURVE",
"813 148 OFFCURVE",
"813 255 CURVE SMOOTH",
"813 350 OFFCURVE",
"756 428 OFFCURVE",
"665 457 CURVE",
"801 538 LINE",
"779 572 LINE",
"769 567 OFFCURVE",
"762 564 OFFCURVE",
"757 564 CURVE SMOOTH",
"752 564 OFFCURVE",
"746 567 OFFCURVE",
"739 572 CURVE SMOOTH",
"723 583 OFFCURVE",
"684 639 OFFCURVE",
"672 668 CURVE SMOOTH",
"666 683 OFFCURVE",
"663 692 OFFCURVE",
"663 695 CURVE SMOOTH",
"663 702 OFFCURVE",
"668 709 OFFCURVE",
"677 716 CURVE",
"657 751 LINE",
"628 732 OFFCURVE",
"592 712 OFFCURVE",
"550 693 CURVE",
"441 639 LINE",
"396 707 OFFCURVE",
"325 746 OFFCURVE",
"249 746 CURVE SMOOTH",
"208 746 OFFCURVE",
"172 736 OFFCURVE",
"141 717 CURVE SMOOTH",
"77 678 OFFCURVE",
"40 607 OFFCURVE",
"40 522 CURVE SMOOTH",
"40 401 OFFCURVE",
"113 322 OFFCURVE",
"245 305 CURVE",
"253 345 LINE",
"140 364 OFFCURVE",
"84 416 OFFCURVE",
"84 502 CURVE SMOOTH",
"84 527 OFFCURVE",
"90 549 OFFCURVE",
"103 569 CURVE SMOOTH",
"127 608 OFFCURVE",
"170 631 OFFCURVE",
"218 631 CURVE SMOOTH",
"248 631 OFFCURVE",
"275 623 OFFCURVE",
"299 607 CURVE SMOOTH",
"346 574 OFFCURVE",
"374 514 OFFCURVE",
"374 446 CURVE SMOOTH",
"374 396 OFFCURVE",
"364 353 OFFCURVE",
"344 318 CURVE SMOOTH",
"305 253 OFFCURVE",
"230 212 OFFCURVE",
"155 203 CURVE",
"86 192 OFFCURVE",
"37 152 OFFCURVE",
"37 100 CURVE SMOOTH",
"37 71 OFFCURVE",
"50 38 OFFCURVE",
"75 3 CURVE",
"111 20 LINE",
"103 36 OFFCURVE",
"99 49 OFFCURVE",
"99 59 CURVE SMOOTH",
"99 81 OFFCURVE",
"111 92 OFFCURVE",
"134 92 CURVE SMOOTH",
"143 92 OFFCURVE",
"157 88 OFFCURVE",
"174 79 CURVE SMOOTH",
"325 -1 LINE SMOOTH",
"351 -15 OFFCURVE",
"378 -22 OFFCURVE",
"407 -22 CURVE SMOOTH"
);
},
{
closed = 1;
nodes = (
"487 432 OFFCURVE",
"489 453 OFFCURVE",
"489 476 CURVE SMOOTH",
"489 520 OFFCURVE",
"480 562 OFFCURVE",
"462 602 CURVE",
"509 629 OFFCURVE",
"537 643 OFFCURVE",
"544 643 CURVE SMOOTH",
"550 643 OFFCURVE",
"561 633 OFFCURVE",
"576 613 CURVE SMOOTH",
"607 573 OFFCURVE",
"638 517 OFFCURVE",
"638 501 CURVE SMOOTH",
"638 496 OFFCURVE",
"626 488 OFFCURVE",
"603 476 CURVE SMOOTH",
"483 412 LINE"
);
},
{
closed = 1;
nodes = (
"522 61 OFFCURVE",
"469 81 OFFCURVE",
"403 121 CURVE SMOOTH",
"336 160 OFFCURVE",
"289 184 OFFCURVE",
"261 193 CURVE",
"330 219 OFFCURVE",
"374 238 OFFCURVE",
"394 251 CURVE SMOOTH",
"430 275 OFFCURVE",
"452 304 OFFCURVE",
"468 360 CURVE",
"481 367 OFFCURVE",
"498 371 OFFCURVE",
"519 371 CURVE SMOOTH",
"547 371 OFFCURVE",
"573 364 OFFCURVE",
"597 350 CURVE SMOOTH",
"644 322 OFFCURVE",
"673 270 OFFCURVE",
"673 207 CURVE SMOOTH",
"673 180 OFFCURVE",
"668 156 OFFCURVE",
"659 134 CURVE SMOOTH",
"639 89 OFFCURVE",
"603 61 OFFCURVE",
"562 61 CURVE SMOOTH"
);
}
);
width = 855;
}
);
note = u1D56D;
unicode = 1D56D;
},
{
glyphname = u1D56E;
lastChange = "2017-03-13 20:15:23 +0000";
layers = (
{
layerId = "873A0A4B-B0F6-46C2-B3B5-B41B81B55E35";
paths = (
{
closed = 1;
nodes = (
"501 -23 OFFCURVE",
"525 -21 OFFCURVE",
"546 -16 CURVE",
"726 133 LINE",
"703 166 LINE",
"666 138 OFFCURVE",
"575 113 OFFCURVE",
"507 113 CURVE SMOOTH",
"466 113 OFFCURVE",
"433 116 OFFCURVE",
"409 123 CURVE",
"476 189 OFFCURVE",
"514 229 OFFCURVE",
"524 242 CURVE SMOOTH",
"533 253 OFFCURVE",
"537 263 OFFCURVE",
"537 273 CURVE SMOOTH",
"537 290 OFFCURVE",
"511 342 OFFCURVE",
"460 427 CURVE SMOOTH",
"409 512 OFFCURVE",
"383 562 OFFCURVE",
"383 578 CURVE SMOOTH",
"383 599 OFFCURVE",
"417 628 OFFCURVE",
"446 628 CURVE SMOOTH",
"462 628 OFFCURVE",
"486 620 OFFCURVE",
"518 604 CURVE SMOOTH",
"550 588 OFFCURVE",
"574 580 OFFCURVE",
"589 580 CURVE SMOOTH",
"604 580 OFFCURVE",
"619 590 OFFCURVE",
"636 610 CURVE",
"728 708 LINE",
"699 735 LINE",
"695 732 OFFCURVE",
"690 727 OFFCURVE",
"683 721 CURVE",
"670 708 OFFCURVE",
"659 699 OFFCURVE",
"648 699 CURVE SMOOTH",
"640 699 OFFCURVE",
"608 711 OFFCURVE",
"552 736 CURVE",
"542 739 OFFCURVE",
"533 741 OFFCURVE",
"525 741 CURVE SMOOTH",
"508 741 OFFCURVE",
"495 731 OFFCURVE",
"475 715 CURVE",
"472 713 OFFCURVE",
"469 711 OFFCURVE",
"466 709 CURVE",
"463 706 OFFCURVE",
"459 703 OFFCURVE",
"455 700 CURVE SMOOTH",
"405 663 LINE",
"392 714 OFFCURVE",
"343 742 OFFCURVE",
"282 742 CURVE SMOOTH",
"237 742 OFFCURVE",
"196 728 OFFCURVE",
"161 700 CURVE SMOOTH",
"89 643 OFFCURVE",
"46 536 OFFCURVE",
"46 404 CURVE SMOOTH",
"46 328 OFFCURVE",
"65 257 OFFCURVE",
"103 191 CURVE SMOOTH",
"179 59 OFFCURVE",
"322 -23 OFFCURVE",
"473 -23 CURVE SMOOTH"
);
},
{
closed = 1;
nodes = (
"245 185 OFFCURVE",
"163 308 OFFCURVE",
"163 447 CURVE SMOOTH",
"163 496 OFFCURVE",
"168 540 OFFCURVE",
"179 578 CURVE SMOOTH",
"200 654 OFFCURVE",
"241 699 OFFCURVE",
"292 699 CURVE SMOOTH",
"328 699 OFFCURVE",
"365 676 OFFCURVE",
"374 643 CURVE",
"325 604 OFFCURVE",
"292 578 OFFCURVE",
"277 565 CURVE SMOOTH",
"254 545 OFFCURVE",
"243 529 OFFCURVE",
"243 516 CURVE SMOOTH",
"243 504 OFFCURVE",
"249 487 OFFCURVE",
"262 466 CURVE SMOOTH",
"353 318 LINE SMOOTH",
"387 263 OFFCURVE",
"404 226 OFFCURVE",
"404 206 CURVE SMOOTH",
"404 185 OFFCURVE",
"393 161 OFFCURVE",
"372 136 CURVE"
);
}
);
width = 745;
}
);
note = u1D56E;
unicode = 1D56E;
},
{
glyphname = u1D56F;
lastChange = "2017-03-13 20:15:23 +0000";
layers = (
{
layerId = "873A0A4B-B0F6-46C2-B3B5-B41B81B55E35";
paths = (
{
closed = 1;
nodes = (
"486 -23 OFFCURVE",
"532 -8 OFFCURVE",
"584 22 CURVE SMOOTH",
"695 85 OFFCURVE",
"762 178 OFFCURVE",
"762 290 CURVE SMOOTH",
"762 363 OFFCURVE",
"740 436 OFFCURVE",
"697 509 CURVE SMOOTH",
"608 653 OFFCURVE",
"448 747 OFFCURVE",
"283 747 CURVE SMOOTH",
"233 747 OFFCURVE",
"188 738 OFFCURVE",
"149 720 CURVE SMOOTH",
"70 683 OFFCURVE",
"24 613 OFFCURVE",
"24 525 CURVE SMOOTH",
"24 448 OFFCURVE",
"66 394 OFFCURVE",
"151 362 CURVE",
"163 403 LINE",
"107 424 OFFCURVE",
"69 472 OFFCURVE",
"69 520 CURVE SMOOTH",
"69 584 OFFCURVE",
"125 622 OFFCURVE",
"220 622 CURVE SMOOTH",
"277 622 OFFCURVE",
"328 612 OFFCURVE",
"374 593 CURVE",
"273 568 OFFCURVE",
"197 513 OFFCURVE",
"197 461 CURVE SMOOTH",
"197 420 OFFCURVE",
"224 382 OFFCURVE",
"276 321 CURVE SMOOTH",
"297 296 OFFCURVE",
"307 275 OFFCURVE",
"307 258 CURVE SMOOTH",
"307 240 OFFCURVE",
"293 225 OFFCURVE",
"265 214 CURVE",
"254 217 OFFCURVE",
"243 218 OFFCURVE",
"232 218 CURVE SMOOTH",
"175 218 OFFCURVE",
"118 177 OFFCURVE",
"60 96 CURVE",
"87 66 LINE",
"122 93 OFFCURVE",
"148 106 OFFCURVE",
"163 106 CURVE SMOOTH",
"167 106 LINE SMOOTH",
"178 106 OFFCURVE",
"202 93 OFFCURVE",
"241 66 CURVE SMOOTH",
"278 42 OFFCURVE",
"305 25 OFFCURVE",
"323 14 CURVE SMOOTH",
"358 -7 OFFCURVE",
"399 -23 OFFCURVE",
"446 -23 CURVE SMOOTH"
);
},
{
closed = 1;
nodes = (
"500 81 OFFCURVE",
"451 100 OFFCURVE",
"392 138 CURVE SMOOTH",
"314 190 LINE",
"358 210 LINE SMOOTH",
"415 235 OFFCURVE",
"444 261 OFFCURVE",
"444 288 CURVE SMOOTH",
"444 308 OFFCURVE",
"428 340 OFFCURVE",
"396 385 CURVE SMOOTH",
"364 429 OFFCURVE",
"347 453 OFFCURVE",
"345 456 CURVE SMOOTH",
"336 469 OFFCURVE",
"331 483 OFFCURVE",
"331 496 CURVE SMOOTH",
"331 532 OFFCURVE",
"372 558 OFFCURVE",
"437 563 CURVE",
"596 471 OFFCURVE",
"691 344 OFFCURVE",
"691 231 CURVE SMOOTH",
"691 204 OFFCURVE",
"684 179 OFFCURVE",
"670 156 CURVE SMOOTH",
"642 110 OFFCURVE",
"592 81 OFFCURVE",
"537 81 CURVE SMOOTH"
);
}
);
width = 813;
}
);
note = u1D56F;
unicode = 1D56F;
},
{
glyphname = u1D570;
lastChange = "2017-03-13 20:15:23 +0000";
layers = (
{
layerId = "873A0A4B-B0F6-46C2-B3B5-B41B81B55E35";
paths = (
{
closed = 1;
nodes = (
"501 -23 OFFCURVE",
"525 -21 OFFCURVE",
"546 -16 CURVE",
"726 133 LINE",
"702 165 LINE",
"647 133 OFFCURVE",
"562 113 OFFCURVE",
"497 113 CURVE SMOOTH",
"438 113 OFFCURVE",
"383 127 OFFCURVE",
"332 156 CURVE SMOOTH",
"225 213 OFFCURVE",
"163 318 OFFCURVE",
"163 447 CURVE SMOOTH",
"163 608 OFFCURVE",
"214 704 OFFCURVE",
"295 704 CURVE SMOOTH",
"342 704 OFFCURVE",
"375 680 OFFCURVE",
"388 640 CURVE",
"359 614 OFFCURVE",
"337 593 OFFCURVE",
"323 578 CURVE SMOOTH",
"309 563 OFFCURVE",
"302 548 OFFCURVE",
"302 533 CURVE SMOOTH",
"302 512 OFFCURVE",
"315 486 OFFCURVE",
"342 455 CURVE SMOOTH",
"421 365 LINE SMOOTH",
"458 322 OFFCURVE",
"478 294 OFFCURVE",
"478 261 CURVE SMOOTH",
"478 232 OFFCURVE",
"451 214 OFFCURVE",
"414 214 CURVE SMOOTH",
"374 214 OFFCURVE",
"339 245 OFFCURVE",
"322 297 CURVE",
"283 280 LINE",
"305 207 OFFCURVE",
"349 171 OFFCURVE",
"415 171 CURVE SMOOTH",
"438 171 OFFCURVE",
"457 175 OFFCURVE",
"472 182 CURVE SMOOTH",
"507 197 OFFCURVE",
"530 227 OFFCURVE",
"537 266 CURVE SMOOTH",
"541 286 OFFCURVE",
"550 305 OFFCURVE",
"563 323 CURVE SMOOTH",
"576 342 OFFCURVE",
"582 356 OFFCURVE",
"582 367 CURVE SMOOTH",
"582 382 OFFCURVE",
"570 406 OFFCURVE",
"545 437 CURVE",
"559 449 LINE",
"600 430 OFFCURVE",
"616 418 OFFCURVE",
"633 390 CURVE",
"662 390 LINE",
"675 416 OFFCURVE",
"695 438 OFFCURVE",
"721 457 CURVE",
"721 487 LINE",
"677 502 OFFCURVE",
"657 517 OFFCURVE",
"633 550 CURVE",
"603 550 LINE",
"596 535 OFFCURVE",
"586 522 OFFCURVE",
"573 511 CURVE SMOOTH",
"522 466 LINE",
"467 530 LINE SMOOTH",
"435 566 OFFCURVE",
"419 589 OFFCURVE",
"419 600 CURVE SMOOTH",
"419 615 OFFCURVE",
"444 633 OFFCURVE",
"464 633 CURVE SMOOTH",
"477 633 OFFCURVE",
"502 626 OFFCURVE",
"541 611 CURVE",
"576 596 OFFCURVE",
"598 589 OFFCURVE",
"607 589 CURVE SMOOTH",
"617 589 OFFCURVE",
"629 598 OFFCURVE",
"643 616 CURVE",
"731 717 LINE",
"699 741 LINE",
"695 738 OFFCURVE",
"690 733 OFFCURVE",
"683 727 CURVE",
"670 714 OFFCURVE",
"659 705 OFFCURVE",
"648 705 CURVE SMOOTH",
"633 705 OFFCURVE",
"597 717 OFFCURVE",
"541 742 CURVE SMOOTH",
"534 745 OFFCURVE",
"525 747 OFFCURVE",
"514 747 CURVE SMOOTH",
"501 747 OFFCURVE",
"487 739 OFFCURVE",
"473 724 CURVE SMOOTH",
"453 703 OFFCURVE",
"435 684 OFFCURVE",
"418 668 CURVE",
"395 721 OFFCURVE",
"350 747 OFFCURVE",
"282 747 CURVE SMOOTH",
"237 747 OFFCURVE",
"197 733 OFFCURVE",
"161 704 CURVE SMOOTH",
"89 646 OFFCURVE",
"46 537 OFFCURVE",
"46 404 CURVE SMOOTH",
"46 326 OFFCURVE",
"65 254 OFFCURVE",
"104 189 CURVE SMOOTH",
"181 57 OFFCURVE",
"322 -23 OFFCURVE",
"473 -23 CURVE SMOOTH"
);
}
);
width = 757;
}
);
note = u1D570;
unicode = 1D570;
},
{
glyphname = u1D571;
lastChange = "2017-03-13 20:15:23 +0000";
layers = (
{
layerId = "873A0A4B-B0F6-46C2-B3B5-B41B81B55E35";
paths = (
{
closed = 1;
nodes = (
"343 -184 OFFCURVE",
"388 -174 OFFCURVE",
"429 -155 CURVE SMOOTH",
"510 -116 OFFCURVE",
"560 -44 OFFCURVE",
"560 45 CURVE SMOOTH",
"560 122 OFFCURVE",
"517 194 OFFCURVE",
"434 289 CURVE",
"449 302 OFFCURVE",
"462 308 OFFCURVE",
"473 308 CURVE SMOOTH",
"492 308 OFFCURVE",
"512 293 OFFCURVE",
"531 264 CURVE",
"561 264 LINE",
"574 291 OFFCURVE",
"593 314 OFFCURVE",
"617 331 CURVE",
"617 361 LINE",
"572 368 OFFCURVE",
"553 379 OFFCURVE",
"529 411 CURVE",
"499 411 LINE",
"487 384 OFFCURVE",
"465 365 OFFCURVE",
"410 317 CURVE",
"401 328 OFFCURVE",
"397 333 OFFCURVE",
"396 334 CURVE",
"353 385 OFFCURVE",
"332 414 OFFCURVE",
"332 449 CURVE SMOOTH",
"332 497 OFFCURVE",
"352 538 OFFCURVE",
"391 572 CURVE",
"431 557 LINE",
"491 532 OFFCURVE",
"527 519 OFFCURVE",
"540 519 CURVE SMOOTH",
"547 519 OFFCURVE",
"557 525 OFFCURVE",
"569 537 CURVE SMOOTH",
"684 647 LINE",
"657 676 LINE",
"641 660 OFFCURVE",
"625 652 OFFCURVE",
"610 652 CURVE SMOOTH",
"601 652 OFFCURVE",
"584 657 OFFCURVE",
"559 667 CURVE SMOOTH",
"422 720 OFFCURVE",
"319 747 OFFCURVE",
"249 747 CURVE SMOOTH",
"206 747 OFFCURVE",
"166 737 OFFCURVE",
"127 718 CURVE SMOOTH",
"49 678 OFFCURVE",
"-4 607 OFFCURVE",
"-4 531 CURVE SMOOTH",
"-4 452 OFFCURVE",
"45 392 OFFCURVE",
"113 363 CURVE",
"129 402 LINE",
"69 427 OFFCURVE",
"40 471 OFFCURVE",
"40 515 CURVE SMOOTH",
"40 576 OFFCURVE",
"108 621 OFFCURVE",
"192 621 CURVE SMOOTH",
"245 621 OFFCURVE",
"277 612 OFFCURVE",
"344 589 CURVE",
"241 496 OFFCURVE",
"189 427 OFFCURVE",
"189 384 CURVE SMOOTH",
"189 348 OFFCURVE",
"200 315 OFFCURVE",
"222 284 CURVE SMOOTH",
"239 260 OFFCURVE",
"277 212 OFFCURVE",
"337 141 CURVE SMOOTH",
"392 78 OFFCURVE",
"419 28 OFFCURVE",
"419 -9 CURVE SMOOTH",
"419 -88 OFFCURVE",
"370 -138 OFFCURVE",
"281 -138 CURVE SMOOTH",
"190 -138 OFFCURVE",
"130 -95 OFFCURVE",
"130 -34 CURVE SMOOTH",
"130 -14 OFFCURVE",
"138 7 OFFCURVE",
"153 30 CURVE",
"196 90 OFFCURVE",
"217 126 OFFCURVE",
"217 171 CURVE SMOOTH",
"217 220 OFFCURVE",
"180 258 OFFCURVE",
"128 258 CURVE SMOOTH",
"85 258 OFFCURVE",
"51 231 OFFCURVE",
"26 178 CURVE",
"63 158 LINE",
"83 195 OFFCURVE",
"96 216 OFFCURVE",
"124 216 CURVE SMOOTH",
"143 216 OFFCURVE",
"153 206 OFFCURVE",
"153 186 CURVE SMOOTH",
"153 171 OFFCURVE",
"145 155 OFFCURVE",
"128 136 CURVE",
"89 89 OFFCURVE",
"57 33 OFFCURVE",
"57 -12 CURVE SMOOTH",
"57 -45 OFFCURVE",
"67 -75 OFFCURVE",
"88 -101 CURVE SMOOTH",
"129 -153 OFFCURVE",
"204 -184 OFFCURVE",
"292 -184 CURVE SMOOTH"
);
}
);
width = 657;
}
);
note = u1D571;
unicode = 1D571;
},
{
glyphname = u1D572;
lastChange = "2017-03-13 20:15:23 +0000";
layers = (
{
layerId = "873A0A4B-B0F6-46C2-B3B5-B41B81B55E35";
paths = (
{
closed = 1;
nodes = (
"500 -23 OFFCURVE",
"554 -12 OFFCURVE",
"601 11 CURVE SMOOTH",
"695 55 OFFCURVE",
"749 138 OFFCURVE",
"749 245 CURVE SMOOTH",
"749 334 OFFCURVE",
"706 404 OFFCURVE",
"620 454 CURVE",
"642 468 OFFCURVE",
"665 491 OFFCURVE",
"688 524 CURVE SMOOTH",
"710 557 OFFCURVE",
"733 582 OFFCURVE",
"758 600 CURVE",
"731 628 LINE",
"720 620 OFFCURVE",
"713 616 OFFCURVE",
"709 616 CURVE SMOOTH",
"703 616 OFFCURVE",
"692 622 OFFCURVE",
"676 635 CURVE SMOOTH",
"644 660 OFFCURVE",
"610 697 OFFCURVE",
"610 705 CURVE SMOOTH",
"610 709 OFFCURVE",
"615 718 OFFCURVE",
"626 733 CURVE",
"596 758 LINE",
"536 695 LINE SMOOTH",
"519 676 OFFCURVE",
"510 662 OFFCURVE",
"510 653 CURVE SMOOTH",
"510 643 OFFCURVE",
"518 631 OFFCURVE",
"535 616 CURVE SMOOTH",
"596 562 LINE SMOOTH",
"613 547 OFFCURVE",
"622 534 OFFCURVE",
"622 525 CURVE SMOOTH",
"622 501 OFFCURVE",
"581 465 OFFCURVE",
"524 446 CURVE SMOOTH",
"481 431 LINE SMOOTH",
"467 426 OFFCURVE",
"454 418 OFFCURVE",
"441 407 CURVE",
"461 432 OFFCURVE",
"478 469 OFFCURVE",
"478 486 CURVE SMOOTH",
"478 497 OFFCURVE",
"466 521 OFFCURVE",
"443 560 CURVE SMOOTH",
"420 597 OFFCURVE",
"408 623 OFFCURVE",
"408 637 CURVE SMOOTH",
"408 646 OFFCURVE",
"412 658 OFFCURVE",
"420 674 CURVE",
"439 665 OFFCURVE",
"453 656 OFFCURVE",
"463 647 CURVE",
"484 681 LINE",
"469 694 OFFCURVE",
"454 703 OFFCURVE",
"440 710 CURVE",
"464 739 LINE",
"432 763 LINE",
"399 728 LINE",
"371 737 OFFCURVE",
"346 742 OFFCURVE",
"323 742 CURVE SMOOTH",
"272 742 OFFCURVE",
"225 727 OFFCURVE",
"183 697 CURVE SMOOTH",
"98 637 OFFCURVE",
"46 520 OFFCURVE",
"46 381 CURVE SMOOTH",
"46 302 OFFCURVE",
"62 232 OFFCURVE",
"95 171 CURVE SMOOTH",
"159 48 OFFCURVE",
"282 -23 OFFCURVE",
"439 -23 CURVE SMOOTH"
);
},
{
closed = 1;
nodes = (
"253 350 OFFCURVE",
"213 366 OFFCURVE",
"193 394 CURVE",
"193 416 LINE SMOOTH",
"193 469 OFFCURVE",
"199 517 OFFCURVE",
"211 560 CURVE SMOOTH",
"235 646 OFFCURVE",
"279 697 OFFCURVE",
"331 697 CURVE SMOOTH",
"344 697 OFFCURVE",
"356 695 OFFCURVE",
"366 692 CURVE",
"342 664 LINE SMOOTH",
"301 619 OFFCURVE",
"280 589 OFFCURVE",
"280 575 CURVE SMOOTH",
"280 554 OFFCURVE",
"291 528 OFFCURVE",
"312 496 CURVE SMOOTH",
"333 463 OFFCURVE",
"352 441 OFFCURVE",
"352 405 CURVE SMOOTH",
"352 376 OFFCURVE",
"321 350 OFFCURVE",
"290 350 CURVE SMOOTH"
);
},
{
closed = 1;
nodes = (
"331 21 OFFCURVE",
"243 129 OFFCURVE",
"200 336 CURVE",
"231 316 OFFCURVE",
"264 306 OFFCURVE",
"299 306 CURVE SMOOTH",
"325 306 OFFCURVE",
"354 317 OFFCURVE",
"385 340 CURVE SMOOTH",
"416 363 OFFCURVE",
"445 374 OFFCURVE",
"470 374 CURVE SMOOTH",
"496 374 OFFCURVE",
"520 367 OFFCURVE",
"541 352 CURVE SMOOTH",
"584 322 OFFCURVE",
"609 266 OFFCURVE",
"609 202 CURVE SMOOTH",
"609 90 OFFCURVE",
"547 21 OFFCURVE",
"444 21 CURVE SMOOTH"
);
}
);
width = 804;
}
);
note = u1D572;
unicode = 1D572;
},
{
glyphname = u1D573;
lastChange = "2017-03-13 20:15:23 +0000";
layers = (
{
layerId = "873A0A4B-B0F6-46C2-B3B5-B41B81B55E35";
paths = (
{
closed = 1;
nodes = (
"339 -208 OFFCURVE",
"390 -177 OFFCURVE",
"409 -118 CURVE",
"371 -99 LINE",
"353 -143 OFFCURVE",
"321 -165 OFFCURVE",
"276 -165 CURVE SMOOTH",
"221 -165 OFFCURVE",
"177 -126 OFFCURVE",
"177 -75 CURVE SMOOTH",
"177 -27 OFFCURVE",
"210 5 OFFCURVE",
"255 5 CURVE SMOOTH",
"286 5 OFFCURVE",
"313 -11 OFFCURVE",
"314 -36 CURVE",
"314 -41 OFFCURVE",
"313 -46 OFFCURVE",
"310 -51 CURVE",
"334 -70 LINE",
"344 -61 OFFCURVE",
"367 -53 OFFCURVE",
"403 -45 CURVE SMOOTH",
"498 -23 LINE",
"537 -12 OFFCURVE",
"573 9 OFFCURVE",
"606 40 CURVE SMOOTH",
"670 100 OFFCURVE",
"709 187 OFFCURVE",
"709 275 CURVE SMOOTH",
"709 395 OFFCURVE",
"657 484 OFFCURVE",
"560 536 CURVE SMOOTH",
"542 545 LINE",
"533 550 OFFCURVE",
"529 556 OFFCURVE",
"528 563 CURVE",
"498 563 LINE",
"494 548 OFFCURVE",
"467 531 OFFCURVE",
"417 514 CURVE SMOOTH",
"367 497 OFFCURVE",
"332 481 OFFCURVE",
"311 464 CURVE",
"273 518 LINE SMOOTH",
"261 535 OFFCURVE",
"255 551 OFFCURVE",
"255 565 CURVE SMOOTH",
"255 598 OFFCURVE",
"286 634 OFFCURVE",
"311 634 CURVE SMOOTH",
"321 634 OFFCURVE",
"342 628 OFFCURVE",
"375 615 CURVE SMOOTH",
"407 602 OFFCURVE",
"425 596 OFFCURVE",
"428 596 CURVE SMOOTH",
"443 596 OFFCURVE",
"458 605 OFFCURVE",
"474 622 CURVE SMOOTH",
"560 716 LINE",
"529 740 LINE",
"512 720 OFFCURVE",
"499 710 OFFCURVE",
"489 710 CURVE SMOOTH",
"477 710 OFFCURVE",
"456 716 OFFCURVE",
"426 728 CURVE SMOOTH",
"396 740 OFFCURVE",
"377 746 OFFCURVE",
"368 746 CURVE SMOOTH",
"348 746 OFFCURVE",
"303 707 OFFCURVE",
"233 629 CURVE SMOOTH",
"194 585 LINE SMOOTH",
"150 537 OFFCURVE",
"128 500 OFFCURVE",
"128 474 CURVE SMOOTH",
"128 450 OFFCURVE",
"150 407 OFFCURVE",
"194 346 CURVE SMOOTH",
"238 285 OFFCURVE",
"260 242 OFFCURVE",
"260 215 CURVE SMOOTH",
"260 192 OFFCURVE",
"240 169 OFFCURVE",
"213 169 CURVE SMOOTH",
"200 169 OFFCURVE",
"186 175 OFFCURVE",
"171 187 CURVE SMOOTH",
"141 211 OFFCURVE",
"115 252 OFFCURVE",
"108 288 CURVE",
"-17 200 LINE",
"7 169 LINE",
"15 174 LINE",
"31 180 LINE",
"37 180 OFFCURVE",
"44 177 OFFCURVE",
"53 172 CURVE",
"94 141 OFFCURVE",
"143 125 OFFCURVE",
"199 125 CURVE SMOOTH",
"228 125 OFFCURVE",
"258 132 OFFCURVE",
"290 147 CURVE SMOOTH",
"353 175 OFFCURVE",
"401 223 OFFCURVE",
"401 264 CURVE SMOOTH",
"401 295 OFFCURVE",
"386 337 OFFCURVE",
"356 390 CURVE SMOOTH",
"335 429 LINE",
"362 448 OFFCURVE",
"386 458 OFFCURVE",
"407 458 CURVE SMOOTH",
"430 458 OFFCURVE",
"453 447 OFFCURVE",
"477 426 CURVE SMOOTH",
"524 383 OFFCURVE",
"558 307 OFFCURVE",
"558 228 CURVE SMOOTH",
"558 101 OFFCURVE",
"513 21 OFFCURVE",
"445 9 CURVE",
"395 48 OFFCURVE",
"369 69 OFFCURVE",
"366 74 CURVE",
"362 80 OFFCURVE",
"360 85 OFFCURVE",
"360 88 CURVE SMOOTH",
"360 92 OFFCURVE",
"362 96 OFFCURVE",
"365 101 CURVE",
"337 113 LINE",
"328 97 OFFCURVE",
"301 83 OFFCURVE",
"257 70 CURVE SMOOTH",
"175 45 OFFCURVE",
"134 -4 OFFCURVE",
"134 -75 CURVE SMOOTH",
"134 -100 OFFCURVE",
"140 -122 OFFCURVE",
"153 -142 CURVE",
"177 -183 OFFCURVE",
"221 -208 OFFCURVE",
"276 -208 CURVE SMOOTH"
);
}
);
width = 765;
}
);
note = u1D573;
unicode = 1D573;
},
{
glyphname = u1D574;
lastChange = "2017-03-13 20:15:23 +0000";
layers = (
{
layerId = "873A0A4B-B0F6-46C2-B3B5-B41B81B55E35";
paths = (
{
closed = 1;
nodes = (
"131 439 OFFCURVE",
"76 485 OFFCURVE",
"76 541 CURVE SMOOTH",
"76 588 OFFCURVE",
"116 620 OFFCURVE",
"164 620 CURVE SMOOTH",
"190 620 OFFCURVE",
"213 615 OFFCURVE",
"232 605 CURVE SMOOTH",
"287 576 LINE SMOOTH",
"336 548 OFFCURVE",
"366 534 OFFCURVE",
"377 534 CURVE SMOOTH",
"391 534 OFFCURVE",
"414 542 OFFCURVE",
"446 558 CURVE SMOOTH",
"509 590 OFFCURVE",
"568 639 OFFCURVE",
"568 675 CURVE SMOOTH",
"568 706 OFFCURVE",
"547 729 OFFCURVE",
"520 729 CURVE SMOOTH",
"496 729 OFFCURVE",
"477 711 OFFCURVE",
"477 690 CURVE SMOOTH",
"477 674 OFFCURVE",
"490 655 OFFCURVE",
"515 655 CURVE",
"515 650 OFFCURVE",
"482 627 OFFCURVE",
"471 627 CURVE SMOOTH",
"461 627 OFFCURVE",
"447 632 OFFCURVE",
"430 643 CURVE",
"417 650 OFFCURVE",
"396 662 OFFCURVE",
"367 677 CURVE SMOOTH",
"333 694 LINE",
"290 713 OFFCURVE",
"269 731 OFFCURVE",
"269 747 CURVE",
"239 747 LINE",
"237 728 OFFCURVE",
"216 713 OFFCURVE",
"175 703 CURVE SMOOTH",
"90 680 OFFCURVE",
"33 621 OFFCURVE",
"33 541 CURVE SMOOTH",
"33 464 OFFCURVE",
"93 404 OFFCURVE",
"193 387 CURVE",
"204 428 LINE"
);
},
{
closed = 1;
nodes = (
"220 -14 OFFCURVE",
"240 -9 OFFCURVE",
"267 -9 CURVE SMOOTH",
"293 -9 LINE SMOOTH",
"373 -9 OFFCURVE",
"415 7 OFFCURVE",
"468 51 CURVE SMOOTH",
"521 95 OFFCURVE",
"565 151 OFFCURVE",
"565 180 CURVE SMOOTH",
"565 205 OFFCURVE",
"558 230 OFFCURVE",
"544 255 CURVE SMOOTH",
"500 334 LINE",
"486 359 LINE",
"465 396 LINE SMOOTH",
"454 415 OFFCURVE",
"448 431 OFFCURVE",
"448 444 CURVE SMOOTH",
"448 471 OFFCURVE",
"463 485 OFFCURVE",
"484 485 CURVE SMOOTH",
"489 485 OFFCURVE",
"495 480 OFFCURVE",
"503 470 CURVE SMOOTH",
"512 459 OFFCURVE",
"522 454 OFFCURVE",
"535 454 CURVE SMOOTH",
"556 454 OFFCURVE",
"573 471 OFFCURVE",
"573 494 CURVE SMOOTH",
"573 521 OFFCURVE",
"549 539 OFFCURVE",
"521 539 CURVE SMOOTH",
"499 539 OFFCURVE",
"473 532 OFFCURVE",
"444 518 CURVE SMOOTH",
"384 487 OFFCURVE",
"316 413 OFFCURVE",
"316 369 CURVE SMOOTH",
"316 342 OFFCURVE",
"344 282 OFFCURVE",
"401 191 CURVE SMOOTH",
"424 152 OFFCURVE",
"436 125 OFFCURVE",
"436 108 CURVE SMOOTH",
"436 67 OFFCURVE",
"400 40 OFFCURVE",
"359 40 CURVE SMOOTH",
"345 40 OFFCURVE",
"330 44 OFFCURVE",
"315 53 CURVE",
"284 69 OFFCURVE",
"261 95 OFFCURVE",
"261 114 CURVE SMOOTH",
"261 118 OFFCURVE",
"263 128 OFFCURVE",
"268 144 CURVE",
"242 160 LINE",
"223 147 OFFCURVE",
"211 140 OFFCURVE",
"206 140 CURVE SMOOTH",
"198 140 OFFCURVE",
"188 142 OFFCURVE",
"176 146 CURVE SMOOTH",
"165 150 OFFCURVE",
"152 152 OFFCURVE",
"136 152 CURVE SMOOTH",
"83 152 OFFCURVE",
"43 118 OFFCURVE",
"18 50 CURVE",
"58 35 LINE",
"71 68 OFFCURVE",
"93 85 OFFCURVE",
"123 85 CURVE SMOOTH",
"159 85 OFFCURVE",
"183 55 OFFCURVE",
"183 11 CURVE",
"182 -8 LINE",
"209 -23 LINE"
);
}
);
width = 624;
}
);
note = u1D574;
unicode = 1D574;
},
{
glyphname = u1D575;
lastChange = "2017-03-13 20:15:23 +0000";
layers = (
{
layerId = "873A0A4B-B0F6-46C2-B3B5-B41B81B55E35";
paths = (
{
closed = 1;
nodes = (
"169 439 OFFCURVE",
"114 485 OFFCURVE",
"114 541 CURVE SMOOTH",
"114 588 OFFCURVE",
"154 620 OFFCURVE",
"202 620 CURVE SMOOTH",
"229 620 OFFCURVE",
"251 615 OFFCURVE",
"270 605 CURVE SMOOTH",
"325 576 LINE SMOOTH",
"374 548 OFFCURVE",
"404 534 OFFCURVE",
"415 534 CURVE SMOOTH",
"429 534 OFFCURVE",
"452 542 OFFCURVE",
"484 558 CURVE SMOOTH",
"547 590 OFFCURVE",
"606 639 OFFCURVE",
"606 675 CURVE SMOOTH",
"606 706 OFFCURVE",
"585 729 OFFCURVE",
"558 729 CURVE SMOOTH",
"534 729 OFFCURVE",
"515 711 OFFCURVE",
"515 690 CURVE SMOOTH",
"515 674 OFFCURVE",
"528 655 OFFCURVE",
"553 655 CURVE",
"553 650 OFFCURVE",
"521 627 OFFCURVE",
"509 627 CURVE SMOOTH",
"499 627 OFFCURVE",
"485 632 OFFCURVE",
"468 643 CURVE",
"455 650 OFFCURVE",
"434 662 OFFCURVE",
"405 677 CURVE SMOOTH",
"371 694 LINE",
"328 713 OFFCURVE",
"307 731 OFFCURVE",
"307 747 CURVE",
"277 747 LINE",
"275 728 OFFCURVE",
"254 713 OFFCURVE",
"213 703 CURVE SMOOTH",
"128 680 OFFCURVE",
"71 621 OFFCURVE",
"71 541 CURVE SMOOTH",
"71 464 OFFCURVE",
"131 404 OFFCURVE",
"231 387 CURVE",
"242 428 LINE"
);
},
{
closed = 1;
nodes = (
"239 -152 OFFCURVE",
"260 -146 OFFCURVE",
"289 -146 CURVE SMOOTH",
"327 -146 LINE SMOOTH",
"416 -146 OFFCURVE",
"456 -122 OFFCURVE",
"508 -68 CURVE SMOOTH",
"560 -14 OFFCURVE",
"603 53 OFFCURVE",
"603 90 CURVE SMOOTH",
"603 141 OFFCURVE",
"587 179 OFFCURVE",
"542 274 CURVE",
"537 283 OFFCURVE",
"530 297 OFFCURVE",
"521 317 CURVE SMOOTH",
"497 368 OFFCURVE",
"485 403 OFFCURVE",
"485 420 CURVE SMOOTH",
"485 452 OFFCURVE",
"500 471 OFFCURVE",
"521 471 CURVE SMOOTH",
"526 471 OFFCURVE",
"532 465 OFFCURVE",
"541 452 CURVE",
"549 439 OFFCURVE",
"560 433 OFFCURVE",
"573 433 CURVE SMOOTH",
"597 433 OFFCURVE",
"617 450 OFFCURVE",
"617 477 CURVE SMOOTH",
"617 510 OFFCURVE",
"590 532 OFFCURVE",
"561 532 CURVE SMOOTH",
"509 532 OFFCURVE",
"460 505 OFFCURVE",
"420 459 CURVE SMOOTH",
"380 413 OFFCURVE",
"351 358 OFFCURVE",
"351 326 CURVE SMOOTH",
"351 297 OFFCURVE",
"371 237 OFFCURVE",
"412 148 CURVE SMOOTH",
"453 61 OFFCURVE",
"473 7 OFFCURVE",
"473 -13 CURVE SMOOTH",
"473 -26 OFFCURVE",
"469 -38 OFFCURVE",
"461 -51 CURVE SMOOTH",
"445 -76 OFFCURVE",
"415 -95 OFFCURVE",
"384 -95 CURVE SMOOTH",
"325 -95 OFFCURVE",
"278 -55 OFFCURVE",
"278 -7 CURVE SMOOTH",
"278 3 OFFCURVE",
"281 15 OFFCURVE",
"286 29 CURVE",
"260 46 LINE",
"246 30 OFFCURVE",
"234 22 OFFCURVE",
"223 22 CURVE SMOOTH",
"214 22 OFFCURVE",
"203 24 OFFCURVE",
"190 29 CURVE",
"177 33 OFFCURVE",
"163 35 OFFCURVE",
"148 35 CURVE SMOOTH",
"83 35 OFFCURVE",
"40 -1 OFFCURVE",
"21 -73 CURVE",
"60 -89 LINE",
"72 -52 OFFCURVE",
"94 -33 OFFCURVE",
"126 -33 CURVE SMOOTH",
"169 -33 OFFCURVE",
"203 -69 OFFCURVE",
"203 -124 CURVE",
"201 -148 LINE",
"228 -164 LINE"
);
}
);
width = 665;
}
);
note = u1D575;
unicode = 1D575;
},
{
glyphname = u1D576;
lastChange = "2017-03-13 20:15:23 +0000";
layers = (
{
layerId = "873A0A4B-B0F6-46C2-B3B5-B41B81B55E35";
paths = (
{
closed = 1;
nodes = (
"66 -12 OFFCURVE",
"83 -6 OFFCURVE",
"98 -6 CURVE SMOOTH",
"110 -6 OFFCURVE",
"134 -9 OFFCURVE",
"169 -14 CURVE",
"202 -20 OFFCURVE",
"226 -23 OFFCURVE",
"241 -23 CURVE SMOOTH",
"346 -23 OFFCURVE",
"408 37 OFFCURVE",
"408 152 CURVE SMOOTH",
"408 203 OFFCURVE",
"396 250 OFFCURVE",
"371 295 CURVE",
"387 307 OFFCURVE",
"399 313 OFFCURVE",
"408 313 CURVE SMOOTH",
"418 313 OFFCURVE",
"430 301 OFFCURVE",
"444 278 CURVE SMOOTH",
"460 252 OFFCURVE",
"479 208 OFFCURVE",
"502 146 CURVE SMOOTH",
"528 77 OFFCURVE",
"549 33 OFFCURVE",
"564 12 CURVE SMOOTH",
"581 -11 OFFCURVE",
"601 -23 OFFCURVE",
"622 -23 CURVE",
"643 -21 LINE",
"765 65 LINE",
"743 98 LINE",
"726 86 OFFCURVE",
"713 80 OFFCURVE",
"703 80 CURVE SMOOTH",
"684 80 OFFCURVE",
"665 106 OFFCURVE",
"645 159 CURVE SMOOTH",
"626 208 OFFCURVE",
"606 258 OFFCURVE",
"583 308 CURVE SMOOTH",
"562 354 OFFCURVE",
"544 378 OFFCURVE",
"528 380 CURVE",
"637 446 LINE",
"636 476 LINE",
"629 477 OFFCURVE",
"617 487 OFFCURVE",
"601 506 CURVE SMOOTH",
"569 543 OFFCURVE",
"533 597 OFFCURVE",
"520 632 CURVE",
"490 632 LINE",
"477 616 OFFCURVE",
"464 606 OFFCURVE",
"453 602 CURVE SMOOTH",
"441 598 OFFCURVE",
"423 591 OFFCURVE",
"399 581 CURVE",
"347 557 OFFCURVE",
"313 528 OFFCURVE",
"313 499 CURVE SMOOTH",
"313 490 OFFCURVE",
"315 476 OFFCURVE",
"320 455 CURVE SMOOTH",
"351 331 LINE",
"322 379 LINE",
"265 462 OFFCURVE",
"236 517 OFFCURVE",
"236 544 CURVE SMOOTH",
"236 641 OFFCURVE",
"327 703 OFFCURVE",
"464 703 CURVE SMOOTH",
"505 703 OFFCURVE",
"542 696 OFFCURVE",
"576 681 CURVE SMOOTH",
"643 652 OFFCURVE",
"685 599 OFFCURVE",
"685 536 CURVE",
"678 473 LINE",
"678 460 OFFCURVE",
"698 451 OFFCURVE",
"718 451 CURVE SMOOTH",
"749 451 OFFCURVE",
"768 479 OFFCURVE",
"768 518 CURVE SMOOTH",
"768 561 OFFCURVE",
"754 600 OFFCURVE",
"725 635 CURVE SMOOTH",
"667 705 OFFCURVE",
"565 747 OFFCURVE",
"460 747 CURVE SMOOTH",
"396 747 OFFCURVE",
"337 733 OFFCURVE",
"282 704 CURVE SMOOTH",
"172 646 OFFCURVE",
"100 555 OFFCURVE",
"100 499 CURVE SMOOTH",
"100 472 OFFCURVE",
"118 432 OFFCURVE",
"154 379 CURVE SMOOTH",
"206 301 LINE SMOOTH",
"259 222 OFFCURVE",
"286 158 OFFCURVE",
"286 108 CURVE SMOOTH",
"286 50 OFFCURVE",
"265 21 OFFCURVE",
"224 21 CURVE SMOOTH",
"184 21 OFFCURVE",
"156 42 OFFCURVE",
"156 78 CURVE SMOOTH",
"156 92 OFFCURVE",
"161 111 OFFCURVE",
"172 135 CURVE",
"147 154 LINE",
"134 139 OFFCURVE",
"105 128 OFFCURVE",
"84 128 CURVE SMOOTH",
"59 128 OFFCURVE",
"38 132 OFFCURVE",
"23 141 CURVE",
"4 115 LINE",
"26 90 OFFCURVE",
"37 69 OFFCURVE",
"37 50 CURVE SMOOTH",
"37 35 OFFCURVE",
"33 17 OFFCURVE",
"26 -3 CURVE",
"49 -23 LINE"
);
},
{
closed = 1;
nodes = (
"357 475 OFFCURVE",
"355 485 OFFCURVE",
"355 496 CURVE SMOOTH",
"355 517 OFFCURVE",
"392 543 OFFCURVE",
"420 543 CURVE SMOOTH",
"427 543 OFFCURVE",
"437 536 OFFCURVE",
"452 521 CURVE SMOOTH",
"481 491 OFFCURVE",
"510 449 OFFCURVE",
"510 433 CURVE SMOOTH",
"510 419 OFFCURVE",
"470 392 OFFCURVE",
"389 351 CURVE",
"360 468 LINE"
);
}
);
width = 755;
}
);
note = u1D576;
unicode = 1D576;
},
{
glyphname = u1D577;
lastChange = "2017-03-13 20:15:23 +0000";
layers = (
{
layerId = "873A0A4B-B0F6-46C2-B3B5-B41B81B55E35";
paths = (
{
closed = 1;
nodes = (
"412 -23 OFFCURVE",
"425 -21 OFFCURVE",
"434 -16 CURVE",
"569 140 LINE",
"545 159 LINE",
"516 129 OFFCURVE",
"496 112 OFFCURVE",
"485 108 CURVE SMOOTH",
"472 103 OFFCURVE",
"462 101 OFFCURVE",
"453 101 CURVE SMOOTH",
"418 101 OFFCURVE",
"301 140 OFFCURVE",
"233 173 CURVE",
"309 230 OFFCURVE",
"328 260 OFFCURVE",
"328 304 CURVE SMOOTH",
"328 352 OFFCURVE",
"293 406 OFFCURVE",
"229 486 CURVE SMOOTH",
"203 519 OFFCURVE",
"190 550 OFFCURVE",
"190 579 CURVE SMOOTH",
"190 659 OFFCURVE",
"244 705 OFFCURVE",
"333 705 CURVE SMOOTH",
"364 705 OFFCURVE",
"391 699 OFFCURVE",
"416 688 CURVE",
"465 664 OFFCURVE",
"495 620 OFFCURVE",
"495 568 CURVE SMOOTH",
"495 536 OFFCURVE",
"471 510 OFFCURVE",
"436 510 CURVE SMOOTH",
"425 510 OFFCURVE",
"412 512 OFFCURVE",
"399 515 CURVE",
"372 497 LINE",
"382 479 LINE",
"379 466 LINE",
"367 437 OFFCURVE",
"361 416 OFFCURVE",
"361 403 CURVE SMOOTH",
"361 342 OFFCURVE",
"399 306 OFFCURVE",
"470 306 CURVE SMOOTH",
"497 306 OFFCURVE",
"522 314 OFFCURVE",
"546 330 CURVE",
"529 367 LINE",
"525 366 OFFCURVE",
"516 362 OFFCURVE",
"502 356 CURVE SMOOTH",
"491 351 OFFCURVE",
"479 349 OFFCURVE",
"466 349 CURVE SMOOTH",
"441 349 OFFCURVE",
"415 364 OFFCURVE",
"415 389 CURVE SMOOTH",
"415 417 OFFCURVE",
"448 440 OFFCURVE",
"489 440 CURVE SMOOTH",
"507 440 OFFCURVE",
"522 436 OFFCURVE",
"533 429 CURVE",
"557 455 LINE",
"550 461 OFFCURVE",
"547 466 OFFCURVE",
"547 470 CURVE SMOOTH",
"547 479 OFFCURVE",
"550 491 OFFCURVE",
"555 505 CURVE SMOOTH",
"560 520 OFFCURVE",
"562 535 OFFCURVE",
"562 552 CURVE SMOOTH",
"562 589 OFFCURVE",
"552 622 OFFCURVE",
"531 652 CURVE SMOOTH",
"490 712 OFFCURVE",
"414 749 OFFCURVE",
"329 749 CURVE SMOOTH",
"285 749 OFFCURVE",
"242 740 OFFCURVE",
"199 723 CURVE",
"118 687 OFFCURVE",
"57 600 OFFCURVE",
"57 523 CURVE SMOOTH",
"57 487 OFFCURVE",
"82 438 OFFCURVE",
"131 377 CURVE SMOOTH",
"180 316 OFFCURVE",
"205 272 OFFCURVE",
"205 247 CURVE SMOOTH",
"205 222 OFFCURVE",
"197 204 OFFCURVE",
"181 194 CURVE",
"152 203 OFFCURVE",
"133 208 OFFCURVE",
"126 208 CURVE SMOOTH",
"115 208 OFFCURVE",
"105 203 OFFCURVE",
"98 194 CURVE SMOOTH",
"91 185 OFFCURVE",
"61 130 OFFCURVE",
"10 29 CURVE",
"37 14 LINE",
"55 40 LINE SMOOTH",
"67 58 OFFCURVE",
"82 67 OFFCURVE",
"101 67 CURVE SMOOTH",
"120 67 OFFCURVE",
"149 58 OFFCURVE",
"188 41 CURVE",
"276 -2 OFFCURVE",
"345 -23 OFFCURVE",
"394 -23 CURVE SMOOTH"
);
}
);
width = 619;
}
);
note = u1D577;
unicode = 1D577;
},
{
glyphname = u1D578;
lastChange = "2017-03-13 20:15:23 +0000";
layers = (
{
layerId = "873A0A4B-B0F6-46C2-B3B5-B41B81B55E35";
paths = (
{
closed = 1;
nodes = (
"237 -23 LINE",
"304 39 OFFCURVE",
"351 89 OFFCURVE",
"376 127 CURVE",
"436 210 OFFCURVE",
"465 300 OFFCURVE",
"465 407 CURVE SMOOTH",
"465 497 OFFCURVE",
"450 568 OFFCURVE",
"419 621 CURVE",
"428 653 OFFCURVE",
"456 674 OFFCURVE",
"487 674 CURVE SMOOTH",
"525 674 OFFCURVE",
"555 641 OFFCURVE",
"578 575 CURVE SMOOTH",
"601 507 OFFCURVE",
"613 420 OFFCURVE",
"613 313 CURVE SMOOTH",
"613 206 OFFCURVE",
"600 131 OFFCURVE",
"575 88 CURVE",
"552 103 LINE",
"519 127 OFFCURVE",
"495 139 OFFCURVE",
"480 139 CURVE SMOOTH",
"459 139 OFFCURVE",
"430 114 OFFCURVE",
"393 64 CURVE SMOOTH",
"358 19 LINE",
"387 -4 LINE",
"411 22 OFFCURVE",
"427 35 OFFCURVE",
"435 35 CURVE SMOOTH",
"444 35 OFFCURVE",
"501 -6 OFFCURVE",
"501 -13 CURVE SMOOTH",
"501 -23 LINE",
"531 -23 LINE",
"669 111 OFFCURVE",
"738 254 OFFCURVE",
"738 406 CURVE SMOOTH",
"738 483 OFFCURVE",
"727 548 OFFCURVE",
"704 601 CURVE",
"726 638 OFFCURVE",
"759 656 OFFCURVE",
"804 656 CURVE SMOOTH",
"873 656 OFFCURVE",
"912 603 OFFCURVE",
"912 515 CURVE SMOOTH",
"912 483 LINE",
"881 465 OFFCURVE",
"860 450 OFFCURVE",
"848 438 CURVE SMOOTH",
"820 410 OFFCURVE",
"811 388 OFFCURVE",
"811 335 CURVE SMOOTH",
"811 106 LINE SMOOTH",
"811 79 OFFCURVE",
"828 60 OFFCURVE",
"860 42 CURVE SMOOTH",
"892 24 OFFCURVE",
"918 17 OFFCURVE",
"921 -23 CURVE",
"950 -23 LINE",
"1083 115 LINE",
"1064 141 LINE",
"1012 104 LINE",
"1005 101 OFFCURVE",
"1000 99 OFFCURVE",
"997 99 CURVE SMOOTH",
"996 99 LINE SMOOTH",
"991 99 OFFCURVE",
"951 132 OFFCURVE",
"948 139 CURVE",
"947 143 OFFCURVE",
"946 149 OFFCURVE",
"946 157 CURVE SMOOTH",
"946 365 LINE SMOOTH",
"946 441 OFFCURVE",
"978 470 OFFCURVE",
"1073 485 CURVE",
"1073 518 LINE",
"1049 518 LINE",
"1049 532 LINE SMOOTH",
"1049 664 OFFCURVE",
"981 737 OFFCURVE",
"856 737 CURVE SMOOTH",
"776 737 OFFCURVE",
"718 706 OFFCURVE",
"683 645 CURVE",
"642 713 OFFCURVE",
"588 747 OFFCURVE",
"520 747 CURVE SMOOTH",
"463 747 OFFCURVE",
"415 717 OFFCURVE",
"390 658 CURVE",
"343 711 OFFCURVE",
"285 737 OFFCURVE",
"215 737 CURVE SMOOTH",
"175 737 OFFCURVE",
"139 728 OFFCURVE",
"106 709 CURVE SMOOTH",
"40 671 OFFCURVE",
"-1 601 OFFCURVE",
"-1 521 CURVE SMOOTH",
"-1 421 OFFCURVE",
"64 341 OFFCURVE",
"192 305 CURVE",
"206 345 LINE",
"117 369 OFFCURVE",
"50 440 OFFCURVE",
"50 511 CURVE SMOOTH",
"50 534 OFFCURVE",
"56 556 OFFCURVE",
"67 577 CURVE SMOOTH",
"89 617 OFFCURVE",
"129 644 OFFCURVE",
"177 644 CURVE SMOOTH",
"281 644 OFFCURVE",
"341 521 OFFCURVE",
"341 308 CURVE SMOOTH",
"341 202 OFFCURVE",
"322 128 OFFCURVE",
"284 86 CURVE",
"258 103 LINE SMOOTH",
"221 127 OFFCURVE",
"196 139 OFFCURVE",
"183 139 CURVE SMOOTH",
"168 139 OFFCURVE",
"151 128 OFFCURVE",
"134 107 CURVE SMOOTH",
"101 66 OFFCURVE",
"77 37 OFFCURVE",
"64 19 CURVE",
"93 -4 LINE",
"117 22 OFFCURVE",
"132 35 OFFCURVE",
"139 35 CURVE SMOOTH",
"147 35 OFFCURVE",
"206 -4 OFFCURVE",
"206 -12 CURVE SMOOTH",
"206 -23 LINE"
);
}
);
width = 1106;
}
);
note = u1D578;
unicode = 1D578;
},
{
glyphname = u1D579;
lastChange = "2017-03-13 20:15:23 +0000";
layers = (
{
layerId = "873A0A4B-B0F6-46C2-B3B5-B41B81B55E35";
paths = (
{
closed = 1;
nodes = (
"75 -13 OFFCURVE",
"92 -7 OFFCURVE",
"107 -7 CURVE SMOOTH",
"119 -7 OFFCURVE",
"143 -10 OFFCURVE",
"178 -15 CURVE",
"211 -21 OFFCURVE",
"235 -24 OFFCURVE",
"250 -24 CURVE SMOOTH",
"297 -24 OFFCURVE",
"339 -7 OFFCURVE",
"378 27 CURVE SMOOTH",
"454 95 OFFCURVE",
"501 216 OFFCURVE",
"501 352 CURVE SMOOTH",
"501 447 OFFCURVE",
"487 528 OFFCURVE",
"458 594 CURVE",
"470 619 OFFCURVE",
"521 655 OFFCURVE",
"573 655 CURVE SMOOTH",
"641 655 OFFCURVE",
"680 603 OFFCURVE",
"680 514 CURVE SMOOTH",
"680 482 LINE",
"649 464 OFFCURVE",
"628 449 OFFCURVE",
"616 437 CURVE SMOOTH",
"588 409 OFFCURVE",
"579 387 OFFCURVE",
"579 334 CURVE SMOOTH",
"579 104 LINE SMOOTH",
"579 73 OFFCURVE",
"601 57 OFFCURVE",
"642 33 CURVE SMOOTH",
"660 22 LINE SMOOTH",
"678 11 OFFCURVE",
"688 -4 OFFCURVE",
"689 -24 CURVE",
"719 -24 LINE",
"854 110 LINE",
"829 140 LINE",
"802 119 OFFCURVE",
"785 106 OFFCURVE",
"780 103 CURVE",
"773 100 OFFCURVE",
"768 98 OFFCURVE",
"765 98 CURVE SMOOTH",
"764 98 LINE SMOOTH",
"759 98 OFFCURVE",
"719 131 OFFCURVE",
"716 138 CURVE",
"715 140 OFFCURVE",
"714 146 OFFCURVE",
"714 156 CURVE SMOOTH",
"714 364 LINE SMOOTH",
"714 440 OFFCURVE",
"748 469 OFFCURVE",
"841 484 CURVE",
"841 517 LINE",
"817 517 LINE",
"817 531 LINE SMOOTH",
"817 663 OFFCURVE",
"749 736 OFFCURVE",
"625 736 CURVE SMOOTH",
"544 736 OFFCURVE",
"481 702 OFFCURVE",
"436 635 CURVE",
"389 698 OFFCURVE",
"317 733 OFFCURVE",
"241 733 CURVE SMOOTH",
"201 733 OFFCURVE",
"165 723 OFFCURVE",
"132 704 CURVE SMOOTH",
"66 665 OFFCURVE",
"25 596 OFFCURVE",
"25 517 CURVE SMOOTH",
"25 416 OFFCURVE",
"89 336 OFFCURVE",
"218 300 CURVE",
"232 340 LINE",
"143 364 OFFCURVE",
"76 437 OFFCURVE",
"76 506 CURVE SMOOTH",
"76 582 OFFCURVE",
"129 640 OFFCURVE",
"204 640 CURVE SMOOTH",
"313 640 OFFCURVE",
"377 523 OFFCURVE",
"377 310 CURVE SMOOTH",
"377 203 OFFCURVE",
"364 127 OFFCURVE",
"339 84 CURVE SMOOTH",
"312 41 OFFCURVE",
"277 20 OFFCURVE",
"233 20 CURVE SMOOTH",
"193 20 OFFCURVE",
"165 41 OFFCURVE",
"165 77 CURVE SMOOTH",
"165 91 OFFCURVE",
"170 110 OFFCURVE",
"181 134 CURVE",
"156 153 LINE",
"143 138 OFFCURVE",
"114 127 OFFCURVE",
"93 127 CURVE SMOOTH",
"70 127 OFFCURVE",
"50 132 OFFCURVE",
"33 141 CURVE",
"13 114 LINE",
"35 88 OFFCURVE",
"46 66 OFFCURVE",
"46 49 CURVE SMOOTH",
"46 34 OFFCURVE",
"42 16 OFFCURVE",
"35 -4 CURVE",
"58 -24 LINE"
);
}
);
width = 875;
}
);
note = u1D579;
unicode = 1D579;
},
{
glyphname = u1D57A;
lastChange = "2017-03-13 20:15:23 +0000";
layers = (
{
layerId = "873A0A4B-B0F6-46C2-B3B5-B41B81B55E35";
paths = (
{
closed = 1;
nodes = (
"417 -23 OFFCURVE",
"471 -4 OFFCURVE",
"532 35 CURVE SMOOTH",
"655 111 OFFCURVE",
"723 234 OFFCURVE",
"723 385 CURVE SMOOTH",
"723 454 OFFCURVE",
"710 511 OFFCURVE",
"684 556 CURVE SMOOTH",
"635 639 OFFCURVE",
"533 672 OFFCURVE",
"389 688 CURVE SMOOTH",
"326 695 OFFCURVE",
"293 715 OFFCURVE",
"288 747 CURVE",
"257 748 LINE",
"257 712 OFFCURVE",
"248 688 OFFCURVE",
"230 677 CURVE SMOOTH",
"174 644 LINE SMOOTH",
"141 625 OFFCURVE",
"117 610 OFFCURVE",
"104 598 CURVE SMOOTH",
"81 578 OFFCURVE",
"70 554 OFFCURVE",
"70 518 CURVE SMOOTH",
"70 485 OFFCURVE",
"88 444 OFFCURVE",
"125 397 CURVE SMOOTH",
"161 350 OFFCURVE",
"179 318 OFFCURVE",
"179 301 CURVE SMOOTH",
"179 285 OFFCURVE",
"165 271 OFFCURVE",
"146 271 CURVE SMOOTH",
"134 271 OFFCURVE",
"116 275 OFFCURVE",
"93 282 CURVE",
"84 246 LINE",
"114 235 OFFCURVE",
"144 230 OFFCURVE",
"175 230 CURVE SMOOTH",
"199 230 OFFCURVE",
"222 235 OFFCURVE",
"243 246 CURVE SMOOTH",
"286 267 OFFCURVE",
"313 306 OFFCURVE",
"313 346 CURVE SMOOTH",
"313 379 OFFCURVE",
"294 418 OFFCURVE",
"255 464 CURVE SMOOTH",
"216 509 OFFCURVE",
"197 544 OFFCURVE",
"197 569 CURVE SMOOTH",
"197 580 LINE SMOOTH",
"197 599 OFFCURVE",
"206 614 OFFCURVE",
"223 623 CURVE SMOOTH",
"240 632 LINE",
"252 605 OFFCURVE",
"263 585 OFFCURVE",
"274 572 CURVE SMOOTH",
"294 547 OFFCURVE",
"324 536 OFFCURVE",
"396 525 CURVE SMOOTH",
"497 512 OFFCURVE",
"656 491 OFFCURVE",
"656 328 CURVE SMOOTH",
"656 279 OFFCURVE",
"650 239 OFFCURVE",
"638 208 CURVE SMOOTH",
"611 140 OFFCURVE",
"554 91 OFFCURVE",
"478 91 CURVE SMOOTH",
"441 91 OFFCURVE",
"377 117 OFFCURVE",
"285 168 CURVE SMOOTH",
"242 193 OFFCURVE",
"210 205 OFFCURVE",
"191 205 CURVE SMOOTH",
"176 205 OFFCURVE",
"159 199 OFFCURVE",
"141 187 CURVE",
"123 174 OFFCURVE",
"99 152 OFFCURVE",
"70 122 CURVE SMOOTH",
"16 66 LINE",
"44 38 LINE",
"48 41 OFFCURVE",
"54 47 OFFCURVE",
"63 54 CURVE SMOOTH",
"80 68 OFFCURVE",
"97 79 OFFCURVE",
"118 79 CURVE SMOOTH",
"131 79 OFFCURVE",
"153 70 OFFCURVE",
"182 52 CURVE SMOOTH",
"261 2 OFFCURVE",
"323 -23 OFFCURVE",
"368 -23 CURVE SMOOTH"
);
}
);
width = 769;
}
);
note = u1D57A;
unicode = 1D57A;
},
{
glyphname = u1D57B;
lastChange = "2017-03-13 20:15:23 +0000";
layers = (
{
layerId = "873A0A4B-B0F6-46C2-B3B5-B41B81B55E35";
paths = (
{
closed = 1;
nodes = (
"332 -126 OFFCURVE",
"356 -17 OFFCURVE",
"360 26 CURVE",
"436 4 LINE SMOOTH",
"456 -2 OFFCURVE",
"466 -11 OFFCURVE",
"466 -24 CURVE",
"505 -24 LINE",
"505 6 OFFCURVE",
"522 41 OFFCURVE",
"555 81 CURVE SMOOTH",
"626 166 OFFCURVE",
"685 276 OFFCURVE",
"685 336 CURVE SMOOTH",
"685 378 OFFCURVE",
"666 446 OFFCURVE",
"629 539 CURVE SMOOTH",
"592 633 OFFCURVE",
"573 683 OFFCURVE",
"573 689 CURVE SMOOTH",
"573 703 OFFCURVE",
"579 715 OFFCURVE",
"591 725 CURVE",
"570 752 LINE",
"511 724 OFFCURVE",
"412 647 OFFCURVE",
"356 587 CURVE",
"355 614 OFFCURVE",
"346 638 OFFCURVE",
"331 661 CURVE",
"299 705 OFFCURVE",
"243 732 OFFCURVE",
"182 732 CURVE SMOOTH",
"149 732 OFFCURVE",
"118 724 OFFCURVE",
"91 708 CURVE SMOOTH",
"35 676 OFFCURVE",
"0 618 OFFCURVE",
"0 550 CURVE SMOOTH",
"0 465 OFFCURVE",
"47 396 OFFCURVE",
"127 376 CURVE",
"139 416 LINE",
"77 434 OFFCURVE",
"46 475 OFFCURVE",
"46 539 CURVE SMOOTH",
"46 602 OFFCURVE",
"82 642 OFFCURVE",
"135 642 CURVE SMOOTH",
"197 642 OFFCURVE",
"228 599 OFFCURVE",
"228 512 CURVE SMOOTH",
"229 193 LINE",
"193 205 OFFCURVE",
"173 212 OFFCURVE",
"168 214 CURVE",
"165 217 OFFCURVE",
"163 220 OFFCURVE",
"163 223 CURVE SMOOTH",
"163 233 OFFCURVE",
"165 240 OFFCURVE",
"168 243 CURVE",
"130 255 LINE",
"61 69 LINE",
"98 54 LINE",
"108 71 OFFCURVE",
"116 82 OFFCURVE",
"122 87 CURVE",
"127 92 OFFCURVE",
"133 94 OFFCURVE",
"142 94 CURVE SMOOTH",
"153 94 OFFCURVE",
"215 78 OFFCURVE",
"230 70 CURVE",
"230 54 LINE SMOOTH",
"230 -3 OFFCURVE",
"257 -154 OFFCURVE",
"278 -210 CURVE",
"307 -210 LINE"
);
},
{
closed = 1;
nodes = (
"363 532 LINE",
"378 551 OFFCURVE",
"406 577 OFFCURVE",
"448 610 CURVE",
"448 594 OFFCURVE",
"457 565 OFFCURVE",
"475 523 CURVE SMOOTH",
"502 460 OFFCURVE",
"525 402 OFFCURVE",
"542 351 CURVE SMOOTH",
"556 305 OFFCURVE",
"563 271 OFFCURVE",
"563 248 CURVE SMOOTH",
"563 199 OFFCURVE",
"555 163 OFFCURVE",
"540 140 CURVE SMOOTH",
"524 117 OFFCURVE",
"514 106 OFFCURVE",
"510 106 CURVE",
"364 151 LINE"
);
}
);
width = 731;
}
);
note = u1D57B;
unicode = 1D57B;
},
{
glyphname = u1D57C;
lastChange = "2017-03-13 20:15:23 +0000";
layers = (
{
layerId = "873A0A4B-B0F6-46C2-B3B5-B41B81B55E35";
paths = (
{
closed = 1;
nodes = (
"417 -23 OFFCURVE",
"471 -4 OFFCURVE",
"532 35 CURVE SMOOTH",
"655 111 OFFCURVE",
"723 234 OFFCURVE",
"723 385 CURVE SMOOTH",
"723 454 OFFCURVE",
"710 511 OFFCURVE",
"684 556 CURVE SMOOTH",
"635 639 OFFCURVE",
"533 672 OFFCURVE",
"389 688 CURVE SMOOTH",
"326 695 OFFCURVE",
"293 715 OFFCURVE",
"288 747 CURVE",
"257 748 LINE",
"257 712 OFFCURVE",
"248 688 OFFCURVE",
"230 677 CURVE SMOOTH",
"174 644 LINE SMOOTH",
"141 625 OFFCURVE",
"117 610 OFFCURVE",
"104 598 CURVE SMOOTH",
"81 578 OFFCURVE",
"70 554 OFFCURVE",
"70 518 CURVE SMOOTH",
"70 485 OFFCURVE",
"88 444 OFFCURVE",
"125 397 CURVE SMOOTH",
"161 350 OFFCURVE",
"179 318 OFFCURVE",
"179 301 CURVE SMOOTH",
"179 285 OFFCURVE",
"165 271 OFFCURVE",
"146 271 CURVE SMOOTH",
"134 271 OFFCURVE",
"116 275 OFFCURVE",
"93 282 CURVE",
"84 246 LINE",
"114 235 OFFCURVE",
"144 230 OFFCURVE",
"175 230 CURVE SMOOTH",
"199 230 OFFCURVE",
"222 235 OFFCURVE",
"243 246 CURVE SMOOTH",
"286 267 OFFCURVE",
"313 306 OFFCURVE",
"313 346 CURVE SMOOTH",
"313 379 OFFCURVE",
"294 418 OFFCURVE",
"255 464 CURVE SMOOTH",
"216 509 OFFCURVE",
"197 544 OFFCURVE",
"197 569 CURVE SMOOTH",
"197 580 LINE SMOOTH",
"197 599 OFFCURVE",
"206 614 OFFCURVE",
"223 623 CURVE SMOOTH",
"240 632 LINE",
"252 605 OFFCURVE",
"263 585 OFFCURVE",
"274 572 CURVE SMOOTH",
"294 547 OFFCURVE",
"324 536 OFFCURVE",
"396 525 CURVE SMOOTH",
"497 512 OFFCURVE",
"656 491 OFFCURVE",
"656 328 CURVE SMOOTH",
"656 279 OFFCURVE",
"650 239 OFFCURVE",
"638 208 CURVE SMOOTH",
"611 140 OFFCURVE",
"554 91 OFFCURVE",
"478 91 CURVE SMOOTH",
"441 91 OFFCURVE",
"377 117 OFFCURVE",
"285 168 CURVE SMOOTH",
"242 193 OFFCURVE",
"210 205 OFFCURVE",
"191 205 CURVE SMOOTH",
"176 205 OFFCURVE",
"159 199 OFFCURVE",
"141 187 CURVE",
"123 174 OFFCURVE",
"99 152 OFFCURVE",
"70 122 CURVE SMOOTH",
"16 66 LINE",
"44 38 LINE",
"48 41 OFFCURVE",
"54 47 OFFCURVE",
"63 54 CURVE SMOOTH",
"80 68 OFFCURVE",
"97 79 OFFCURVE",
"118 79 CURVE SMOOTH",
"131 79 OFFCURVE",
"153 70 OFFCURVE",
"182 52 CURVE SMOOTH",
"261 2 OFFCURVE",
"323 -23 OFFCURVE",
"368 -23 CURVE SMOOTH"
);
},
{
closed = 1;
nodes = (
"769 -23 OFFCURVE",
"784 -13 OFFCURVE",
"801 7 CURVE SMOOTH",
"892 108 LINE",
"864 132 LINE",
"849 118 OFFCURVE",
"839 109 OFFCURVE",
"833 104 CURVE",
"826 99 OFFCURVE",
"820 96 OFFCURVE",
"813 96 CURVE",
"805 99 OFFCURVE",
"798 102 OFFCURVE",
"791 105 CURVE",
"752 129 OFFCURVE",
"725 141 OFFCURVE",
"710 141 CURVE SMOOTH",
"696 141 OFFCURVE",
"680 131 OFFCURVE",
"663 111 CURVE SMOOTH",
"572 10 LINE",
"600 -14 LINE",
"603 -11 OFFCURVE",
"608 -7 OFFCURVE",
"615 0 CURVE",
"628 12 OFFCURVE",
"640 22 OFFCURVE",
"651 22 CURVE",
"660 20 OFFCURVE",
"686 7 OFFCURVE",
"729 -16 CURVE",
"736 -21 OFFCURVE",
"744 -23 OFFCURVE",
"754 -23 CURVE SMOOTH"
);
}
);
width = 900;
}
);
note = u1D57C;
unicode = 1D57C;
},
{
glyphname = u1D57D;
lastChange = "2017-03-13 20:15:23 +0000";
layers = (
{
layerId = "873A0A4B-B0F6-46C2-B3B5-B41B81B55E35";
paths = (
{
closed = 1;
nodes = (
"75 -13 OFFCURVE",
"92 -7 OFFCURVE",
"107 -7 CURVE",
"138 -9 LINE",
"207 -18 OFFCURVE",
"244 -23 OFFCURVE",
"250 -23 CURVE SMOOTH",
"295 -23 OFFCURVE",
"337 -7 OFFCURVE",
"374 25 CURVE SMOOTH",
"449 88 OFFCURVE",
"497 203 OFFCURVE",
"504 334 CURVE",
"533 355 LINE SMOOTH",
"542 362 OFFCURVE",
"551 366 OFFCURVE",
"560 366 CURVE SMOOTH",
"568 366 OFFCURVE",
"574 361 OFFCURVE",
"579 350 CURVE",
"584 335 OFFCURVE",
"589 317 OFFCURVE",
"594 296 CURVE SMOOTH",
"616 195 LINE SMOOTH",
"633 102 OFFCURVE",
"659 39 OFFCURVE",
"694 8 CURVE SMOOTH",
"711 -7 OFFCURVE",
"719 -15 OFFCURVE",
"720 -17 CURVE",
"721 -18 OFFCURVE",
"721 -20 OFFCURVE",
"721 -23 CURVE",
"751 -23 LINE",
"753 -18 OFFCURVE",
"770 -4 OFFCURVE",
"803 20 CURVE SMOOTH",
"837 45 OFFCURVE",
"864 69 OFFCURVE",
"884 91 CURVE",
"857 120 LINE",
"838 101 OFFCURVE",
"824 91 OFFCURVE",
"816 91 CURVE SMOOTH",
"799 91 OFFCURVE",
"784 109 OFFCURVE",
"770 146 CURVE SMOOTH",
"754 185 OFFCURVE",
"740 239 OFFCURVE",
"729 310 CURVE SMOOTH",
"717 382 OFFCURVE",
"700 428 OFFCURVE",
"677 449 CURVE",
"718 482 LINE",
"757 516 OFFCURVE",
"788 541 OFFCURVE",
"811 556 CURVE",
"798 583 LINE",
"781 577 LINE",
"774 577 OFFCURVE",
"760 586 OFFCURVE",
"741 603 CURVE SMOOTH",
"702 637 OFFCURVE",
"663 683 OFFCURVE",
"663 702 CURVE SMOOTH",
"663 709 OFFCURVE",
"666 716 OFFCURVE",
"671 721 CURVE",
"651 744 LINE",
"638 733 OFFCURVE",
"611 717 OFFCURVE",
"569 694 CURVE SMOOTH",
"525 669 OFFCURVE",
"487 642 OFFCURVE",
"454 615 CURVE",
"407 702 OFFCURVE",
"326 747 OFFCURVE",
"241 747 CURVE SMOOTH",
"201 747 OFFCURVE",
"165 738 OFFCURVE",
"132 719 CURVE SMOOTH",
"66 681 OFFCURVE",
"25 611 OFFCURVE",
"25 531 CURVE SMOOTH",
"25 430 OFFCURVE",
"90 350 OFFCURVE",
"218 314 CURVE",
"232 354 LINE",
"143 378 OFFCURVE",
"76 449 OFFCURVE",
"76 520 CURVE SMOOTH",
"76 596 OFFCURVE",
"129 654 OFFCURVE",
"204 654 CURVE SMOOTH",
"312 654 OFFCURVE",
"377 522 OFFCURVE",
"377 310 CURVE SMOOTH",
"377 204 OFFCURVE",
"364 129 OFFCURVE",
"339 86 CURVE SMOOTH",
"314 43 OFFCURVE",
"278 21 OFFCURVE",
"233 21 CURVE SMOOTH",
"193 21 OFFCURVE",
"165 41 OFFCURVE",
"165 77 CURVE SMOOTH",
"165 91 OFFCURVE",
"170 110 OFFCURVE",
"181 134 CURVE",
"156 153 LINE",
"143 138 OFFCURVE",
"114 127 OFFCURVE",
"93 127 CURVE SMOOTH",
"70 127 OFFCURVE",
"50 132 OFFCURVE",
"33 141 CURVE",
"13 114 LINE",
"35 88 OFFCURVE",
"46 66 OFFCURVE",
"46 49 CURVE SMOOTH",
"46 34 OFFCURVE",
"42 16 OFFCURVE",
"35 -4 CURVE",
"58 -24 LINE"
);
},
{
closed = 1;
nodes = (
"502 463 OFFCURVE",
"490 527 OFFCURVE",
"471 577 CURVE",
"499 601 OFFCURVE",
"516 615 OFFCURVE",
"523 619 CURVE",
"530 624 OFFCURVE",
"539 626 OFFCURVE",
"548 626 CURVE SMOOTH",
"557 626 OFFCURVE",
"569 618 OFFCURVE",
"582 603 CURVE SMOOTH",
"666 506 LINE",
"634 477 OFFCURVE",
"595 447 OFFCURVE",
"550 417 CURVE SMOOTH",
"505 386 LINE"
);
}
);
width = 877;
}
);
note = u1D57D;
unicode = 1D57D;
},
{
glyphname = u1D57E;
lastChange = "2017-03-13 20:15:23 +0000";
layers = (
{
layerId = "873A0A4B-B0F6-46C2-B3B5-B41B81B55E35";
paths = (
{
closed = 1;
nodes = (
"502 -22 OFFCURVE",
"558 -9 OFFCURVE",
"609 17 CURVE SMOOTH",
"710 68 OFFCURVE",
"771 162 OFFCURVE",
"771 273 CURVE SMOOTH",
"771 316 OFFCURVE",
"760 356 OFFCURVE",
"738 393 CURVE SMOOTH",
"694 465 OFFCURVE",
"621 510 OFFCURVE",
"565 510 CURVE SMOOTH",
"536 510 OFFCURVE",
"497 495 OFFCURVE",
"449 465 CURVE SMOOTH",
"400 435 OFFCURVE",
"363 420 OFFCURVE",
"336 420 CURVE SMOOTH",
"285 420 OFFCURVE",
"251 447 OFFCURVE",
"251 488 CURVE SMOOTH",
"251 528 OFFCURVE",
"288 562 OFFCURVE",
"335 562 CURVE SMOOTH",
"371 562 OFFCURVE",
"401 542 OFFCURVE",
"425 501 CURVE",
"462 524 LINE",
"429 580 OFFCURVE",
"393 606 OFFCURVE",
"336 606 CURVE SMOOTH",
"313 606 OFFCURVE",
"292 601 OFFCURVE",
"272 590 CURVE SMOOTH",
"232 569 OFFCURVE",
"207 531 OFFCURVE",
"207 488 CURVE SMOOTH",
"207 465 OFFCURVE",
"211 443 OFFCURVE",
"220 423 CURVE SMOOTH",
"235 387 OFFCURVE",
"289 333 OFFCURVE",
"329 300 CURVE SMOOTH",
"342 289 OFFCURVE",
"354 283 OFFCURVE",
"365 283 CURVE SMOOTH",
"380 283 OFFCURVE",
"419 301 OFFCURVE",
"482 336 CURVE SMOOTH",
"543 371 OFFCURVE",
"588 389 OFFCURVE",
"619 389 CURVE SMOOTH",
"684 389 OFFCURVE",
"727 344 OFFCURVE",
"727 269 CURVE SMOOTH",
"727 237 OFFCURVE",
"716 207 OFFCURVE",
"694 180 CURVE SMOOTH",
"649 124 OFFCURVE",
"570 89 OFFCURVE",
"491 89 CURVE SMOOTH",
"407 89 OFFCURVE",
"316 122 OFFCURVE",
"243 189 CURVE SMOOTH",
"167 258 OFFCURVE",
"133 333 OFFCURVE",
"133 422 CURVE SMOOTH",
"133 468 OFFCURVE",
"142 509 OFFCURVE",
"160 544 CURVE SMOOTH",
"195 614 OFFCURVE",
"262 653 OFFCURVE",
"347 653 CURVE SMOOTH",
"404 653 OFFCURVE",
"439 632 OFFCURVE",
"522 577 CURVE SMOOTH",
"554 555 OFFCURVE",
"578 544 OFFCURVE",
"593 544 CURVE SMOOTH",
"608 544 OFFCURVE",
"633 551 OFFCURVE",
"666 565 CURVE SMOOTH",
"732 593 OFFCURVE",
"793 641 OFFCURVE",
"793 696 CURVE SMOOTH",
"793 720 OFFCURVE",
"778 747 OFFCURVE",
"753 747 CURVE SMOOTH",
"730 747 OFFCURVE",
"717 734 OFFCURVE",
"717 717 CURVE SMOOTH",
"717 708 OFFCURVE",
"721 701 OFFCURVE",
"730 695 CURVE",
"739 688 OFFCURVE",
"743 680 OFFCURVE",
"743 669 CURVE SMOOTH",
"743 648 OFFCURVE",
"723 636 OFFCURVE",
"703 636 CURVE SMOOTH",
"691 636 OFFCURVE",
"675 643 OFFCURVE",
"654 658 CURVE SMOOTH",
"641 667 OFFCURVE",
"619 681 OFFCURVE",
"590 700 CURVE SMOOTH",
"539 732 OFFCURVE",
"502 748 OFFCURVE",
"465 748 CURVE SMOOTH",
"398 748 OFFCURVE",
"331 730 OFFCURVE",
"262 695 CURVE SMOOTH",
"129 626 OFFCURVE",
"46 488 OFFCURVE",
"46 352 CURVE SMOOTH",
"46 277 OFFCURVE",
"62 212 OFFCURVE",
"95 155 CURVE SMOOTH",
"159 42 OFFCURVE",
"283 -22 OFFCURVE",
"440 -22 CURVE SMOOTH"
);
}
);
width = 841;
}
);
note = u1D57E;
unicode = 1D57E;
},
{
glyphname = u1D57F;
lastChange = "2017-03-13 20:15:23 +0000";
layers = (
{
layerId = "873A0A4B-B0F6-46C2-B3B5-B41B81B55E35";
paths = (
{
closed = 1;
nodes = (
"440 -23 OFFCURVE",
"464 -12 OFFCURVE",
"499 9 CURVE SMOOTH",
"535 32 OFFCURVE",
"576 67 OFFCURVE",
"622 113 CURVE",
"596 143 LINE",
"556 108 OFFCURVE",
"541 101 OFFCURVE",
"502 101 CURVE SMOOTH",
"462 101 OFFCURVE",
"419 125 OFFCURVE",
"331 180 CURVE",
"432 193 OFFCURVE",
"483 231 OFFCURVE",
"483 292 CURVE SMOOTH",
"483 327 OFFCURVE",
"465 355 OFFCURVE",
"405 395 CURVE SMOOTH",
"375 415 OFFCURVE",
"353 433 OFFCURVE",
"338 450 CURVE SMOOTH",
"324 466 OFFCURVE",
"317 480 OFFCURVE",
"317 493 CURVE SMOOTH",
"317 510 OFFCURVE",
"333 531 OFFCURVE",
"366 557 CURVE",
"397 539 LINE SMOOTH",
"430 520 OFFCURVE",
"455 507 OFFCURVE",
"473 498 CURVE SMOOTH",
"491 489 OFFCURVE",
"505 484 OFFCURVE",
"514 484 CURVE SMOOTH",
"520 484 OFFCURVE",
"527 486 OFFCURVE",
"535 489 CURVE",
"544 494 OFFCURVE",
"585 527 OFFCURVE",
"660 588 CURVE",
"640 618 LINE",
"624 606 OFFCURVE",
"606 600 OFFCURVE",
"587 600 CURVE SMOOTH",
"576 600 OFFCURVE",
"520 627 OFFCURVE",
"418 681 CURVE SMOOTH",
"391 696 LINE SMOOTH",
"331 730 OFFCURVE",
"286 747 OFFCURVE",
"255 747 CURVE SMOOTH",
"222 747 OFFCURVE",
"188 737 OFFCURVE",
"153 716 CURVE SMOOTH",
"74 672 OFFCURVE",
"40 629 OFFCURVE",
"40 557 CURVE SMOOTH",
"40 505 OFFCURVE",
"68 453 OFFCURVE",
"123 402 CURVE",
"153 432 LINE",
"109 472 OFFCURVE",
"84 505 OFFCURVE",
"84 556 CURVE SMOOTH",
"84 601 OFFCURVE",
"124 639 OFFCURVE",
"171 639 CURVE SMOOTH",
"201 639 OFFCURVE",
"253 619 OFFCURVE",
"328 578 CURVE",
"241 517 OFFCURVE",
"203 478 OFFCURVE",
"203 434 CURVE SMOOTH",
"203 390 OFFCURVE",
"228 366 OFFCURVE",
"304 307 CURVE SMOOTH",
"335 282 OFFCURVE",
"351 264 OFFCURVE",
"351 253 CURVE SMOOTH",
"351 246 OFFCURVE",
"347 239 OFFCURVE",
"338 230 CURVE",
"330 221 OFFCURVE",
"315 217 OFFCURVE",
"294 217 CURVE SMOOTH",
"272 217 OFFCURVE",
"250 224 OFFCURVE",
"228 238 CURVE SMOOTH",
"206 252 OFFCURVE",
"186 259 OFFCURVE",
"169 259 CURVE SMOOTH",
"147 259 OFFCURVE",
"126 250 OFFCURVE",
"105 231 CURVE SMOOTH",
"85 214 OFFCURVE",
"57 182 OFFCURVE",
"21 136 CURVE",
"50 109 LINE",
"75 134 OFFCURVE",
"85 138 OFFCURVE",
"106 138 CURVE SMOOTH",
"123 138 OFFCURVE",
"175 111 OFFCURVE",
"262 58 CURVE SMOOTH",
"347 4 OFFCURVE",
"402 -23 OFFCURVE",
"425 -23 CURVE SMOOTH"
);
}
);
width = 635;
}
);
note = u1D57F;
unicode = 1D57F;
},
{
glyphname = u1D580;
lastChange = "2017-03-13 20:15:23 +0000";
layers = (
{
layerId = "873A0A4B-B0F6-46C2-B3B5-B41B81B55E35";
paths = (
{
closed = 1;
nodes = (
"254 -15 OFFCURVE",
"262 -7 OFFCURVE",
"275 1 CURVE",
"282 4 OFFCURVE",
"286 7 OFFCURVE",
"288 8 CURVE",
"434 88 LINE",
"434 63 LINE SMOOTH",
"434 24 OFFCURVE",
"452 0 OFFCURVE",
"489 -10 CURVE",
"496 -13 OFFCURVE",
"500 -17 OFFCURVE",
"500 -22 CURVE",
"535 -22 LINE",
"557 6 OFFCURVE",
"598 43 OFFCURVE",
"658 90 CURVE",
"637 124 LINE",
"616 109 OFFCURVE",
"600 101 OFFCURVE",
"588 101 CURVE SMOOTH",
"577 101 OFFCURVE",
"572 117 OFFCURVE",
"572 149 CURVE SMOOTH",
"572 596 LINE SMOOTH",
"572 619 OFFCURVE",
"585 630 OFFCURVE",
"618 634 CURVE",
"618 665 LINE",
"578 670 OFFCURVE",
"531 709 OFFCURVE",
"522 748 CURVE",
"491 748 LINE",
"476 708 OFFCURVE",
"429 670 OFFCURVE",
"389 665 CURVE",
"389 634 LINE",
"419 630 OFFCURVE",
"434 617 OFFCURVE",
"434 596 CURVE SMOOTH",
"434 140 LINE",
"371 102 OFFCURVE",
"336 83 OFFCURVE",
"327 83 CURVE SMOOTH",
"320 83 OFFCURVE",
"313 85 OFFCURVE",
"306 90 CURVE",
"251 125 LINE",
"242 130 OFFCURVE",
"238 139 OFFCURVE",
"238 152 CURVE SMOOTH",
"238 647 LINE SMOOTH",
"238 677 OFFCURVE",
"222 699 OFFCURVE",
"190 714 CURVE SMOOTH",
"163 727 LINE SMOOTH",
"155 731 OFFCURVE",
"151 738 OFFCURVE",
"151 748 CURVE",
"120 748 LINE",
"115 726 OFFCURVE",
"81 690 OFFCURVE",
"18 640 CURVE",
"40 606 LINE",
"49 610 OFFCURVE",
"59 612 OFFCURVE",
"68 612 CURVE SMOOTH",
"89 612 OFFCURVE",
"100 597 OFFCURVE",
"100 568 CURVE SMOOTH",
"100 151 LINE SMOOTH",
"100 115 OFFCURVE",
"93 97 OFFCURVE",
"73 88 CURVE",
"73 57 LINE",
"101 57 OFFCURVE",
"120 53 OFFCURVE",
"152 36 CURVE SMOOTH",
"196 12 LINE SMOOTH",
"217 0 OFFCURVE",
"223 -9 OFFCURVE",
"223 -22 CURVE",
"254 -22 LINE"
);
}
);
width = 665;
}
);
note = u1D580;
unicode = 1D580;
},
{
glyphname = u1D581;
lastChange = "2017-03-13 20:15:23 +0000";
layers = (
{
layerId = "873A0A4B-B0F6-46C2-B3B5-B41B81B55E35";
paths = (
{
closed = 1;
nodes = (
"526 -21 OFFCURVE",
"576 -9 OFFCURVE",
"629 15 CURVE SMOOTH",
"737 63 OFFCURVE",
"817 148 OFFCURVE",
"817 216 CURVE SMOOTH",
"817 276 OFFCURVE",
"792 309 OFFCURVE",
"721 368 CURVE SMOOTH",
"688 395 OFFCURVE",
"672 419 OFFCURVE",
"672 441 CURVE SMOOTH",
"672 470 OFFCURVE",
"724 492 OFFCURVE",
"829 506 CURVE",
"825 544 LINE",
"808 544 OFFCURVE",
"799 549 OFFCURVE",
"797 560 CURVE",
"794 584 LINE SMOOTH",
"781 693 OFFCURVE",
"721 747 OFFCURVE",
"600 747 CURVE SMOOTH",
"523 747 OFFCURVE",
"465 725 OFFCURVE",
"428 681 CURVE",
"388 725 OFFCURVE",
"333 747 OFFCURVE",
"262 747 CURVE SMOOTH",
"218 747 OFFCURVE",
"179 737 OFFCURVE",
"145 716 CURVE SMOOTH",
"77 675 OFFCURVE",
"37 599 OFFCURVE",
"37 506 CURVE SMOOTH",
"37 393 OFFCURVE",
"129 314 OFFCURVE",
"269 295 CURVE",
"277 336 LINE",
"152 351 OFFCURVE",
"81 415 OFFCURVE",
"81 508 CURVE SMOOTH",
"81 581 OFFCURVE",
"136 633 OFFCURVE",
"215 633 CURVE SMOOTH",
"246 633 OFFCURVE",
"274 624 OFFCURVE",
"299 607 CURVE SMOOTH",
"347 572 OFFCURVE",
"375 506 OFFCURVE",
"375 425 CURVE SMOOTH",
"375 334 OFFCURVE",
"357 271 OFFCURVE",
"321 236 CURVE",
"316 239 OFFCURVE",
"309 240 OFFCURVE",
"301 240 CURVE SMOOTH",
"290 240 OFFCURVE",
"276 237 OFFCURVE",
"261 231 CURVE SMOOTH",
"249 226 OFFCURVE",
"195 194 OFFCURVE",
"99 134 CURVE",
"114 97 LINE",
"158 119 OFFCURVE",
"190 130 OFFCURVE",
"209 130 CURVE SMOOTH",
"232 130 OFFCURVE",
"265 113 OFFCURVE",
"310 78 CURVE SMOOTH",
"353 43 OFFCURVE",
"388 17 OFFCURVE",
"416 2 CURVE SMOOTH",
"443 -13 OFFCURVE",
"463 -21 OFFCURVE",
"478 -21 CURVE SMOOTH"
);
},
{
closed = 1;
nodes = (
"574 59 OFFCURVE",
"513 95 OFFCURVE",
"424 166 CURVE SMOOTH",
"361 214 LINE",
"442 291 OFFCURVE",
"492 393 OFFCURVE",
"492 490 CURVE SMOOTH",
"492 530 OFFCURVE",
"479 580 OFFCURVE",
"454 640 CURVE",
"471 675 OFFCURVE",
"515 697 OFFCURVE",
"558 697 CURVE SMOOTH",
"580 697 OFFCURVE",
"598 691 OFFCURVE",
"613 680 CURVE",
"638 660 OFFCURVE",
"650 609 OFFCURVE",
"653 560 CURVE SMOOTH",
"654 539 OFFCURVE",
"659 526 OFFCURVE",
"668 519 CURVE",
"633 508 OFFCURVE",
"606 498 OFFCURVE",
"588 489 CURVE SMOOTH",
"552 470 OFFCURVE",
"541 448 OFFCURVE",
"541 407 CURVE SMOOTH",
"541 388 OFFCURVE",
"546 370 OFFCURVE",
"556 353 CURVE SMOOTH",
"566 336 OFFCURVE",
"587 312 OFFCURVE",
"620 279 CURVE SMOOTH",
"684 214 OFFCURVE",
"698 186 OFFCURVE",
"698 149 CURVE SMOOTH",
"698 105 OFFCURVE",
"656 59 OFFCURVE",
"608 59 CURVE SMOOTH"
);
}
);
width = 868;
}
);
note = u1D581;
unicode = 1D581;
},
{
glyphname = u1D582;
lastChange = "2017-03-13 20:15:23 +0000";
layers = (
{
layerId = "873A0A4B-B0F6-46C2-B3B5-B41B81B55E35";
paths = (
{
closed = 1;
nodes = (
"449 -23 OFFCURVE",
"510 9 OFFCURVE",
"574 62 CURVE",
"635 29 OFFCURVE",
"749 -23 OFFCURVE",
"765 -23 CURVE SMOOTH",
"802 -23 OFFCURVE",
"845 -8 OFFCURVE",
"896 21 CURVE SMOOTH",
"996 80 OFFCURVE",
"1064 159 OFFCURVE",
"1064 212 CURVE SMOOTH",
"1064 264 OFFCURVE",
"1042 307 OFFCURVE",
"997 342 CURVE SMOOTH",
"952 376 OFFCURVE",
"929 404 OFFCURVE",
"929 427 CURVE SMOOTH",
"929 471 OFFCURVE",
"971 500 OFFCURVE",
"1054 514 CURVE",
"1054 544 LINE",
"1036 544 OFFCURVE",
"1026 548 OFFCURVE",
"1024 556 CURVE",
"1016 602 LINE SMOOTH",
"997 706 OFFCURVE",
"939 747 OFFCURVE",
"830 747 CURVE SMOOTH",
"747 747 OFFCURVE",
"682 719 OFFCURVE",
"634 662 CURVE",
"620 723 OFFCURVE",
"583 754 OFFCURVE",
"524 754 CURVE SMOOTH",
"477 754 OFFCURVE",
"442 730 OFFCURVE",
"420 682 CURVE",
"381 726 OFFCURVE",
"322 747 OFFCURVE",
"263 747 CURVE SMOOTH",
"219 747 OFFCURVE",
"180 737 OFFCURVE",
"146 716 CURVE SMOOTH",
"78 675 OFFCURVE",
"38 599 OFFCURVE",
"38 506 CURVE SMOOTH",
"38 387 OFFCURVE",
"130 302 OFFCURVE",
"270 285 CURVE",
"278 330 LINE",
"154 343 OFFCURVE",
"82 412 OFFCURVE",
"82 508 CURVE SMOOTH",
"82 581 OFFCURVE",
"137 633 OFFCURVE",
"216 633 CURVE SMOOTH",
"247 633 OFFCURVE",
"275 624 OFFCURVE",
"300 607 CURVE SMOOTH",
"348 572 OFFCURVE",
"376 506 OFFCURVE",
"376 425 CURVE SMOOTH",
"376 328 OFFCURVE",
"351 237 OFFCURVE",
"314 200 CURVE",
"293 204 LINE",
"275 204 OFFCURVE",
"243 190 OFFCURVE",
"198 162 CURVE SMOOTH",
"125 115 LINE",
"143 79 LINE",
"171 92 OFFCURVE",
"191 99 OFFCURVE",
"202 99 CURVE SMOOTH",
"217 99 OFFCURVE",
"234 93 OFFCURVE",
"253 81 CURVE",
"272 68 OFFCURVE",
"298 50 OFFCURVE",
"331 25 CURVE SMOOTH",
"356 6 LINE",
"383 -13 OFFCURVE",
"404 -23 OFFCURVE",
"420 -23 CURVE SMOOTH"
);
},
{
closed = 1;
nodes = (
"496 84 OFFCURVE",
"456 106 OFFCURVE",
"397 149 CURVE",
"354 178 LINE",
"431 250 OFFCURVE",
"493 390 OFFCURVE",
"493 490 CURVE SMOOTH",
"493 547 OFFCURVE",
"481 589 OFFCURVE",
"452 646 CURVE",
"465 690 OFFCURVE",
"490 712 OFFCURVE",
"526 712 CURVE SMOOTH",
"566 712 OFFCURVE",
"595 675 OFFCURVE",
"599 624 CURVE",
"564 583 OFFCURVE",
"546 543 OFFCURVE",
"546 504 CURVE SMOOTH",
"546 479 OFFCURVE",
"554 452 OFFCURVE",
"570 425 CURVE",
"571 423 OFFCURVE",
"573 421 OFFCURVE",
"575 418 CURVE",
"576 415 OFFCURVE",
"578 411 OFFCURVE",
"581 408 CURVE",
"624 337 OFFCURVE",
"644 302 OFFCURVE",
"644 258 CURVE SMOOTH",
"644 237 OFFCURVE",
"636 214 OFFCURVE",
"620 188 CURVE SMOOTH",
"589 136 OFFCURVE",
"534 84 OFFCURVE",
"515 84 CURVE SMOOTH"
);
},
{
closed = 1;
nodes = (
"834 84 OFFCURVE",
"769 110 OFFCURVE",
"680 163 CURVE",
"731 214 OFFCURVE",
"754 271 OFFCURVE",
"754 312 CURVE SMOOTH",
"754 359 OFFCURVE",
"734 400 OFFCURVE",
"687 487 CURVE SMOOTH",
"669 519 OFFCURVE",
"660 546 OFFCURVE",
"660 568 CURVE SMOOTH",
"660 593 OFFCURVE",
"666 616 OFFCURVE",
"677 636 CURVE SMOOTH",
"700 675 OFFCURVE",
"739 696 OFFCURVE",
"779 696 CURVE SMOOTH",
"834 696 OFFCURVE",
"858 671 OFFCURVE",
"870 598 CURVE SMOOTH",
"875 561 OFFCURVE",
"884 537 OFFCURVE",
"898 526 CURVE",
"910 515 LINE",
"833 488 OFFCURVE",
"798 455 OFFCURVE",
"798 407 CURVE SMOOTH",
"798 348 OFFCURVE",
"826 314 OFFCURVE",
"913 242 CURVE SMOOTH",
"951 209 OFFCURVE",
"970 182 OFFCURVE",
"970 159 CURVE SMOOTH",
"970 115 OFFCURVE",
"934 84 OFFCURVE",
"877 84 CURVE SMOOTH"
);
}
);
width = 1107;
}
);
note = u1D582;
unicode = 1D582;
},
{
glyphname = u1D583;
lastChange = "2017-03-13 20:15:23 +0000";
layers = (
{
layerId = "873A0A4B-B0F6-46C2-B3B5-B41B81B55E35";
paths = (
{
closed = 1;
nodes = (
"224 -1 LINE",
"267 40 OFFCURVE",
"294 91 OFFCURVE",
"307 154 CURVE",
"312 83 OFFCURVE",
"347 21 OFFCURVE",
"386 6 CURVE",
"432 -7 LINE",
"445 -10 OFFCURVE",
"453 -16 OFFCURVE",
"456 -23 CURVE",
"494 -23 LINE",
"497 -3 OFFCURVE",
"502 2 OFFCURVE",
"527 26 CURVE SMOOTH",
"635 130 LINE",
"608 158 LINE",
"557 107 OFFCURVE",
"523 88 OFFCURVE",
"482 88 CURVE SMOOTH",
"439 88 OFFCURVE",
"407 132 OFFCURVE",
"407 213 CURVE",
"406 336 LINE",
"445 336 OFFCURVE",
"475 333 OFFCURVE",
"495 328 CURVE",
"516 379 OFFCURVE",
"540 429 OFFCURVE",
"567 476 CURVE",
"529 476 LINE",
"512 435 OFFCURVE",
"496 419 OFFCURVE",
"472 419 CURVE SMOOTH",
"406 419 LINE",
"406 565 LINE SMOOTH",
"406 606 OFFCURVE",
"417 624 OFFCURVE",
"450 649 CURVE",
"478 635 LINE",
"521 611 OFFCURVE",
"549 599 OFFCURVE",
"562 599 CURVE SMOOTH",
"575 599 OFFCURVE",
"602 624 OFFCURVE",
"641 673 CURVE SMOOTH",
"662 699 LINE",
"634 726 LINE",
"617 712 OFFCURVE",
"606 705 OFFCURVE",
"599 705 CURVE SMOOTH",
"583 705 OFFCURVE",
"533 732 OFFCURVE",
"522 749 CURVE",
"482 749 LINE",
"477 736 OFFCURVE",
"458 716 OFFCURVE",
"424 688 CURVE SMOOTH",
"391 659 OFFCURVE",
"372 635 OFFCURVE",
"367 616 CURVE",
"352 689 OFFCURVE",
"278 747 OFFCURVE",
"198 747 CURVE SMOOTH",
"170 747 OFFCURVE",
"151 741 OFFCURVE",
"142 730 CURVE SMOOTH",
"37 606 LINE",
"66 581 LINE",
"106 625 OFFCURVE",
"144 647 OFFCURVE",
"179 647 CURVE SMOOTH",
"238 647 OFFCURVE",
"267 595 OFFCURVE",
"267 491 CURVE SMOOTH",
"267 419 LINE",
"220 419 LINE SMOOTH",
"187 419 OFFCURVE",
"175 421 OFFCURVE",
"158 432 CURVE",
"149 402 OFFCURVE",
"135 364 OFFCURVE",
"116 317 CURVE SMOOTH",
"98 273 LINE",
"136 273 LINE",
"153 322 OFFCURVE",
"166 336 OFFCURVE",
"194 336 CURVE SMOOTH",
"267 336 LINE",
"267 256 LINE SMOOTH",
"267 197 OFFCURVE",
"263 155 OFFCURVE",
"255 130 CURVE SMOOTH",
"247 105 OFFCURVE",
"237 92 OFFCURVE",
"225 92 CURVE SMOOTH",
"200 92 OFFCURVE",
"145 121 OFFCURVE",
"136 144 CURVE",
"99 144 LINE",
"8 17 LINE",
"37 -9 LINE",
"56 9 OFFCURVE",
"66 19 OFFCURVE",
"69 20 CURVE",
"76 23 OFFCURVE",
"82 25 OFFCURVE",
"88 25 CURVE SMOOTH",
"105 25 OFFCURVE",
"170 -10 OFFCURVE",
"174 -23 CURVE",
"206 -23 LINE"
);
}
);
width = 657;
}
);
note = u1D583;
unicode = 1D583;
},
{
glyphname = u1D584;
lastChange = "2017-03-13 20:15:23 +0000";
layers = (
{
layerId = "873A0A4B-B0F6-46C2-B3B5-B41B81B55E35";
paths = (
{
closed = 1;
nodes = (
"382 -207 OFFCURVE",
"450 -175 OFFCURVE",
"519 -112 CURVE SMOOTH",
"655 13 OFFCURVE",
"743 188 OFFCURVE",
"743 331 CURVE SMOOTH",
"743 364 OFFCURVE",
"737 402 OFFCURVE",
"725 444 CURVE SMOOTH",
"701 528 OFFCURVE",
"664 608 OFFCURVE",
"637 647 CURVE",
"620 674 OFFCURVE",
"611 692 OFFCURVE",
"611 701 CURVE SMOOTH",
"611 707 OFFCURVE",
"615 716 OFFCURVE",
"623 728 CURVE",
"594 755 LINE",
"417 611 LINE",
"378 694 OFFCURVE",
"305 738 OFFCURVE",
"225 738 CURVE SMOOTH",
"184 738 OFFCURVE",
"146 728 OFFCURVE",
"113 707 CURVE SMOOTH",
"46 666 OFFCURVE",
"7 592 OFFCURVE",
"7 519 CURVE SMOOTH",
"7 406 OFFCURVE",
"90 325 OFFCURVE",
"225 312 CURVE",
"235 353 LINE",
"203 354 OFFCURVE",
"173 362 OFFCURVE",
"145 377 CURVE SMOOTH",
"88 407 OFFCURVE",
"51 458 OFFCURVE",
"51 511 CURVE SMOOTH",
"51 579 OFFCURVE",
"99 631 OFFCURVE",
"167 631 CURVE SMOOTH",
"195 631 OFFCURVE",
"221 621 OFFCURVE",
"245 600 CURVE SMOOTH",
"292 558 OFFCURVE",
"320 480 OFFCURVE",
"320 391 CURVE SMOOTH",
"320 260 OFFCURVE",
"260 187 OFFCURVE",
"105 143 CURVE",
"119 104 LINE",
"168 118 LINE",
"190 124 LINE",
"195 124 OFFCURVE",
"207 116 OFFCURVE",
"226 101 CURVE SMOOTH",
"263 70 OFFCURVE",
"302 28 OFFCURVE",
"302 16 CURVE SMOOTH",
"302 11 OFFCURVE",
"297 4 OFFCURVE",
"286 -7 CURVE",
"311 -26 LINE",
"374 19 OFFCURVE",
"439 60 OFFCURVE",
"507 99 CURVE",
"486 129 LINE",
"458 115 OFFCURVE",
"439 108 OFFCURVE",
"429 108 CURVE SMOOTH",
"410 108 OFFCURVE",
"388 121 OFFCURVE",
"365 147 CURVE",
"306 198 LINE",
"395 254 OFFCURVE",
"452 353 OFFCURVE",
"452 453 CURVE SMOOTH",
"452 498 OFFCURVE",
"447 537 OFFCURVE",
"436 571 CURVE",
"487 609 LINE",
"576 461 OFFCURVE",
"600 376 OFFCURVE",
"600 279 CURVE SMOOTH",
"600 208 OFFCURVE",
"589 139 OFFCURVE",
"566 72 CURVE SMOOTH",
"520 -62 OFFCURVE",
"436 -155 OFFCURVE",
"348 -155 CURVE SMOOTH",
"310 -155 OFFCURVE",
"291 -149 OFFCURVE",
"291 -137 CURVE SMOOTH",
"291 -130 OFFCURVE",
"292 -125 OFFCURVE",
"295 -122 CURVE",
"298 -117 OFFCURVE",
"300 -109 OFFCURVE",
"300 -98 CURVE SMOOTH",
"300 -75 OFFCURVE",
"279 -50 OFFCURVE",
"240 -50 CURVE SMOOTH",
"205 -50 OFFCURVE",
"179 -76 OFFCURVE",
"179 -111 CURVE SMOOTH",
"179 -174 OFFCURVE",
"233 -207 OFFCURVE",
"314 -207 CURVE SMOOTH"
);
}
);
width = 792;
}
);
note = u1D584;
unicode = 1D584;
},
{
glyphname = u1D585;
lastChange = "2017-03-13 20:15:23 +0000";
layers = (
{
layerId = "873A0A4B-B0F6-46C2-B3B5-B41B81B55E35";
paths = (
{
closed = 1;
nodes = (
"74 -155 OFFCURVE",
"64 -137 OFFCURVE",
"64 -117 CURVE SMOOTH",
"64 -93 OFFCURVE",
"82 -72 OFFCURVE",
"109 -72 CURVE SMOOTH",
"124 -72 OFFCURVE",
"138 -78 OFFCURVE",
"151 -90 CURVE SMOOTH",
"164 -102 OFFCURVE",
"180 -123 OFFCURVE",
"200 -152 CURVE",
"230 -152 LINE",
"232 -139 OFFCURVE",
"251 -130 OFFCURVE",
"287 -126 CURVE",
"312 -122 LINE",
"453 -91 OFFCURVE",
"541 8 OFFCURVE",
"541 133 CURVE SMOOTH",
"541 245 OFFCURVE",
"462 335 OFFCURVE",
"345 354 CURVE",
"461 378 OFFCURVE",
"530 453 OFFCURVE",
"530 548 CURVE SMOOTH",
"530 585 OFFCURVE",
"520 619 OFFCURVE",
"499 650 CURVE SMOOTH",
"458 711 OFFCURVE",
"381 749 OFFCURVE",
"293 749 CURVE SMOOTH",
"141 749 OFFCURVE",
"51 671 OFFCURVE",
"36 539 CURVE",
"80 539 LINE",
"83 566 OFFCURVE",
"91 590 OFFCURVE",
"106 613 CURVE SMOOTH",
"134 658 OFFCURVE",
"181 687 OFFCURVE",
"232 687 CURVE SMOOTH",
"317 687 OFFCURVE",
"376 621 OFFCURVE",
"376 525 CURVE SMOOTH",
"376 498 OFFCURVE",
"370 473 OFFCURVE",
"358 450 CURVE SMOOTH",
"333 405 OFFCURVE",
"286 376 OFFCURVE",
"233 376 CURVE SMOOTH",
"194 376 OFFCURVE",
"149 393 OFFCURVE",
"116 428 CURVE",
"83 399 LINE",
"102 371 OFFCURVE",
"145 345 OFFCURVE",
"192 340 CURVE",
"117 331 OFFCURVE",
"73 298 OFFCURVE",
"61 243 CURVE",
"91 219 LINE",
"124 238 LINE",
"120 246 OFFCURVE",
"118 253 OFFCURVE",
"118 259 CURVE SMOOTH",
"118 282 OFFCURVE",
"143 297 OFFCURVE",
"186 297 CURVE SMOOTH",
"227 297 OFFCURVE",
"264 287 OFFCURVE",
"297 267 CURVE SMOOTH",
"364 226 OFFCURVE",
"404 151 OFFCURVE",
"404 66 CURVE SMOOTH",
"404 -17 OFFCURVE",
"370 -71 OFFCURVE",
"318 -71 CURVE SMOOTH",
"307 -71 OFFCURVE",
"293 -65 OFFCURVE",
"276 -54 CURVE SMOOTH",
"243 -31 OFFCURVE",
"213 3 OFFCURVE",
"210 26 CURVE",
"180 26 LINE",
"180 11 OFFCURVE",
"174 6 OFFCURVE",
"149 -2 CURVE",
"123 -12 LINE",
"54 -35 OFFCURVE",
"20 -69 OFFCURVE",
"20 -116 CURVE SMOOTH",
"20 -150 OFFCURVE",
"35 -179 OFFCURVE",
"66 -204 CURVE",
"94 -172 LINE"
);
}
);
width = 597;
}
);
note = u1D585;
unicode = 1D585;
},
{
glyphname = u1D586;
lastChange = "2017-03-13 20:15:23 +0000";
layers = (
{
layerId = "873A0A4B-B0F6-46C2-B3B5-B41B81B55E35";
paths = (
{
closed = 1;
nodes = (
"269 102 LINE",
"269 86 LINE SMOOTH",
"269 54 OFFCURVE",
"294 27 OFFCURVE",
"344 6 CURVE",
"334 -5 LINE",
"358 -23 LINE",
"468 103 LINE",
"446 124 LINE",
"430 106 OFFCURVE",
"417 97 OFFCURVE",
"406 97 CURVE SMOOTH",
"393 97 OFFCURVE",
"386 112 OFFCURVE",
"386 141 CURVE SMOOTH",
"386 350 LINE SMOOTH",
"386 385 OFFCURVE",
"392 396 OFFCURVE",
"416 403 CURVE",
"416 433 LINE",
"374 439 OFFCURVE",
"322 457 OFFCURVE",
"259 488 CURVE",
"259 498 LINE",
"229 498 LINE",
"152 432 LINE SMOOTH",
"64 360 OFFCURVE",
"23 292 OFFCURVE",
"23 216 CURVE SMOOTH",
"23 149 OFFCURVE",
"44 88 OFFCURVE",
"86 32 CURVE",
"95 19 LINE",
"97 11 LINE",
"90 4 LINE",
"84 0 LINE",
"104 -23 LINE"
);
},
{
closed = 1;
nodes = (
"172 94 OFFCURVE",
"138 187 OFFCURVE",
"138 263 CURVE SMOOTH",
"138 343 OFFCURVE",
"147 381 OFFCURVE",
"182 414 CURVE",
"182 413 OFFCURVE",
"194 406 OFFCURVE",
"219 394 CURVE SMOOTH",
"250 379 LINE SMOOTH",
"261 374 OFFCURVE",
"268 370 OFFCURVE",
"269 369 CURVE",
"269 146 LINE",
"226 111 OFFCURVE",
"201 94 OFFCURVE",
"196 94 CURVE SMOOTH"
);
}
);
width = 470;
}
);
note = u1D586;
unicode = 1D586;
},
{
glyphname = u1D587;
lastChange = "2017-03-13 20:15:23 +0000";
layers = (
{
layerId = "873A0A4B-B0F6-46C2-B3B5-B41B81B55E35";
paths = (
{
closed = 1;
nodes = (
"320 70 LINE SMOOTH",
"405 155 OFFCURVE",
"436 205 OFFCURVE",
"436 254 CURVE SMOOTH",
"436 303 OFFCURVE",
"411 348 OFFCURVE",
"358 429 CURVE",
"334 472 LINE",
"346 480 LINE",
"330 509 LINE",
"184 430 LINE",
"184 582 LINE SMOOTH",
"184 662 OFFCURVE",
"206 695 OFFCURVE",
"273 699 CURVE",
"273 729 LINE",
"196 729 OFFCURVE",
"141 683 OFFCURVE",
"117 604 CURVE",
"107 648 OFFCURVE",
"92 678 OFFCURVE",
"72 694 CURVE",
"46 674 LINE",
"60 651 OFFCURVE",
"67 625 OFFCURVE",
"67 596 CURVE SMOOTH",
"67 147 LINE SMOOTH",
"67 124 OFFCURVE",
"66 108 OFFCURVE",
"63 97 CURVE",
"60 89 OFFCURVE",
"54 83 OFFCURVE",
"44 78 CURVE",
"44 48 LINE",
"77 44 OFFCURVE",
"137 22 OFFCURVE",
"176 2 CURVE",
"195 -9 OFFCURVE",
"205 -17 OFFCURVE",
"205 -23 CURVE",
"233 -23 LINE"
);
},
{
closed = 1;
nodes = (
"259 78 OFFCURVE",
"229 89 OFFCURVE",
"184 112 CURVE",
"184 390 LINE",
"234 418 LINE",
"246 396 LINE SMOOTH",
"294 308 OFFCURVE",
"324 248 OFFCURVE",
"324 207 CURVE SMOOTH",
"324 164 OFFCURVE",
"313 121 OFFCURVE",
"298 97 CURVE SMOOTH",
"290 84 OFFCURVE",
"282 78 OFFCURVE",
"274 78 CURVE SMOOTH"
);
}
);
width = 459;
}
);
note = u1D587;
unicode = 1D587;
},
{
glyphname = u1D588;
lastChange = "2017-03-13 20:15:23 +0000";
layers = (
{
layerId = "873A0A4B-B0F6-46C2-B3B5-B41B81B55E35";
paths = (
{
closed = 1;
nodes = (
"352 121 LINE",
"333 144 LINE",
"300 115 OFFCURVE",
"274 100 OFFCURVE",
"255 100 CURVE SMOOTH",
"246 100 OFFCURVE",
"231 107 OFFCURVE",
"210 120 CURVE SMOOTH",
"183 136 OFFCURVE",
"174 157 OFFCURVE",
"175 183 CURVE",
"175 196 OFFCURVE",
"175 204 OFFCURVE",
"175 209 CURVE SMOOTH",
"175 388 LINE SMOOTH",
"175 413 OFFCURVE",
"179 429 OFFCURVE",
"186 436 CURVE",
"237 397 OFFCURVE",
"264 377 OFFCURVE",
"268 375 CURVE",
"271 373 OFFCURVE",
"274 372 OFFCURVE",
"277 372 CURVE SMOOTH",
"284 372 OFFCURVE",
"295 380 OFFCURVE",
"311 396 CURVE SMOOTH",
"366 453 LINE",
"346 475 LINE",
"335 466 OFFCURVE",
"329 462 OFFCURVE",
"326 462 CURVE SMOOTH",
"321 462 OFFCURVE",
"308 470 OFFCURVE",
"289 485 CURVE SMOOTH",
"269 501 OFFCURVE",
"254 509 OFFCURVE",
"243 509 CURVE SMOOTH",
"234 509 OFFCURVE",
"225 506 OFFCURVE",
"215 499 CURVE SMOOTH",
"90 405 LINE SMOOTH",
"62 384 OFFCURVE",
"58 372 OFFCURVE",
"58 333 CURVE SMOOTH",
"58 157 LINE SMOOTH",
"58 108 OFFCURVE",
"90 65 OFFCURVE",
"135 37 CURVE SMOOTH",
"157 23 OFFCURVE",
"170 14 OFFCURVE",
"175 11 CURVE",
"161 -5 LINE",
"185 -23 LINE"
);
}
);
width = 383;
}
);
note = u1D588;
unicode = 1D588;
},
{
glyphname = u1D589;
lastChange = "2017-03-13 20:15:23 +0000";
layers = (
{
layerId = "873A0A4B-B0F6-46C2-B3B5-B41B81B55E35";
paths = (
{
closed = 1;
nodes = (
"307 42 OFFCURVE",
"347 89 OFFCURVE",
"368 116 CURVE SMOOTH",
"420 181 OFFCURVE",
"454 254 OFFCURVE",
"454 319 CURVE SMOOTH",
"454 398 OFFCURVE",
"415 456 OFFCURVE",
"296 528 CURVE SMOOTH",
"231 567 OFFCURVE",
"189 593 OFFCURVE",
"172 606 CURVE SMOOTH",
"152 621 OFFCURVE",
"142 638 OFFCURVE",
"142 656 CURVE SMOOTH",
"142 681 OFFCURVE",
"166 699 OFFCURVE",
"209 699 CURVE",
"209 729 LINE",
"101 729 OFFCURVE",
"31 684 OFFCURVE",
"31 620 CURVE SMOOTH",
"31 597 OFFCURVE",
"41 575 OFFCURVE",
"60 554 CURVE SMOOTH",
"80 532 OFFCURVE",
"120 505 OFFCURVE",
"179 472 CURVE",
"55 400 LINE",
"58 382 OFFCURVE",
"60 355 OFFCURVE",
"60 318 CURVE SMOOTH",
"60 159 LINE SMOOTH",
"60 134 OFFCURVE",
"59 117 OFFCURVE",
"56 109 CURVE",
"51 99 OFFCURVE",
"45 93 OFFCURVE",
"37 90 CURVE",
"37 60 LINE",
"110 40 OFFCURVE",
"205 -4 OFFCURVE",
"216 -23 CURVE",
"246 -23 LINE"
);
},
{
closed = 1;
nodes = (
"266 72 OFFCURVE",
"257 77 OFFCURVE",
"244 86 CURVE SMOOTH",
"228 97 OFFCURVE",
"206 110 OFFCURVE",
"177 124 CURVE",
"177 425 LINE",
"219 448 LINE",
"253 429 OFFCURVE",
"279 411 OFFCURVE",
"297 396 CURVE SMOOTH",
"333 364 OFFCURVE",
"347 328 OFFCURVE",
"347 271 CURVE SMOOTH",
"347 220 OFFCURVE",
"338 174 OFFCURVE",
"320 133 CURVE SMOOTH",
"302 92 OFFCURVE",
"285 72 OFFCURVE",
"269 72 CURVE SMOOTH"
);
}
);
width = 477;
}
);
note = u1D589;
unicode = 1D589;
},
{
glyphname = u1D58A;
lastChange = "2017-03-13 20:15:23 +0000";
layers = (
{
layerId = "873A0A4B-B0F6-46C2-B3B5-B41B81B55E35";
paths = (
{
closed = 1;
nodes = (
"381 124 LINE",
"361 146 LINE",
"325 114 OFFCURVE",
"306 105 OFFCURVE",
"270 105 CURVE SMOOTH",
"256 105 OFFCURVE",
"242 109 OFFCURVE",
"227 116 CURVE SMOOTH",
"198 130 OFFCURVE",
"176 157 OFFCURVE",
"176 186 CURVE",
"372 334 LINE SMOOTH",
"380 340 OFFCURVE",
"384 345 OFFCURVE",
"384 349 CURVE SMOOTH",
"384 351 OFFCURVE",
"382 357 OFFCURVE",
"377 366 CURVE",
"281 509 LINE",
"259 509 LINE",
"90 395 LINE SMOOTH",
"65 379 OFFCURVE",
"58 366 OFFCURVE",
"58 323 CURVE SMOOTH",
"58 182 LINE SMOOTH",
"58 94 OFFCURVE",
"97 40 OFFCURVE",
"208 3 CURVE",
"204 -10 LINE",
"231 -23 LINE"
);
},
{
closed = 1;
nodes = (
"175 352 LINE SMOOTH",
"175 371 OFFCURVE",
"176 385 OFFCURVE",
"177 393 CURVE",
"180 409 OFFCURVE",
"185 416 OFFCURVE",
"208 431 CURVE",
"282 314 LINE",
"282 312 OFFCURVE",
"280 309 OFFCURVE",
"275 305 CURVE",
"175 231 LINE"
);
}
);
width = 415;
}
);
note = u1D58A;
unicode = 1D58A;
},
{
glyphname = u1D58B;
lastChange = "2017-03-13 20:15:23 +0000";
layers = (
{
layerId = "873A0A4B-B0F6-46C2-B3B5-B41B81B55E35";
paths = (
{
closed = 1;
nodes = (
"142 -194 LINE",
"157 -77 LINE SMOOTH",
"182 92 OFFCURVE",
"194 205 OFFCURVE",
"194 263 CURVE SMOOTH",
"194 396 LINE",
"295 396 LINE",
"295 466 LINE",
"194 466 LINE",
"181 503 OFFCURVE",
"170 532 OFFCURVE",
"161 552 CURVE SMOOTH",
"151 573 OFFCURVE",
"146 592 OFFCURVE",
"146 609 CURVE SMOOTH",
"146 631 OFFCURVE",
"159 642 OFFCURVE",
"186 642 CURVE SMOOTH",
"213 642 OFFCURVE",
"266 625 OFFCURVE",
"303 601 CURVE",
"363 714 LINE",
"336 728 LINE",
"330 718 OFFCURVE",
"324 713 OFFCURVE",
"318 713 CURVE SMOOTH",
"304 713 OFFCURVE",
"288 716 OFFCURVE",
"271 721 CURVE",
"256 726 OFFCURVE",
"239 729 OFFCURVE",
"221 729 CURVE SMOOTH",
"158 729 OFFCURVE",
"110 675 OFFCURVE",
"98 599 CURVE SMOOTH",
"81 502 OFFCURVE",
"61 438 OFFCURVE",
"20 426 CURVE",
"20 396 LINE",
"67 396 LINE",
"67 313 LINE SMOOTH",
"67 267 OFFCURVE",
"78 146 OFFCURVE",
"99 -49 CURVE SMOOTH",
"114 -194 LINE"
);
}
);
width = 307;
}
);
note = u1D58B;
unicode = 1D58B;
},
{
glyphname = u1D58C;
lastChange = "2017-03-13 20:15:23 +0000";
layers = (
{
layerId = "873A0A4B-B0F6-46C2-B3B5-B41B81B55E35";
paths = (
{
closed = 1;
nodes = (
"261 -199 OFFCURVE",
"299 -189 OFFCURVE",
"333 -169 CURVE SMOOTH",
"400 -129 OFFCURVE",
"439 -55 OFFCURVE",
"439 33 CURVE SMOOTH",
"439 43 LINE",
"438 56 LINE",
"407 101 OFFCURVE",
"391 163 OFFCURVE",
"391 244 CURVE SMOOTH",
"391 324 OFFCURVE",
"398 366 OFFCURVE",
"425 403 CURVE",
"425 433 LINE",
"369 447 OFFCURVE",
"328 462 OFFCURVE",
"303 477 CURVE",
"288 485 OFFCURVE",
"278 491 OFFCURVE",
"272 496 CURVE",
"265 501 OFFCURVE",
"262 504 OFFCURVE",
"262 507 CURVE",
"263 509 LINE",
"233 509 LINE",
"148 441 OFFCURVE",
"91 387 OFFCURVE",
"63 347 CURVE SMOOTH",
"37 308 OFFCURVE",
"24 266 OFFCURVE",
"24 221 CURVE SMOOTH",
"24 197 OFFCURVE",
"27 175 OFFCURVE",
"33 156 CURVE",
"42 121 OFFCURVE",
"79 65 OFFCURVE",
"98 44 CURVE",
"103 37 OFFCURVE",
"106 30 OFFCURVE",
"106 22 CURVE SMOOTH",
"106 13 OFFCURVE",
"103 5 OFFCURVE",
"97 -1 CURVE",
"124 -12 LINE",
"284 121 LINE",
"289 89 OFFCURVE",
"299 56 OFFCURVE",
"316 21 CURVE SMOOTH",
"333 -13 OFFCURVE",
"341 -34 OFFCURVE",
"341 -42 CURVE SMOOTH",
"341 -63 OFFCURVE",
"336 -83 OFFCURVE",
"325 -101 CURVE SMOOTH",
"304 -138 OFFCURVE",
"266 -163 OFFCURVE",
"223 -163 CURVE SMOOTH",
"154 -163 OFFCURVE",
"118 -130 OFFCURVE",
"116 -64 CURVE",
"22 -64 LINE",
"33 -148 OFFCURVE",
"106 -199 OFFCURVE",
"218 -199 CURVE SMOOTH"
);
},
{
closed = 1;
nodes = (
"200 117 OFFCURVE",
"189 124 OFFCURVE",
"177 137 CURVE SMOOTH",
"152 164 OFFCURVE",
"132 211 OFFCURVE",
"132 262 CURVE SMOOTH",
"132 339 OFFCURVE",
"148 382 OFFCURVE",
"184 418 CURVE",
"219 391 OFFCURVE",
"256 371 OFFCURVE",
"297 358 CURVE",
"282 311 OFFCURVE",
"274 263 OFFCURVE",
"274 214 CURVE",
"277 158 LINE",
"237 129 LINE",
"227 121 OFFCURVE",
"218 117 OFFCURVE",
"210 117 CURVE SMOOTH"
);
}
);
width = 475;
}
);
note = u1D58C;
unicode = 1D58C;
},
{
glyphname = u1D58D;
lastChange = "2017-03-13 20:15:23 +0000";
layers = (
{
layerId = "873A0A4B-B0F6-46C2-B3B5-B41B81B55E35";
paths = (
{
closed = 1;
nodes = (
"375 -35 OFFCURVE",
"438 96 OFFCURVE",
"438 237 CURVE SMOOTH",
"438 314 OFFCURVE",
"402 387 OFFCURVE",
"365 434 CURVE",
"350 451 OFFCURVE",
"343 462 OFFCURVE",
"343 467 CURVE SMOOTH",
"343 475 OFFCURVE",
"347 482 OFFCURVE",
"354 487 CURVE",
"333 509 LINE",
"187 400 LINE",
"187 582 LINE SMOOTH",
"187 662 OFFCURVE",
"209 695 OFFCURVE",
"276 699 CURVE",
"276 729 LINE",
"199 729 OFFCURVE",
"144 683 OFFCURVE",
"120 604 CURVE",
"111 648 OFFCURVE",
"96 678 OFFCURVE",
"75 694 CURVE",
"49 674 LINE",
"63 653 OFFCURVE",
"70 628 OFFCURVE",
"70 599 CURVE SMOOTH",
"70 120 LINE SMOOTH",
"70 95 OFFCURVE",
"58 69 OFFCURVE",
"37 69 CURVE",
"37 39 LINE",
"69 32 OFFCURVE",
"106 6 OFFCURVE",
"117 -23 CURVE",
"147 -23 LINE",
"272 106 LINE",
"252 128 LINE",
"218 98 LINE",
"202 98 OFFCURVE",
"187 109 OFFCURVE",
"187 122 CURVE SMOOTH",
"187 357 LINE",
"242 399 LINE",
"306 322 OFFCURVE",
"330 256 OFFCURVE",
"330 177 CURVE SMOOTH",
"330 45 OFFCURVE",
"295 -48 OFFCURVE",
"198 -183 CURVE",
"222 -200 LINE"
);
}
);
width = 461;
}
);
note = u1D58D;
unicode = 1D58D;
},
{
glyphname = u1D58E;
lastChange = "2017-03-13 20:15:23 +0000";
layers = (
{
layerId = "873A0A4B-B0F6-46C2-B3B5-B41B81B55E35";
paths = (
{
closed = 1;
nodes = (
"137 553 LINE",
"151 568 LINE SMOOTH",
"180 600 OFFCURVE",
"203 626 OFFCURVE",
"218 646 CURVE SMOOTH",
"233 665 OFFCURVE",
"241 683 OFFCURVE",
"241 698 CURVE SMOOTH",
"241 725 OFFCURVE",
"227 739 OFFCURVE",
"200 739 CURVE SMOOTH",
"162 739 OFFCURVE",
"137 707 OFFCURVE",
"125 644 CURVE SMOOTH",
"106 553 LINE"
);
},
{
closed = 1;
nodes = (
"309 107 LINE",
"287 127 LINE",
"266 106 OFFCURVE",
"252 95 OFFCURVE",
"245 95 CURVE SMOOTH",
"236 95 OFFCURVE",
"231 98 OFFCURVE",
"228 105 CURVE",
"225 111 OFFCURVE",
"224 122 OFFCURVE",
"224 139 CURVE SMOOTH",
"224 343 LINE SMOOTH",
"224 370 OFFCURVE",
"233 384 OFFCURVE",
"251 386 CURVE",
"251 416 LINE",
"226 416 OFFCURVE",
"168 452 OFFCURVE",
"168 471 CURVE SMOOTH",
"168 475 OFFCURVE",
"172 482 OFFCURVE",
"180 493 CURVE",
"154 509 LINE",
"103 449 OFFCURVE",
"58 405 OFFCURVE",
"21 378 CURVE",
"41 356 LINE",
"59 372 OFFCURVE",
"74 380 OFFCURVE",
"86 380 CURVE SMOOTH",
"103 380 OFFCURVE",
"107 373 OFFCURVE",
"107 342 CURVE SMOOTH",
"107 171 LINE",
"104 88 LINE",
"104 44 OFFCURVE",
"122 27 OFFCURVE",
"173 3 CURVE",
"167 -7 LINE",
"193 -23 LINE"
);
}
);
width = 320;
}
);
note = u1D58E;
unicode = 1D58E;
},
{
glyphname = u1D58F;
lastChange = "2017-03-13 20:15:23 +0000";
layers = (
{
layerId = "873A0A4B-B0F6-46C2-B3B5-B41B81B55E35";
paths = (
{
closed = 1;
nodes = (
"135 553 LINE",
"154 573 LINE SMOOTH",
"182 603 OFFCURVE",
"203 628 OFFCURVE",
"218 647 CURVE SMOOTH",
"232 666 OFFCURVE",
"239 683 OFFCURVE",
"239 698 CURVE SMOOTH",
"239 725 OFFCURVE",
"225 739 OFFCURVE",
"198 739 CURVE SMOOTH",
"160 739 OFFCURVE",
"135 707 OFFCURVE",
"123 644 CURVE SMOOTH",
"104 553 LINE"
);
},
{
closed = 1;
nodes = (
"134 -108 OFFCURVE",
"170 -20 OFFCURVE",
"182 64 CURVE",
"182 61 OFFCURVE",
"185 49 OFFCURVE",
"192 28 CURVE SMOOTH",
"204 -9 LINE",
"205 -13 OFFCURVE",
"206 -18 OFFCURVE",
"209 -23 CURVE",
"239 -23 LINE",
"228 16 OFFCURVE",
"222 52 OFFCURVE",
"222 84 CURVE SMOOTH",
"222 349 LINE",
"224 372 OFFCURVE",
"233 384 OFFCURVE",
"249 386 CURVE",
"249 416 LINE",
"224 416 OFFCURVE",
"166 452 OFFCURVE",
"166 471 CURVE SMOOTH",
"166 475 OFFCURVE",
"170 482 OFFCURVE",
"178 493 CURVE",
"152 509 LINE",
"101 449 OFFCURVE",
"56 405 OFFCURVE",
"19 378 CURVE",
"39 356 LINE",
"57 372 OFFCURVE",
"72 380 OFFCURVE",
"84 380 CURVE SMOOTH",
"100 380 OFFCURVE",
"104 372 OFFCURVE",
"105 345 CURVE",
"105 115 LINE SMOOTH",
"105 54 OFFCURVE",
"103 4 OFFCURVE",
"98 -33 CURVE SMOOTH",
"89 -108 OFFCURVE",
"74 -145 OFFCURVE",
"43 -200 CURVE",
"74 -200 LINE"
);
}
);
width = 271;
}
);
note = u1D58F;
unicode = 1D58F;
},
{
glyphname = u1D590;
lastChange = "2017-03-13 20:15:23 +0000";
layers = (
{
layerId = "873A0A4B-B0F6-46C2-B3B5-B41B81B55E35";
paths = (
{
closed = 1;
nodes = (
"260 94 LINE",
"239 116 LINE",
"215 95 LINE",
"200 95 OFFCURVE",
"187 108 OFFCURVE",
"187 125 CURVE",
"186 192 LINE",
"240 225 LINE",
"279 182 OFFCURVE",
"294 152 OFFCURVE",
"302 84 CURVE SMOOTH",
"306 49 OFFCURVE",
"319 24 OFFCURVE",
"340 9 CURVE",
"327 -6 LINE",
"352 -23 LINE",
"466 97 LINE",
"444 116 LINE",
"427 99 LINE",
"412 108 LINE",
"409 113 OFFCURVE",
"406 123 OFFCURVE",
"404 137 CURVE SMOOTH",
"394 211 OFFCURVE",
"372 262 OFFCURVE",
"337 291 CURVE",
"366 312 OFFCURVE",
"385 327 OFFCURVE",
"396 336 CURVE",
"409 348 OFFCURVE",
"416 360 OFFCURVE",
"416 371 CURVE SMOOTH",
"416 383 OFFCURVE",
"409 403 OFFCURVE",
"396 431 CURVE SMOOTH",
"383 459 OFFCURVE",
"376 474 OFFCURVE",
"376 477 CURVE SMOOTH",
"376 481 OFFCURVE",
"378 486 OFFCURVE",
"383 491 CURVE",
"364 511 LINE",
"186 403 LINE",
"187 582 LINE SMOOTH",
"187 662 OFFCURVE",
"209 695 OFFCURVE",
"276 699 CURVE",
"276 729 LINE",
"199 729 OFFCURVE",
"144 683 OFFCURVE",
"120 604 CURVE",
"109 649 OFFCURVE",
"94 679 OFFCURVE",
"75 694 CURVE",
"49 674 LINE",
"65 650 OFFCURVE",
"70 634 OFFCURVE",
"70 599 CURVE SMOOTH",
"70 120 LINE SMOOTH",
"70 95 OFFCURVE",
"58 69 OFFCURVE",
"37 69 CURVE",
"37 39 LINE",
"69 32 OFFCURVE",
"106 6 OFFCURVE",
"117 -23 CURVE",
"147 -23 LINE"
);
},
{
closed = 1;
nodes = (
"186 360 LINE",
"276 415 LINE",
"281 404 OFFCURVE",
"285 396 OFFCURVE",
"289 389 CURVE",
"292 382 OFFCURVE",
"295 377 OFFCURVE",
"297 373 CURVE SMOOTH",
"304 360 OFFCURVE",
"307 347 OFFCURVE",
"307 334 CURVE SMOOTH",
"307 322 OFFCURVE",
"298 309 OFFCURVE",
"280 296 CURVE",
"187 234 LINE"
);
}
);
width = 466;
}
);
note = u1D590;
unicode = 1D590;
},
{
glyphname = u1D591;
lastChange = "2017-03-13 20:15:23 +0000";
layers = (
{
layerId = "873A0A4B-B0F6-46C2-B3B5-B41B81B55E35";
paths = (
{
closed = 1;
nodes = (
"314 101 LINE",
"292 121 LINE",
"277 106 OFFCURVE",
"265 99 OFFCURVE",
"255 99 CURVE SMOOTH",
"247 99 OFFCURVE",
"225 108 OFFCURVE",
"190 127 CURVE SMOOTH",
"181 132 OFFCURVE",
"177 143 OFFCURVE",
"177 160 CURVE SMOOTH",
"178 582 LINE SMOOTH",
"178 662 OFFCURVE",
"200 695 OFFCURVE",
"267 699 CURVE",
"267 729 LINE",
"190 729 OFFCURVE",
"135 683 OFFCURVE",
"111 604 CURVE",
"101 648 OFFCURVE",
"86 678 OFFCURVE",
"66 694 CURVE",
"40 674 LINE",
"56 649 OFFCURVE",
"61 634 OFFCURVE",
"61 599 CURVE",
"62 597 LINE",
"60 599 LINE",
"60 162 LINE SMOOTH",
"60 137 OFFCURVE",
"59 120 OFFCURVE",
"56 112 CURVE",
"51 102 OFFCURVE",
"45 96 OFFCURVE",
"37 93 CURVE",
"37 63 LINE",
"122 34 OFFCURVE",
"165 15 OFFCURVE",
"165 5 CURVE SMOOTH",
"165 2 OFFCURVE",
"162 -3 OFFCURVE",
"155 -10 CURVE",
"182 -23 LINE"
);
}
);
width = 282;
}
);
note = u1D591;
unicode = 1D591;
},
{
glyphname = u1D592;
lastChange = "2017-03-13 20:15:23 +0000";
layers = (
{
layerId = "873A0A4B-B0F6-46C2-B3B5-B41B81B55E35";
paths = (
{
closed = 1;
nodes = (
"167 8 OFFCURVE",
"201 32 OFFCURVE",
"232 39 CURVE",
"232 69 LINE",
"210 73 OFFCURVE",
"199 90 OFFCURVE",
"199 120 CURVE SMOOTH",
"199 330 LINE",
"283 404 LINE",
"304 391 OFFCURVE",
"315 371 OFFCURVE",
"315 345 CURVE SMOOTH",
"315 120 LINE SMOOTH",
"315 90 OFFCURVE",
"304 73 OFFCURVE",
"282 69 CURVE",
"282 39 LINE",
"314 32 OFFCURVE",
"350 8 OFFCURVE",
"359 -23 CURVE",
"389 -23 LINE",
"398 8 OFFCURVE",
"433 32 OFFCURVE",
"465 39 CURVE",
"465 69 LINE",
"443 73 OFFCURVE",
"432 90 OFFCURVE",
"432 120 CURVE SMOOTH",
"432 330 LINE",
"514 404 LINE",
"537 391 OFFCURVE",
"548 372 OFFCURVE",
"548 345 CURVE SMOOTH",
"548 176 LINE",
"545 84 LINE SMOOTH",
"545 45 OFFCURVE",
"567 23 OFFCURVE",
"614 3 CURVE",
"608 -7 LINE",
"634 -23 LINE",
"750 107 LINE",
"728 127 LINE",
"707 106 OFFCURVE",
"693 95 OFFCURVE",
"686 95 CURVE SMOOTH",
"669 95 OFFCURVE",
"665 103 OFFCURVE",
"665 134 CURVE SMOOTH",
"665 374 LINE SMOOTH",
"665 396 OFFCURVE",
"674 410 OFFCURVE",
"692 417 CURVE",
"692 447 LINE",
"661 450 OFFCURVE",
"621 474 OFFCURVE",
"600 509 CURVE",
"570 509 LINE",
"432 379 LINE",
"432 412 LINE SMOOTH",
"432 435 OFFCURVE",
"423 453 OFFCURVE",
"404 467 CURVE SMOOTH",
"380 486 LINE SMOOTH",
"371 493 OFFCURVE",
"366 500 OFFCURVE",
"366 506 CURVE SMOOTH",
"366 509 LINE",
"336 509 LINE",
"336 502 OFFCURVE",
"325 489 OFFCURVE",
"302 468 CURVE SMOOTH",
"199 377 LINE",
"199 384 LINE SMOOTH",
"199 413 OFFCURVE",
"193 434 OFFCURVE",
"182 447 CURVE SMOOTH",
"171 460 OFFCURVE",
"162 468 OFFCURVE",
"153 471 CURVE",
"145 473 OFFCURVE",
"141 476 OFFCURVE",
"141 480 CURVE SMOOTH",
"141 483 OFFCURVE",
"143 486 OFFCURVE",
"147 490 CURVE",
"123 509 LINE",
"21 396 LINE",
"43 376 LINE",
"62 396 LINE",
"75 389 OFFCURVE",
"82 365 OFFCURVE",
"82 324 CURVE SMOOTH",
"82 120 LINE SMOOTH",
"82 90 OFFCURVE",
"71 73 OFFCURVE",
"49 69 CURVE",
"49 39 LINE",
"81 32 OFFCURVE",
"117 8 OFFCURVE",
"126 -23 CURVE",
"156 -23 LINE"
);
}
);
width = 769;
}
);
note = u1D592;
unicode = 1D592;
},
{
glyphname = u1D593;
lastChange = "2017-03-13 20:15:23 +0000";
layers = (
{
layerId = "873A0A4B-B0F6-46C2-B3B5-B41B81B55E35";
paths = (
{
closed = 1;
nodes = (
"167 8 OFFCURVE",
"201 32 OFFCURVE",
"232 39 CURVE",
"232 69 LINE",
"210 73 OFFCURVE",
"199 90 OFFCURVE",
"199 120 CURVE SMOOTH",
"199 328 LINE",
"279 405 LINE",
"302 393 OFFCURVE",
"313 373 OFFCURVE",
"313 346 CURVE SMOOTH",
"313 166 LINE",
"310 88 LINE",
"310 44 OFFCURVE",
"328 27 OFFCURVE",
"379 3 CURVE",
"373 -7 LINE",
"399 -23 LINE",
"515 107 LINE",
"493 127 LINE",
"472 106 OFFCURVE",
"458 95 OFFCURVE",
"451 95 CURVE SMOOTH",
"435 95 OFFCURVE",
"430 105 OFFCURVE",
"430 134 CURVE SMOOTH",
"430 374 LINE SMOOTH",
"430 396 OFFCURVE",
"439 410 OFFCURVE",
"457 417 CURVE",
"457 447 LINE",
"426 450 OFFCURVE",
"383 474 OFFCURVE",
"363 509 CURVE",
"333 509 LINE",
"199 377 LINE",
"199 387 LINE SMOOTH",
"199 428 OFFCURVE",
"183 457 OFFCURVE",
"150 473 CURVE SMOOTH",
"144 476 OFFCURVE",
"141 479 OFFCURVE",
"141 481 CURVE SMOOTH",
"141 483 OFFCURVE",
"143 486 OFFCURVE",
"147 490 CURVE",
"123 509 LINE",
"21 396 LINE",
"43 376 LINE",
"62 396 LINE",
"75 389 OFFCURVE",
"82 365 OFFCURVE",
"82 324 CURVE SMOOTH",
"82 120 LINE SMOOTH",
"82 90 OFFCURVE",
"71 73 OFFCURVE",
"49 69 CURVE",
"49 39 LINE",
"81 32 OFFCURVE",
"117 8 OFFCURVE",
"126 -23 CURVE",
"156 -23 LINE"
);
}
);
width = 534;
}
);
note = u1D593;
unicode = 1D593;
},
{
glyphname = u1D594;
lastChange = "2017-03-13 20:15:23 +0000";
layers = (
{
layerId = "873A0A4B-B0F6-46C2-B3B5-B41B81B55E35";
paths = (
{
closed = 1;
nodes = (
"328 70 LINE SMOOTH",
"408 154 OFFCURVE",
"436 202 OFFCURVE",
"436 254 CURVE SMOOTH",
"436 283 OFFCURVE",
"429 310 OFFCURVE",
"414 333 CURVE SMOOTH",
"381 385 OFFCURVE",
"341 453 OFFCURVE",
"332 474 CURVE",
"346 481 LINE",
"331 509 LINE",
"62 400 LINE",
"65 375 OFFCURVE",
"67 348 OFFCURVE",
"67 318 CURVE SMOOTH",
"67 147 LINE SMOOTH",
"67 124 OFFCURVE",
"66 108 OFFCURVE",
"63 97 CURVE",
"60 89 OFFCURVE",
"54 83 OFFCURVE",
"44 78 CURVE",
"44 48 LINE",
"100 33 OFFCURVE",
"142 19 OFFCURVE",
"169 6 CURVE SMOOTH",
"196 -7 OFFCURVE",
"211 -16 OFFCURVE",
"213 -23 CURVE",
"243 -23 LINE"
);
},
{
closed = 1;
nodes = (
"267 72 OFFCURVE",
"237 85 OFFCURVE",
"184 112 CURVE",
"184 410 LINE",
"229 428 LINE",
"241 399 OFFCURVE",
"260 363 OFFCURVE",
"286 320 CURVE SMOOTH",
"312 277 OFFCURVE",
"325 237 OFFCURVE",
"325 199 CURVE SMOOTH",
"325 168 OFFCURVE",
"319 139 OFFCURVE",
"307 112 CURVE SMOOTH",
"295 85 OFFCURVE",
"285 72 OFFCURVE",
"276 72 CURVE SMOOTH"
);
}
);
width = 459;
}
);
note = u1D594;
unicode = 1D594;
},
{
glyphname = u1D595;
lastChange = "2017-03-13 20:15:23 +0000";
layers = (
{
layerId = "873A0A4B-B0F6-46C2-B3B5-B41B81B55E35";
paths = (
{
closed = 1;
nodes = (
"183 -109 OFFCURVE",
"195 -37 OFFCURVE",
"200 17 CURVE",
"243 1 OFFCURVE",
"266 -12 OFFCURVE",
"268 -23 CURVE",
"298 -23 LINE",
"321 13 OFFCURVE",
"353 59 OFFCURVE",
"396 114 CURVE SMOOTH",
"443 178 OFFCURVE",
"466 232 OFFCURVE",
"466 275 CURVE SMOOTH",
"466 317 OFFCURVE",
"452 357 OFFCURVE",
"425 394 CURVE SMOOTH",
"398 431 OFFCURVE",
"381 458 OFFCURVE",
"375 474 CURVE",
"389 485 LINE",
"371 509 LINE",
"206 398 LINE",
"206 406 LINE SMOOTH",
"206 424 OFFCURVE",
"197 441 OFFCURVE",
"178 458 CURVE SMOOTH",
"159 474 OFFCURVE",
"150 487 OFFCURVE",
"150 497 CURVE SMOOTH",
"150 502 OFFCURVE",
"153 510 OFFCURVE",
"159 521 CURVE",
"135 539 LINE",
"104 502 LINE SMOOTH",
"69 461 OFFCURVE",
"51 436 OFFCURVE",
"51 429 CURVE SMOOTH",
"51 421 OFFCURVE",
"55 414 OFFCURVE",
"62 407 CURVE SMOOTH",
"71 398 OFFCURVE",
"77 388 OFFCURVE",
"82 379 CURVE",
"89 368 OFFCURVE",
"92 341 OFFCURVE",
"92 299 CURVE SMOOTH",
"92 119 LINE",
"22 42 LINE",
"45 24 LINE",
"58 39 OFFCURVE",
"71 47 OFFCURVE",
"83 47 CURVE",
"97 44 LINE",
"102 -17 OFFCURVE",
"115 -99 OFFCURVE",
"136 -200 CURVE",
"166 -200 LINE"
);
},
{
closed = 1;
nodes = (
"297 79 OFFCURVE",
"285 83 OFFCURVE",
"267 92 CURVE",
"248 100 OFFCURVE",
"227 111 OFFCURVE",
"206 126 CURVE",
"205 126 LINE",
"206 355 LINE",
"280 406 LINE",
"291 384 OFFCURVE",
"310 356 OFFCURVE",
"336 321 CURVE SMOOTH",
"363 284 OFFCURVE",
"377 252 OFFCURVE",
"377 224 CURVE SMOOTH",
"377 200 OFFCURVE",
"374 177 OFFCURVE",
"367 155 CURVE SMOOTH",
"353 110 OFFCURVE",
"327 79 OFFCURVE",
"302 79 CURVE SMOOTH"
);
}
);
width = 489;
}
);
note = u1D595;
unicode = 1D595;
},
{
glyphname = u1D596;
lastChange = "2017-03-13 20:15:23 +0000";
layers = (
{
layerId = "873A0A4B-B0F6-46C2-B3B5-B41B81B55E35";
paths = (
{
closed = 1;
nodes = (
"350 -200 LINE",
"363 -111 OFFCURVE",
"374 -18 OFFCURVE",
"381 79 CURVE SMOOTH",
"390 189 OFFCURVE",
"397 268 OFFCURVE",
"403 317 CURVE SMOOTH",
"409 372 OFFCURVE",
"417 401 OFFCURVE",
"428 402 CURVE",
"428 432 LINE",
"345 455 OFFCURVE",
"290 480 OFFCURVE",
"265 509 CURVE",
"235 509 LINE",
"165 454 OFFCURVE",
"118 413 OFFCURVE",
"94 386 CURVE SMOOTH",
"46 330 OFFCURVE",
"23 278 OFFCURVE",
"23 219 CURVE SMOOTH",
"23 198 OFFCURVE",
"26 177 OFFCURVE",
"32 158 CURVE",
"41 123 OFFCURVE",
"81 64 OFFCURVE",
"101 41 CURVE",
"108 30 OFFCURVE",
"112 22 OFFCURVE",
"112 16 CURVE",
"112 16 OFFCURVE",
"109 11 OFFCURVE",
"102 1 CURVE",
"124 -18 LINE",
"285 122 LINE",
"320 -185 LINE",
"322 -200 LINE"
);
},
{
closed = 1;
nodes = (
"199 116 OFFCURVE",
"188 123 OFFCURVE",
"176 136 CURVE SMOOTH",
"151 162 OFFCURVE",
"132 209 OFFCURVE",
"132 264 CURVE SMOOTH",
"132 332 OFFCURVE",
"150 384 OFFCURVE",
"187 421 CURVE",
"219 396 OFFCURVE",
"252 376 OFFCURVE",
"285 361 CURVE",
"285 167 LINE",
"237 128 LINE SMOOTH",
"227 120 OFFCURVE",
"218 116 OFFCURVE",
"210 116 CURVE SMOOTH"
);
}
);
width = 470;
}
);
note = u1D596;
unicode = 1D596;
},
{
glyphname = u1D597;
lastChange = "2017-03-13 20:15:23 +0000";
layers = (
{
layerId = "873A0A4B-B0F6-46C2-B3B5-B41B81B55E35";
paths = (
{
closed = 1;
nodes = (
"338 112 LINE",
"316 132 LINE",
"295 111 OFFCURVE",
"281 101 OFFCURVE",
"273 101 CURVE SMOOTH",
"271 101 LINE SMOOTH",
"264 101 OFFCURVE",
"253 105 OFFCURVE",
"236 114 CURVE SMOOTH",
"201 131 OFFCURVE",
"199 135 OFFCURVE",
"199 160 CURVE SMOOTH",
"199 320 LINE",
"245 391 LINE",
"264 375 OFFCURVE",
"276 351 OFFCURVE",
"279 319 CURVE",
"309 319 LINE",
"318 354 OFFCURVE",
"338 386 OFFCURVE",
"357 395 CURVE",
"357 433 LINE",
"330 448 OFFCURVE",
"311 473 OFFCURVE",
"300 509 CURVE",
"271 509 LINE",
"266 491 OFFCURVE",
"262 478 OFFCURVE",
"258 471 CURVE",
"254 462 OFFCURVE",
"234 430 OFFCURVE",
"199 377 CURVE",
"199 387 LINE SMOOTH",
"199 428 OFFCURVE",
"183 457 OFFCURVE",
"150 473 CURVE SMOOTH",
"144 476 OFFCURVE",
"141 479 OFFCURVE",
"141 481 CURVE SMOOTH",
"141 483 OFFCURVE",
"143 486 OFFCURVE",
"147 490 CURVE",
"123 509 LINE",
"21 396 LINE",
"43 376 LINE",
"62 396 LINE",
"75 389 OFFCURVE",
"82 365 OFFCURVE",
"82 324 CURVE SMOOTH",
"82 145 LINE SMOOTH",
"82 116 OFFCURVE",
"74 98 OFFCURVE",
"59 93 CURVE",
"59 63 LINE",
"140 37 OFFCURVE",
"180 19 OFFCURVE",
"180 9 CURVE SMOOTH",
"180 6 OFFCURVE",
"176 0 OFFCURVE",
"169 -7 CURVE",
"195 -23 LINE"
);
}
);
width = 372;
}
);
note = u1D597;
unicode = 1D597;
},
{
glyphname = u1D598;
lastChange = "2017-03-13 20:15:23 +0000";
layers = (
{
layerId = "873A0A4B-B0F6-46C2-B3B5-B41B81B55E35";
paths = (
{
closed = 1;
nodes = (
"211 -16 OFFCURVE",
"219 -9 OFFCURVE",
"229 -2 CURVE",
"256 12 OFFCURVE",
"273 20 OFFCURVE",
"278 22 CURVE",
"319 41 LINE",
"386 77 OFFCURVE",
"420 124 OFFCURVE",
"420 183 CURVE SMOOTH",
"420 238 OFFCURVE",
"382 298 OFFCURVE",
"314 335 CURVE",
"379 414 LINE SMOOTH",
"414 455 OFFCURVE",
"426 487 OFFCURVE",
"426 528 CURVE SMOOTH",
"426 591 OFFCURVE",
"373 638 OFFCURVE",
"312 638 CURVE SMOOTH",
"265 638 OFFCURVE",
"226 609 OFFCURVE",
"207 568 CURVE",
"224 559 OFFCURVE",
"239 548 OFFCURVE",
"252 535 CURVE",
"257 570 OFFCURVE",
"290 603 OFFCURVE",
"322 603 CURVE SMOOTH",
"359 603 OFFCURVE",
"392 571 OFFCURVE",
"392 528 CURVE SMOOTH",
"392 487 OFFCURVE",
"362 455 OFFCURVE",
"322 455 CURVE SMOOTH",
"296 455 OFFCURVE",
"262 470 OFFCURVE",
"219 501 CURVE",
"203 509 LINE",
"194 509 OFFCURVE",
"175 496 OFFCURVE",
"147 470 CURVE SMOOTH",
"90 418 OFFCURVE",
"29 346 OFFCURVE",
"29 326 CURVE SMOOTH",
"29 314 OFFCURVE",
"43 293 OFFCURVE",
"71 263 CURVE SMOOTH",
"99 233 OFFCURVE",
"113 208 OFFCURVE",
"113 188 CURVE SMOOTH",
"113 162 OFFCURVE",
"88 134 OFFCURVE",
"38 105 CURVE",
"38 75 LINE",
"89 46 OFFCURVE",
"123 25 OFFCURVE",
"142 12 CURVE",
"162 -3 OFFCURVE",
"173 -14 OFFCURVE",
"175 -23 CURVE",
"205 -23 LINE"
);
},
{
closed = 1;
nodes = (
"191 276 OFFCURVE",
"177 297 OFFCURVE",
"155 324 CURVE SMOOTH",
"132 353 OFFCURVE",
"120 371 OFFCURVE",
"120 380 CURVE SMOOTH",
"120 396 OFFCURVE",
"135 416 OFFCURVE",
"151 416 CURVE SMOOTH",
"157 416 OFFCURVE",
"163 413 OFFCURVE",
"169 408 CURVE SMOOTH",
"208 377 OFFCURVE",
"247 361 OFFCURVE",
"284 361 CURVE",
"196 261 LINE"
);
},
{
closed = 1;
nodes = (
"254 57 OFFCURVE",
"240 63 OFFCURVE",
"223 74 CURVE",
"213 81 OFFCURVE",
"185 101 OFFCURVE",
"139 135 CURVE",
"222 230 LINE",
"229 239 OFFCURVE",
"236 243 OFFCURVE",
"243 243 CURVE SMOOTH",
"253 243 OFFCURVE",
"265 237 OFFCURVE",
"280 226 CURVE",
"308 202 OFFCURVE",
"333 164 OFFCURVE",
"333 135 CURVE SMOOTH",
"333 91 OFFCURVE",
"304 57 OFFCURVE",
"265 57 CURVE SMOOTH"
);
}
);
width = 447;
}
);
note = u1D598;
unicode = 1D598;
},
{
glyphname = u1D599;
lastChange = "2017-03-13 20:15:23 +0000";
layers = (
{
layerId = "873A0A4B-B0F6-46C2-B3B5-B41B81B55E35";
paths = (
{
closed = 1;
nodes = (
"317 99 LINE",
"297 121 LINE",
"278 104 OFFCURVE",
"266 96 OFFCURVE",
"260 96 CURVE SMOOTH",
"256 96 OFFCURVE",
"234 105 OFFCURVE",
"195 123 CURVE",
"195 396 LINE",
"311 396 LINE",
"311 466 LINE",
"195 466 LINE",
"195 527 OFFCURVE",
"198 577 OFFCURVE",
"205 617 CURVE",
"170 617 LINE",
"146 534 OFFCURVE",
"110 481 OFFCURVE",
"31 426 CURVE",
"31 396 LINE",
"78 396 LINE",
"78 134 LINE SMOOTH",
"78 105 OFFCURVE",
"70 87 OFFCURVE",
"55 82 CURVE",
"55 52 LINE",
"83 48 OFFCURVE",
"121 34 OFFCURVE",
"168 9 CURVE",
"155 -7 LINE",
"181 -23 LINE"
);
}
);
width = 321;
}
);
note = u1D599;
unicode = 1D599;
},
{
glyphname = u1D59A;
lastChange = "2017-03-13 20:15:23 +0000";
layers = (
{
layerId = "873A0A4B-B0F6-46C2-B3B5-B41B81B55E35";
paths = (
{
closed = 1;
nodes = (
"310 105 LINE",
"310 88 LINE SMOOTH",
"310 44 OFFCURVE",
"328 27 OFFCURVE",
"379 3 CURVE",
"373 -7 LINE",
"399 -23 LINE",
"515 107 LINE",
"493 127 LINE",
"472 106 OFFCURVE",
"458 95 OFFCURVE",
"451 95 CURVE SMOOTH",
"435 95 OFFCURVE",
"430 105 OFFCURVE",
"430 134 CURVE SMOOTH",
"430 366 LINE SMOOTH",
"430 396 OFFCURVE",
"441 413 OFFCURVE",
"463 417 CURVE",
"463 447 LINE",
"431 455 OFFCURVE",
"395 480 OFFCURVE",
"386 509 CURVE",
"356 509 LINE",
"347 480 OFFCURVE",
"312 455 OFFCURVE",
"280 447 CURVE",
"280 417 LINE",
"302 413 OFFCURVE",
"313 398 OFFCURVE",
"313 372 CURVE SMOOTH",
"313 172 LINE",
"312 148 LINE",
"272 108 OFFCURVE",
"246 88 OFFCURVE",
"235 88 CURVE SMOOTH",
"210 88 OFFCURVE",
"204 107 OFFCURVE",
"204 140 CURVE SMOOTH",
"204 385 LINE SMOOTH",
"204 428 OFFCURVE",
"188 457 OFFCURVE",
"155 473 CURVE SMOOTH",
"149 476 OFFCURVE",
"146 479 OFFCURVE",
"146 481 CURVE",
"149 487 LINE",
"152 490 LINE",
"128 509 LINE",
"22 392 LINE",
"44 372 LINE",
"67 396 LINE",
"80 389 OFFCURVE",
"87 368 OFFCURVE",
"87 334 CURVE SMOOTH",
"87 119 LINE SMOOTH",
"87 88 OFFCURVE",
"75 71 OFFCURVE",
"52 70 CURVE",
"52 40 LINE",
"110 17 LINE SMOOTH",
"130 9 OFFCURVE",
"140 3 OFFCURVE",
"140 0 CURVE",
"135 -10 LINE",
"162 -23 LINE"
);
}
);
width = 537;
}
);
note = u1D59A;
unicode = 1D59A;
},
{
glyphname = u1D59B;
lastChange = "2017-03-13 20:15:23 +0000";
layers = (
{
layerId = "873A0A4B-B0F6-46C2-B3B5-B41B81B55E35";
paths = (
{
closed = 1;
nodes = (
"333 70 LINE SMOOTH",
"408 146 OFFCURVE",
"441 206 OFFCURVE",
"441 266 CURVE SMOOTH",
"441 295 OFFCURVE",
"438 319 OFFCURVE",
"431 338 CURVE",
"419 375 OFFCURVE",
"395 421 OFFCURVE",
"374 453 CURVE SMOOTH",
"364 468 OFFCURVE",
"359 481 OFFCURVE",
"359 491 CURVE SMOOTH",
"359 509 LINE",
"329 509 LINE",
"189 390 LINE",
"187 401 OFFCURVE",
"177 418 OFFCURVE",
"160 439 CURVE SMOOTH",
"143 460 OFFCURVE",
"134 476 OFFCURVE",
"134 487 CURVE SMOOTH",
"134 495 OFFCURVE",
"139 507 OFFCURVE",
"149 523 CURVE",
"124 539 LINE",
"60 475 OFFCURVE",
"28 435 OFFCURVE",
"28 420 CURVE SMOOTH",
"28 412 OFFCURVE",
"35 399 OFFCURVE",
"50 382 CURVE",
"65 363 OFFCURVE",
"72 344 OFFCURVE",
"72 324 CURVE SMOOTH",
"72 128 LINE SMOOTH",
"72 95 OFFCURVE",
"64 75 OFFCURVE",
"49 70 CURVE",
"49 40 LINE",
"116 22 OFFCURVE",
"161 9 OFFCURVE",
"183 0 CURVE",
"205 -10 OFFCURVE",
"216 -18 OFFCURVE",
"217 -23 CURVE",
"247 -23 LINE"
);
},
{
closed = 1;
nodes = (
"269 72 OFFCURVE",
"263 73 OFFCURVE",
"257 76 CURVE",
"189 104 LINE",
"189 343 LINE",
"259 402 LINE",
"314 326 OFFCURVE",
"330 272 OFFCURVE",
"330 199 CURVE SMOOTH",
"330 159 OFFCURVE",
"315 116 OFFCURVE",
"297 91 CURVE SMOOTH",
"288 78 OFFCURVE",
"280 72 OFFCURVE",
"275 72 CURVE SMOOTH"
);
}
);
width = 464;
}
);
note = u1D59B;
unicode = 1D59B;
},
{
glyphname = u1D59C;
lastChange = "2017-03-13 20:15:23 +0000";
layers = (
{
layerId = "873A0A4B-B0F6-46C2-B3B5-B41B81B55E35";
paths = (
{
closed = 1;
nodes = (
"165 8 OFFCURVE",
"199 32 OFFCURVE",
"230 39 CURVE",
"230 69 LINE",
"208 72 OFFCURVE",
"197 87 OFFCURVE",
"197 114 CURVE SMOOTH",
"197 345 LINE",
"248 388 LINE SMOOTH",
"260 398 OFFCURVE",
"271 403 OFFCURVE",
"280 403 CURVE SMOOTH",
"291 403 OFFCURVE",
"299 398 OFFCURVE",
"306 387 CURVE",
"311 374 OFFCURVE",
"314 352 OFFCURVE",
"314 321 CURVE SMOOTH",
"314 125 LINE SMOOTH",
"314 93 OFFCURVE",
"306 74 OFFCURVE",
"291 69 CURVE",
"291 39 LINE",
"396 10 OFFCURVE",
"449 -10 OFFCURVE",
"451 -23 CURVE",
"481 -23 LINE",
"567 70 LINE SMOOTH",
"642 146 OFFCURVE",
"675 206 OFFCURVE",
"675 266 CURVE SMOOTH",
"675 293 OFFCURVE",
"672 316 OFFCURVE",
"666 336 CURVE SMOOTH",
"655 372 OFFCURVE",
"631 420 OFFCURVE",
"610 453 CURVE SMOOTH",
"601 468 OFFCURVE",
"596 481 OFFCURVE",
"596 491 CURVE SMOOTH",
"596 509 LINE",
"566 509 LINE",
"431 390 LINE",
"430 434 OFFCURVE",
"412 464 OFFCURVE",
"377 479 CURVE",
"367 482 OFFCURVE",
"362 489 OFFCURVE",
"362 499 CURVE SMOOTH",
"362 509 LINE",
"332 509 LINE",
"197 389 LINE",
"197 392 LINE SMOOTH",
"197 405 OFFCURVE",
"188 421 OFFCURVE",
"169 440 CURVE SMOOTH",
"151 459 OFFCURVE",
"142 475 OFFCURVE",
"142 487 CURVE SMOOTH",
"142 495 OFFCURVE",
"147 507 OFFCURVE",
"157 523 CURVE",
"132 539 LINE",
"68 475 OFFCURVE",
"36 435 OFFCURVE",
"36 420 CURVE SMOOTH",
"36 413 OFFCURVE",
"43 400 OFFCURVE",
"57 383 CURVE SMOOTH",
"72 364 OFFCURVE",
"79 346 OFFCURVE",
"80 328 CURVE",
"80 114 LINE SMOOTH",
"80 87 OFFCURVE",
"69 72 OFFCURVE",
"47 69 CURVE",
"47 39 LINE",
"79 32 OFFCURVE",
"115 8 OFFCURVE",
"124 -23 CURVE",
"154 -23 LINE"
);
},
{
closed = 1;
nodes = (
"502 71 OFFCURVE",
"495 73 OFFCURVE",
"487 76 CURVE",
"431 103 LINE",
"431 345 LINE",
"497 401 LINE",
"548 329 OFFCURVE",
"564 279 OFFCURVE",
"564 199 CURVE SMOOTH",
"564 134 OFFCURVE",
"526 71 OFFCURVE",
"509 71 CURVE SMOOTH"
);
}
);
width = 699;
}
);
note = u1D59C;
unicode = 1D59C;
},
{
glyphname = u1D59D;
lastChange = "2017-03-13 20:15:23 +0000";
layers = (
{
layerId = "873A0A4B-B0F6-46C2-B3B5-B41B81B55E35";
paths = (
{
closed = 1;
nodes = (
"460 109 LINE",
"437 127 LINE",
"426 113 OFFCURVE",
"417 106 OFFCURVE",
"410 106 CURVE SMOOTH",
"402 106 OFFCURVE",
"393 114 OFFCURVE",
"384 129 CURVE",
"291 304 LINE",
"338 392 LINE",
"348 383 OFFCURVE",
"357 367 OFFCURVE",
"366 342 CURVE",
"396 342 LINE",
"407 373 OFFCURVE",
"426 395 OFFCURVE",
"454 408 CURVE",
"454 438 LINE",
"430 445 OFFCURVE",
"402 476 OFFCURVE",
"393 509 CURVE",
"363 509 LINE",
"269 341 LINE",
"217 438 LINE SMOOTH",
"200 468 OFFCURVE",
"186 483 OFFCURVE",
"175 483 CURVE",
"180 500 LINE",
"154 515 LINE",
"45 387 LINE",
"69 368 LINE",
"98 394 LINE",
"108 388 OFFCURVE",
"119 374 OFFCURVE",
"132 351 CURVE SMOOTH",
"213 212 LINE",
"157 105 LINE",
"146 114 OFFCURVE",
"135 130 OFFCURVE",
"125 154 CURVE",
"95 154 LINE",
"76 121 OFFCURVE",
"55 100 OFFCURVE",
"34 89 CURVE",
"34 59 LINE",
"58 46 OFFCURVE",
"95 12 OFFCURVE",
"104 -12 CURVE",
"134 -12 LINE",
"234 175 LINE",
"292 69 LINE SMOOTH",
"311 36 OFFCURVE",
"327 18 OFFCURVE",
"341 16 CURVE",
"325 -8 LINE",
"352 -23 LINE"
);
}
);
width = 491;
}
);
note = u1D59D;
unicode = 1D59D;
},
{
glyphname = u1D59E;
lastChange = "2017-03-13 20:15:23 +0000";
layers = (
{
layerId = "873A0A4B-B0F6-46C2-B3B5-B41B81B55E35";
paths = (
{
closed = 1;
nodes = (
"385 -35 OFFCURVE",
"448 96 OFFCURVE",
"448 237 CURVE SMOOTH",
"448 268 OFFCURVE",
"445 293 OFFCURVE",
"438 314 CURVE SMOOTH",
"425 358 OFFCURVE",
"397 407 OFFCURVE",
"372 438 CURVE",
"359 453 OFFCURVE",
"353 462 OFFCURVE",
"353 467 CURVE SMOOTH",
"353 476 OFFCURVE",
"357 482 OFFCURVE",
"364 487 CURVE",
"343 509 LINE",
"196 400 LINE",
"196 399 LINE",
"193 410 OFFCURVE",
"183 425 OFFCURVE",
"167 443 CURVE",
"150 460 OFFCURVE",
"142 475 OFFCURVE",
"142 487 CURVE SMOOTH",
"142 495 OFFCURVE",
"147 507 OFFCURVE",
"157 523 CURVE",
"132 539 LINE",
"68 475 OFFCURVE",
"36 435 OFFCURVE",
"36 420 CURVE SMOOTH",
"36 414 OFFCURVE",
"38 408 OFFCURVE",
"42 403 CURVE SMOOTH",
"57 384 LINE SMOOTH",
"71 365 OFFCURVE",
"79 348 OFFCURVE",
"80 331 CURVE",
"80 119 LINE SMOOTH",
"80 94 OFFCURVE",
"68 68 OFFCURVE",
"47 68 CURVE",
"47 38 LINE",
"92 21 OFFCURVE",
"118 0 OFFCURVE",
"127 -23 CURVE",
"157 -23 LINE",
"274 98 LINE",
"253 120 LINE",
"226 97 LINE",
"207 97 OFFCURVE",
"197 110 OFFCURVE",
"197 135 CURVE",
"196 357 LINE",
"252 399 LINE",
"316 322 OFFCURVE",
"340 256 OFFCURVE",
"340 177 CURVE SMOOTH",
"340 44 OFFCURVE",
"307 -48 OFFCURVE",
"208 -183 CURVE",
"232 -200 LINE"
);
}
);
width = 471;
}
);
note = u1D59E;
unicode = 1D59E;
},
{
glyphname = u1D59F;
lastChange = "2017-03-13 20:15:23 +0000";
layers = (
{
layerId = "873A0A4B-B0F6-46C2-B3B5-B41B81B55E35";
paths = (
{
closed = 1;
nodes = (
"227 -200 OFFCURVE",
"285 -116 OFFCURVE",
"285 0 CURVE SMOOTH",
"285 64 OFFCURVE",
"267 118 OFFCURVE",
"231 162 CURVE",
"245 169 OFFCURVE",
"260 176 OFFCURVE",
"277 181 CURVE",
"268 210 LINE",
"251 205 OFFCURVE",
"232 198 OFFCURVE",
"211 187 CURVE",
"201 198 OFFCURVE",
"184 213 OFFCURVE",
"161 230 CURVE",
"225 279 OFFCURVE",
"267 335 OFFCURVE",
"267 372 CURVE SMOOTH",
"267 408 OFFCURVE",
"246 437 OFFCURVE",
"203 459 CURVE SMOOTH",
"182 469 OFFCURVE",
"172 478 OFFCURVE",
"172 487 CURVE SMOOTH",
"172 490 OFFCURVE",
"173 493 OFFCURVE",
"176 498 CURVE",
"150 513 LINE",
"31 374 LINE",
"53 354 LINE",
"72 373 OFFCURVE",
"90 382 OFFCURVE",
"108 382 CURVE SMOOTH",
"140 382 OFFCURVE",
"162 355 OFFCURVE",
"162 322 CURVE SMOOTH",
"161 271 OFFCURVE",
"124 236 OFFCURVE",
"49 199 CURVE",
"49 169 LINE",
"79 153 OFFCURVE",
"100 138 OFFCURVE",
"111 125 CURVE",
"48 76 OFFCURVE",
"16 19 OFFCURVE",
"16 -46 CURVE SMOOTH",
"16 -142 OFFCURVE",
"62 -200 OFFCURVE",
"142 -200 CURVE SMOOTH"
);
},
{
closed = 1;
nodes = (
"85 -162 OFFCURVE",
"53 -112 OFFCURVE",
"53 -47 CURVE SMOOTH",
"53 13 OFFCURVE",
"79 62 OFFCURVE",
"132 101 CURVE",
"171 54 OFFCURVE",
"190 3 OFFCURVE",
"190 -53 CURVE SMOOTH",
"190 -120 OFFCURVE",
"165 -162 OFFCURVE",
"128 -162 CURVE SMOOTH"
);
}
);
width = 319;
}
);
note = u1D59F;
unicode = 1D59F;
},
{
glyphname = u1D5A0;
lastChange = "2017-03-13 20:15:23 +0000";
layers = (
{
layerId = "873A0A4B-B0F6-46C2-B3B5-B41B81B55E35";
paths = (
{
closed = 1;
nodes = (
"98 0 LINE",
"175 215 LINE",
"458 215 LINE",
"534 0 LINE",
"640 0 LINE",
"372 719 LINE",
"264 719 LINE",
"-3 0 LINE"
);
},
{
closed = 1;
nodes = (
"318 616 LINE",
"429 299 LINE",
"205 299 LINE"
);
}
);
width = 637;
}
);
note = u1D5A0;
unicode = 1D5A0;
},
{
glyphname = u1D5A1;
lastChange = "2017-03-13 20:15:23 +0000";
layers = (
{
layerId = "873A0A4B-B0F6-46C2-B3B5-B41B81B55E35";
paths = (
{
closed = 1;
nodes = (
"382 0 LINE SMOOTH",
"533 0 OFFCURVE",
"625 83 OFFCURVE",
"625 215 CURVE SMOOTH",
"625 308 OFFCURVE",
"575 372 OFFCURVE",
"488 388 CURVE",
"557 416 OFFCURVE",
"591 468 OFFCURVE",
"591 544 CURVE SMOOTH",
"591 661 OFFCURVE",
"516 719 OFFCURVE",
"367 719 CURVE SMOOTH",
"77 719 LINE",
"77 0 LINE"
);
},
{
closed = 1;
nodes = (
"175 637 LINE",
"354 637 LINE SMOOTH",
"447 637 OFFCURVE",
"493 601 OFFCURVE",
"493 530 CURVE SMOOTH",
"493 451 OFFCURVE",
"446 417 OFFCURVE",
"346 417 CURVE SMOOTH",
"175 417 LINE"
);
},
{
closed = 1;
nodes = (
"175 337 LINE",
"362 337 LINE SMOOTH",
"474 337 OFFCURVE",
"525 300 OFFCURVE",
"525 216 CURVE SMOOTH",
"525 130 OFFCURVE",
"474 87 OFFCURVE",
"373 87 CURVE SMOOTH",
"175 87 LINE"
);
}
);
width = 662;
}
);
note = u1D5A1;
unicode = 1D5A1;
},
{
glyphname = u1D5A2;
lastChange = "2017-03-13 20:15:23 +0000";
layers = (
{
layerId = "873A0A4B-B0F6-46C2-B3B5-B41B81B55E35";
paths = (
{
closed = 1;
nodes = (
"429 -20 OFFCURVE",
"481 -8 OFFCURVE",
"526 16 CURVE SMOOTH",
"616 64 OFFCURVE",
"670 154 OFFCURVE",
"675 267 CURVE",
"580 267 LINE",
"579 228 OFFCURVE",
"569 194 OFFCURVE",
"552 164 CURVE SMOOTH",
"516 103 OFFCURVE",
"454 67 OFFCURVE",
"375 67 CURVE SMOOTH",
"330 67 OFFCURVE",
"291 79 OFFCURVE",
"256 103 CURVE SMOOTH",
"187 150 OFFCURVE",
"146 241 OFFCURVE",
"146 358 CURVE SMOOTH",
"146 545 OFFCURVE",
"231 651 OFFCURVE",
"376 651 CURVE SMOOTH",
"485 651 OFFCURVE",
"555 599 OFFCURVE",
"574 503 CURVE",
"670 503 LINE",
"654 648 OFFCURVE",
"543 738 OFFCURVE",
"380 738 CURVE SMOOTH",
"313 738 OFFCURVE",
"254 723 OFFCURVE",
"204 693 CURVE SMOOTH",
"103 632 OFFCURVE",
"46 518 OFFCURVE",
"46 370 CURVE SMOOTH",
"46 289 OFFCURVE",
"59 220 OFFCURVE",
"85 161 CURVE SMOOTH",
"136 44 OFFCURVE",
"235 -20 OFFCURVE",
"370 -20 CURVE SMOOTH"
);
}
);
width = 713;
}
);
note = u1D5A2;
unicode = 1D5A2;
},
{
glyphname = u1D5A3;
lastChange = "2017-03-13 20:15:23 +0000";
layers = (
{
layerId = "873A0A4B-B0F6-46C2-B3B5-B41B81B55E35";
paths = (
{
closed = 1;
nodes = (
"347 0 LINE SMOOTH",
"546 0 OFFCURVE",
"661 137 OFFCURVE",
"661 370 CURVE SMOOTH",
"661 598 OFFCURVE",
"554 719 OFFCURVE",
"351 719 CURVE SMOOTH",
"77 719 LINE",
"77 0 LINE"
);
},
{
closed = 1;
nodes = (
"175 636 LINE",
"343 636 LINE SMOOTH",
"486 636 OFFCURVE",
"561 542 OFFCURVE",
"561 365 CURVE SMOOTH",
"561 180 OFFCURVE",
"488 88 OFFCURVE",
"343 88 CURVE SMOOTH",
"175 88 LINE"
);
}
);
width = 707;
}
);
note = u1D5A3;
unicode = 1D5A3;
},
{
glyphname = u1D5A4;
lastChange = "2017-03-13 20:15:23 +0000";
layers = (
{
layerId = "873A0A4B-B0F6-46C2-B3B5-B41B81B55E35";
paths = (
{
closed = 1;
nodes = (
"598 0 LINE",
"598 90 LINE",
"174 90 LINE",
"174 331 LINE",
"558 331 LINE",
"558 415 LINE",
"174 415 LINE",
"174 630 LINE",
"590 630 LINE",
"590 719 LINE",
"77 719 LINE",
"77 0 LINE"
);
}
);
width = 639;
}
);
note = u1D5A4;
unicode = 1D5A4;
},
{
glyphname = u1D5A5;
lastChange = "2017-03-13 20:15:23 +0000";
layers = (
{
layerId = "873A0A4B-B0F6-46C2-B3B5-B41B81B55E35";
paths = (
{
closed = 1;
nodes = (
"175 0 LINE",
"175 325 LINE",
"511 325 LINE",
"511 413 LINE",
"175 413 LINE",
"175 629 LINE",
"560 629 LINE",
"560 719 LINE",
"77 719 LINE",
"77 0 LINE"
);
}
);
width = 583;
}
);
note = u1D5A5;
unicode = 1D5A5;
},
{
glyphname = u1D5A6;
lastChange = "2017-03-13 20:15:23 +0000";
layers = (
{
layerId = "873A0A4B-B0F6-46C2-B3B5-B41B81B55E35";
paths = (
{
closed = 1;
nodes = (
"476 -20 OFFCURVE",
"557 19 OFFCURVE",
"615 96 CURVE",
"636 0 LINE",
"700 0 LINE",
"700 388 LINE",
"385 388 LINE",
"385 307 LINE",
"610 307 LINE",
"610 298 LINE SMOOTH",
"610 251 OFFCURVE",
"601 211 OFFCURVE",
"582 177 CURVE SMOOTH",
"545 108 OFFCURVE",
"475 69 OFFCURVE",
"387 69 CURVE SMOOTH",
"236 69 OFFCURVE",
"147 181 OFFCURVE",
"147 362 CURVE SMOOTH",
"147 549 OFFCURVE",
"235 654 OFFCURVE",
"394 654 CURVE SMOOTH",
"503 654 OFFCURVE",
"576 599 OFFCURVE",
"593 502 CURVE",
"688 502 LINE",
"667 651 OFFCURVE",
"559 738 OFFCURVE",
"394 738 CURVE SMOOTH",
"323 738 OFFCURVE",
"261 723 OFFCURVE",
"209 692 CURVE SMOOTH",
"104 630 OFFCURVE",
"46 513 OFFCURVE",
"46 358 CURVE SMOOTH",
"46 285 OFFCURVE",
"60 219 OFFCURVE",
"87 162 CURVE SMOOTH",
"142 47 OFFCURVE",
"245 -20 OFFCURVE",
"373 -20 CURVE SMOOTH"
);
}
);
width = 764;
}
);
note = u1D5A6;
unicode = 1D5A6;
},
{
glyphname = u1D5A7;
lastChange = "2017-03-13 20:15:23 +0000";
layers = (
{
layerId = "873A0A4B-B0F6-46C2-B3B5-B41B81B55E35";
paths = (
{
closed = 1;
nodes = (
"175 0 LINE",
"175 337 LINE",
"548 337 LINE",
"548 0 LINE",
"646 0 LINE",
"646 719 LINE",
"548 719 LINE",
"548 424 LINE",
"175 424 LINE",
"175 719 LINE",
"77 719 LINE",
"77 0 LINE"
);
}
);
width = 723;
}
);
note = u1D5A7;
unicode = 1D5A7;
},
{
glyphname = u1D5A8;
lastChange = "2017-03-13 20:15:23 +0000";
layers = (
{
layerId = "873A0A4B-B0F6-46C2-B3B5-B41B81B55E35";
paths = (
{
closed = 1;
nodes = (
"177 0 LINE",
"177 719 LINE",
"79 719 LINE",
"79 0 LINE"
);
}
);
width = 257;
}
);
note = u1D5A8;
unicode = 1D5A8;
},
{
glyphname = u1D5A9;
lastChange = "2017-03-13 20:15:23 +0000";
layers = (
{
layerId = "873A0A4B-B0F6-46C2-B3B5-B41B81B55E35";
paths = (
{
closed = 1;
nodes = (
"370 -19 OFFCURVE",
"435 50 OFFCURVE",
"435 199 CURVE SMOOTH",
"435 719 LINE",
"337 719 LINE",
"337 239 LINE SMOOTH",
"337 195 OFFCURVE",
"335 162 OFFCURVE",
"331 141 CURVE SMOOTH",
"322 97 OFFCURVE",
"282 68 OFFCURVE",
"225 68 CURVE SMOOTH",
"145 68 OFFCURVE",
"112 108 OFFCURVE",
"112 203 CURVE SMOOTH",
"112 218 LINE",
"113 233 LINE",
"19 233 LINE",
"18 218 LINE",
"18 202 LINE SMOOTH",
"18 55 OFFCURVE",
"88 -19 OFFCURVE",
"227 -19 CURVE SMOOTH"
);
}
);
width = 505;
}
);
note = u1D5A9;
unicode = 1D5A9;
},
{
glyphname = u1D5AA;
lastChange = "2017-03-13 20:15:23 +0000";
layers = (
{
layerId = "873A0A4B-B0F6-46C2-B3B5-B41B81B55E35";
paths = (
{
closed = 1;
nodes = (
"174 0 LINE",
"174 252 LINE",
"285 361 LINE",
"537 0 LINE",
"658 0 LINE",
"356 431 LINE",
"650 719 LINE",
"520 719 LINE",
"174 372 LINE",
"174 719 LINE",
"77 719 LINE",
"77 0 LINE"
);
}
);
width = 638;
}
);
note = u1D5AA;
unicode = 1D5AA;
},
{
glyphname = u1D5AB;
lastChange = "2017-03-13 20:15:23 +0000";
layers = (
{
layerId = "873A0A4B-B0F6-46C2-B3B5-B41B81B55E35";
paths = (
{
closed = 1;
nodes = (
"534 0 LINE",
"534 91 LINE",
"176 91 LINE",
"176 719 LINE",
"77 719 LINE",
"77 0 LINE"
);
}
);
width = 535;
}
);
note = u1D5AB;
unicode = 1D5AB;
},
{
glyphname = u1D5AC;
lastChange = "2017-03-13 20:15:23 +0000";
layers = (
{
layerId = "873A0A4B-B0F6-46C2-B3B5-B41B81B55E35";
paths = (
{
closed = 1;
nodes = (
"167 0 LINE",
"167 613 LINE",
"170 599 OFFCURVE",
"175 578 OFFCURVE",
"183 550 CURVE",
"364 0 LINE",
"456 0 LINE",
"581 369 OFFCURVE",
"645 562 OFFCURVE",
"650 580 CURVE",
"651 587 OFFCURVE",
"654 598 OFFCURVE",
"658 613 CURVE",
"658 0 LINE",
"753 0 LINE",
"753 719 LINE",
"613 719 LINE",
"420 141 LINE",
"412 110 LINE",
"411 117 OFFCURVE",
"405 136 OFFCURVE",
"395 169 CURVE SMOOTH",
"217 719 LINE",
"77 719 LINE",
"77 0 LINE"
);
}
);
width = 830;
}
);
note = u1D5AC;
unicode = 1D5AC;
},
{
glyphname = u1D5AD;
lastChange = "2017-03-13 20:15:23 +0000";
layers = (
{
layerId = "873A0A4B-B0F6-46C2-B3B5-B41B81B55E35";
paths = (
{
closed = 1;
nodes = (
"169 0 LINE",
"169 583 LINE",
"175 567 OFFCURVE",
"184 549 OFFCURVE",
"196 530 CURVE SMOOTH",
"539 0 LINE",
"645 0 LINE",
"645 719 LINE",
"552 719 LINE",
"552 136 LINE",
"542 160 OFFCURVE",
"531 180 OFFCURVE",
"519 197 CURVE",
"183 719 LINE",
"76 719 LINE",
"76 0 LINE"
);
}
);
width = 721;
}
);
note = u1D5AD;
unicode = 1D5AD;
},
{
glyphname = u1D5AE;
lastChange = "2017-03-13 20:15:23 +0000";
layers = (
{
layerId = "873A0A4B-B0F6-46C2-B3B5-B41B81B55E35";
paths = (
{
closed = 1;
nodes = (
"458 -20 OFFCURVE",
"519 -5 OFFCURVE",
"570 26 CURVE SMOOTH",
"672 86 OFFCURVE",
"727 202 OFFCURVE",
"727 359 CURVE SMOOTH",
"727 438 OFFCURVE",
"714 506 OFFCURVE",
"687 563 CURVE SMOOTH",
"633 677 OFFCURVE",
"527 738 OFFCURVE",
"387 738 CURVE SMOOTH",
"316 738 OFFCURVE",
"256 723 OFFCURVE",
"205 693 CURVE SMOOTH",
"103 633 OFFCURVE",
"46 516 OFFCURVE",
"46 359 CURVE SMOOTH",
"46 280 OFFCURVE",
"60 213 OFFCURVE",
"87 156 CURVE SMOOTH",
"142 42 OFFCURVE",
"247 -20 OFFCURVE",
"387 -20 CURVE SMOOTH"
);
},
{
closed = 1;
nodes = (
"236 65 OFFCURVE",
"147 172 OFFCURVE",
"147 359 CURVE SMOOTH",
"147 546 OFFCURVE",
"236 653 OFFCURVE",
"387 653 CURVE SMOOTH",
"536 653 OFFCURVE",
"626 546 OFFCURVE",
"626 359 CURVE SMOOTH",
"626 172 OFFCURVE",
"536 65 OFFCURVE",
"387 65 CURVE SMOOTH"
);
}
);
width = 773;
}
);
note = u1D5AE;
unicode = 1D5AE;
},
{
glyphname = u1D5AF;
lastChange = "2017-03-13 20:15:23 +0000";
layers = (
{
layerId = "873A0A4B-B0F6-46C2-B3B5-B41B81B55E35";
paths = (
{
closed = 1;
nodes = (
"175 0 LINE",
"175 303 LINE",
"323 303 LINE SMOOTH",
"390 303 OFFCURVE",
"440 308 OFFCURVE",
"473 319 CURVE SMOOTH",
"540 343 OFFCURVE",
"591 411 OFFCURVE",
"591 511 CURVE SMOOTH",
"591 560 OFFCURVE",
"582 600 OFFCURVE",
"563 631 CURVE SMOOTH",
"550 653 OFFCURVE",
"534 670 OFFCURVE",
"517 683 CURVE",
"482 707 OFFCURVE",
"430 719 OFFCURVE",
"342 719 CURVE SMOOTH",
"77 719 LINE",
"77 0 LINE"
);
},
{
closed = 1;
nodes = (
"175 631 LINE",
"346 631 LINE SMOOTH",
"450 631 OFFCURVE",
"492 598 OFFCURVE",
"492 511 CURVE SMOOTH",
"492 423 OFFCURVE",
"452 390 OFFCURVE",
"339 390 CURVE SMOOTH",
"175 390 LINE"
);
}
);
width = 630;
}
);
note = u1D5AF;
unicode = 1D5AF;
},
{
glyphname = u1D5B0;
lastChange = "2017-03-13 20:15:23 +0000";
layers = (
{
layerId = "873A0A4B-B0F6-46C2-B3B5-B41B81B55E35";
paths = (
{
closed = 1;
nodes = (
"720 4 LINE",
"634 76 LINE",
"696 149 OFFCURVE",
"727 244 OFFCURVE",
"727 359 CURVE SMOOTH",
"727 437 OFFCURVE",
"713 505 OFFCURVE",
"686 562 CURVE SMOOTH",
"631 676 OFFCURVE",
"527 738 OFFCURVE",
"387 738 CURVE SMOOTH",
"316 738 OFFCURVE",
"256 723 OFFCURVE",
"205 693 CURVE SMOOTH",
"103 633 OFFCURVE",
"46 516 OFFCURVE",
"46 359 CURVE SMOOTH",
"46 280 OFFCURVE",
"60 213 OFFCURVE",
"87 156 CURVE SMOOTH",
"142 42 OFFCURVE",
"247 -20 OFFCURVE",
"387 -20 CURVE SMOOTH",
"455 -20 OFFCURVE",
"516 -5 OFFCURVE",
"571 26 CURVE",
"672 -57 LINE"
);
},
{
closed = 1;
nodes = (
"236 65 OFFCURVE",
"147 172 OFFCURVE",
"147 359 CURVE SMOOTH",
"147 546 OFFCURVE",
"236 653 OFFCURVE",
"387 653 CURVE SMOOTH",
"536 653 OFFCURVE",
"626 546 OFFCURVE",
"626 359 CURVE SMOOTH",
"626 260 OFFCURVE",
"603 186 OFFCURVE",
"557 136 CURVE",
"461 215 LINE",
"413 154 LINE",
"492 88 LINE",
"460 73 OFFCURVE",
"425 65 OFFCURVE",
"387 65 CURVE SMOOTH"
);
}
);
width = 773;
}
);
note = u1D5B0;
unicode = 1D5B0;
},
{
glyphname = u1D5B1;
lastChange = "2017-03-13 20:15:23 +0000";
layers = (
{
layerId = "873A0A4B-B0F6-46C2-B3B5-B41B81B55E35";
paths = (
{
closed = 1;
nodes = (
"174 0 LINE",
"174 308 LINE",
"332 308 LINE SMOOTH",
"376 308 OFFCURVE",
"409 306 OFFCURVE",
"432 301 CURVE SMOOTH",
"454 296 OFFCURVE",
"469 285 OFFCURVE",
"477 268 CURVE SMOOTH",
"490 240 OFFCURVE",
"494 192 OFFCURVE",
"498 105 CURVE SMOOTH",
"500 76 LINE",
"501 40 OFFCURVE",
"507 15 OFFCURVE",
"517 0 CURVE",
"630 0 LINE",
"630 20 LINE",
"611 30 OFFCURVE",
"600 58 OFFCURVE",
"597 104 CURVE SMOOTH",
"589 222 LINE SMOOTH",
"584 311 OFFCURVE",
"563 340 OFFCURVE",
"507 356 CURVE",
"573 387 OFFCURVE",
"606 442 OFFCURVE",
"606 520 CURVE SMOOTH",
"606 566 OFFCURVE",
"596 604 OFFCURVE",
"577 633 CURVE SMOOTH",
"564 654 OFFCURVE",
"549 671 OFFCURVE",
"533 683 CURVE SMOOTH",
"500 707 OFFCURVE",
"448 719 OFFCURVE",
"356 719 CURVE SMOOTH",
"77 719 LINE",
"77 0 LINE"
);
},
{
closed = 1;
nodes = (
"173 635 LINE",
"340 635 LINE SMOOTH",
"383 635 OFFCURVE",
"416 631 OFFCURVE",
"440 624 CURVE",
"488 608 OFFCURVE",
"505 575 OFFCURVE",
"505 518 CURVE SMOOTH",
"505 423 OFFCURVE",
"456 391 OFFCURVE",
"340 391 CURVE SMOOTH",
"173 391 LINE"
);
}
);
width = 664;
}
);
note = u1D5B1;
unicode = 1D5B1;
},
{
glyphname = u1D5B2;
lastChange = "2017-03-13 20:15:23 +0000";
layers = (
{
layerId = "873A0A4B-B0F6-46C2-B3B5-B41B81B55E35";
paths = (
{
closed = 1;
nodes = (
"383 -19 OFFCURVE",
"432 -10 OFFCURVE",
"474 9 CURVE SMOOTH",
"557 46 OFFCURVE",
"602 117 OFFCURVE",
"602 208 CURVE SMOOTH",
"602 296 OFFCURVE",
"556 343 OFFCURVE",
"512 366 CURVE SMOOTH",
"468 389 OFFCURVE",
"427 398 OFFCURVE",
"316 422 CURVE SMOOTH",
"273 431 OFFCURVE",
"240 441 OFFCURVE",
"218 451 CURVE SMOOTH",
"174 470 OFFCURVE",
"160 495 OFFCURVE",
"160 542 CURVE SMOOTH",
"160 611 OFFCURVE",
"221 657 OFFCURVE",
"318 657 CURVE SMOOTH",
"421 657 OFFCURVE",
"481 604 OFFCURVE",
"488 508 CURVE",
"581 508 LINE",
"580 652 OFFCURVE",
"484 738 OFFCURVE",
"324 738 CURVE SMOOTH",
"273 738 OFFCURVE",
"228 729 OFFCURVE",
"189 712 CURVE SMOOTH",
"112 676 OFFCURVE",
"67 610 OFFCURVE",
"67 525 CURVE SMOOTH",
"67 486 OFFCURVE",
"75 455 OFFCURVE",
"92 430 CURVE SMOOTH",
"124 381 OFFCURVE",
"192 353 OFFCURVE",
"340 318 CURVE SMOOTH",
"411 302 OFFCURVE",
"456 286 OFFCURVE",
"476 269 CURVE SMOOTH",
"495 252 OFFCURVE",
"505 228 OFFCURVE",
"505 197 CURVE SMOOTH",
"505 116 OFFCURVE",
"438 66 OFFCURVE",
"325 66 CURVE SMOOTH",
"212 66 OFFCURVE",
"141 132 OFFCURVE",
"138 237 CURVE",
"44 237 LINE",
"49 70 OFFCURVE",
"150 -19 OFFCURVE",
"326 -19 CURVE SMOOTH"
);
}
);
width = 646;
}
);
note = u1D5B2;
unicode = 1D5B2;
},
{
glyphname = u1D5B3;
lastChange = "2017-03-13 20:15:23 +0000";
layers = (
{
layerId = "873A0A4B-B0F6-46C2-B3B5-B41B81B55E35";
paths = (
{
closed = 1;
nodes = (
"334 0 LINE",
"334 632 LINE",
"561 632 LINE",
"561 719 LINE",
"9 719 LINE",
"9 632 LINE",
"236 632 LINE",
"236 0 LINE"
);
}
);
width = 571;
}
);
note = u1D5B3;
unicode = 1D5B3;
},
{
glyphname = u1D5B4;
lastChange = "2017-03-13 20:15:23 +0000";
layers = (
{
layerId = "873A0A4B-B0F6-46C2-B3B5-B41B81B55E35";
paths = (
{
closed = 1;
nodes = (
"538 -20 OFFCURVE",
"636 78 OFFCURVE",
"636 273 CURVE SMOOTH",
"636 719 LINE",
"538 719 LINE",
"538 272 LINE SMOOTH",
"538 140 OFFCURVE",
"477 74 OFFCURVE",
"354 74 CURVE SMOOTH",
"227 74 OFFCURVE",
"171 136 OFFCURVE",
"171 272 CURVE SMOOTH",
"171 719 LINE",
"73 719 LINE",
"73 273 LINE SMOOTH",
"73 78 OFFCURVE",
"163 -20 OFFCURVE",
"343 -20 CURVE SMOOTH"
);
}
);
width = 709;
}
);
note = u1D5B4;
unicode = 1D5B4;
},
{
glyphname = u1D5B5;
lastChange = "2017-03-13 20:15:23 +0000";
layers = (
{
layerId = "873A0A4B-B0F6-46C2-B3B5-B41B81B55E35";
paths = (
{
closed = 1;
nodes = (
"358 0 LINE",
"611 719 LINE",
"509 719 LINE",
"308 117 LINE",
"101 719 LINE",
"0 719 LINE",
"256 0 LINE"
);
}
);
width = 611;
}
);
note = u1D5B5;
unicode = 1D5B5;
},
{
glyphname = u1D5B6;
lastChange = "2017-03-13 20:15:23 +0000";
layers = (
{
layerId = "873A0A4B-B0F6-46C2-B3B5-B41B81B55E35";
paths = (
{
closed = 1;
nodes = (
"292 0 LINE",
"449 593 LINE",
"613 0 LINE",
"709 0 LINE",
"900 719 LINE",
"807 719 LINE",
"658 148 LINE",
"501 719 LINE",
"399 719 LINE",
"247 144 LINE",
"100 719 LINE",
"5 719 LINE",
"192 0 LINE"
);
}
);
width = 904;
}
);
note = u1D5B6;
unicode = 1D5B6;
},
{
glyphname = u1D5B7;
lastChange = "2017-03-13 20:15:23 +0000";
layers = (
{
layerId = "873A0A4B-B0F6-46C2-B3B5-B41B81B55E35";
paths = (
{
closed = 1;
nodes = (
"119 0 LINE",
"300 291 LINE",
"485 0 LINE",
"605 0 LINE",
"358 370 LINE",
"592 719 LINE",
"478 719 LINE",
"304 453 LINE",
"133 719 LINE",
"13 719 LINE",
"247 368 LINE",
"0 0 LINE"
);
}
);
width = 605;
}
);
note = u1D5B7;
unicode = 1D5B7;
},
{
glyphname = u1D5B8;
lastChange = "2017-03-13 20:15:23 +0000";
layers = (
{
layerId = "873A0A4B-B0F6-46C2-B3B5-B41B81B55E35";
paths = (
{
closed = 1;
nodes = (
"356 0 LINE",
"356 295 LINE",
"612 719 LINE",
"497 719 LINE",
"306 379 LINE",
"114 719 LINE",
"-9 719 LINE",
"258 288 LINE",
"258 0 LINE"
);
}
);
width = 603;
}
);
note = u1D5B8;
unicode = 1D5B8;
},
{
glyphname = u1D5B9;
lastChange = "2017-03-13 20:15:23 +0000";
layers = (
{
layerId = "873A0A4B-B0F6-46C2-B3B5-B41B81B55E35";
paths = (
{
closed = 1;
nodes = (
"581 0 LINE",
"581 88 LINE",
"150 88 LINE",
"581 629 LINE",
"581 719 LINE",
"57 719 LINE",
"57 634 LINE",
"468 634 LINE",
"28 81 LINE",
"28 0 LINE"
);
}
);
width = 598;
}
);
note = u1D5B9;
unicode = 1D5B9;
},
{
glyphname = u1D5BA;
lastChange = "2017-03-13 20:15:23 +0000";
layers = (
{
layerId = "873A0A4B-B0F6-46C2-B3B5-B41B81B55E35";
paths = (
{
closed = 1;
nodes = (
"274 -16 OFFCURVE",
"336 13 OFFCURVE",
"390 70 CURVE",
"390 67 LINE SMOOTH",
"390 16 OFFCURVE",
"419 -10 OFFCURVE",
"478 -10 CURVE SMOOTH",
"492 -10 OFFCURVE",
"509 -7 OFFCURVE",
"529 -2 CURVE",
"529 66 LINE",
"506 63 LINE",
"478 63 OFFCURVE",
"472 76 OFFCURVE",
"472 116 CURVE SMOOTH",
"472 378 LINE SMOOTH",
"472 490 OFFCURVE",
"409 540 OFFCURVE",
"268 540 CURVE SMOOTH",
"136 540 OFFCURVE",
"59 476 OFFCURVE",
"59 369 CURVE SMOOTH",
"59 365 LINE",
"142 365 LINE",
"142 430 OFFCURVE",
"183 462 OFFCURVE",
"265 462 CURVE SMOOTH",
"344 462 OFFCURVE",
"383 435 OFFCURVE",
"383 382 CURVE SMOOTH",
"383 342 OFFCURVE",
"379 336 OFFCURVE",
"359 325 CURVE SMOOTH",
"350 320 OFFCURVE",
"332 317 OFFCURVE",
"305 315 CURVE",
"214 305 LINE SMOOTH",
"95 291 OFFCURVE",
"35 236 OFFCURVE",
"35 141 CURVE SMOOTH",
"35 42 OFFCURVE",
"97 -16 OFFCURVE",
"205 -16 CURVE SMOOTH"
);
},
{
closed = 1;
nodes = (
"159 61 OFFCURVE",
"126 90 OFFCURVE",
"126 142 CURVE SMOOTH",
"126 168 OFFCURVE",
"134 188 OFFCURVE",
"150 202 CURVE SMOOTH",
"181 229 OFFCURVE",
"223 236 OFFCURVE",
"290 241 CURVE SMOOTH",
"327 244 OFFCURVE",
"358 253 OFFCURVE",
"382 266 CURVE",
"382 188 LINE SMOOTH",
"382 113 OFFCURVE",
"316 61 OFFCURVE",
"220 61 CURVE SMOOTH"
);
}
);
width = 543;
}
);
note = u1D5BA;
unicode = 1D5BA;
},
{
glyphname = u1D5BB;
lastChange = "2017-03-13 20:15:23 +0000";
layers = (
{
layerId = "873A0A4B-B0F6-46C2-B3B5-B41B81B55E35";
paths = (
{
closed = 1;
nodes = (
"371 -16 OFFCURVE",
"411 -5 OFFCURVE",
"446 18 CURVE SMOOTH",
"515 63 OFFCURVE",
"554 149 OFFCURVE",
"554 260 CURVE SMOOTH",
"554 316 OFFCURVE",
"545 365 OFFCURVE",
"526 408 CURVE SMOOTH",
"488 492 OFFCURVE",
"416 540 OFFCURVE",
"324 540 CURVE SMOOTH",
"251 540 OFFCURVE",
"195 510 OFFCURVE",
"155 450 CURVE",
"155 719 LINE",
"69 719 LINE",
"69 0 LINE",
"155 0 LINE",
"155 66 LINE",
"197 11 OFFCURVE",
"254 -16 OFFCURVE",
"325 -16 CURVE SMOOTH"
);
},
{
closed = 1;
nodes = (
"207 62 OFFCURVE",
"152 133 OFFCURVE",
"152 265 CURVE SMOOTH",
"152 396 OFFCURVE",
"204 461 OFFCURVE",
"307 461 CURVE SMOOTH",
"406 461 OFFCURVE",
"462 389 OFFCURVE",
"462 254 CURVE SMOOTH",
"462 134 OFFCURVE",
"402 62 OFFCURVE",
"306 62 CURVE SMOOTH"
);
}
);
width = 594;
}
);
note = u1D5BB;
unicode = 1D5BB;
},
{
glyphname = u1D5BC;
lastChange = "2017-03-13 20:15:23 +0000";
layers = (
{
layerId = "873A0A4B-B0F6-46C2-B3B5-B41B81B55E35";
paths = (
{
closed = 1;
nodes = (
"409 -16 OFFCURVE",
"493 59 OFFCURVE",
"502 188 CURVE",
"418 188 LINE",
"406 105 OFFCURVE",
"358 64 OFFCURVE",
"274 64 CURVE SMOOTH",
"183 64 OFFCURVE",
"131 135 OFFCURVE",
"131 263 CURVE SMOOTH",
"131 391 OFFCURVE",
"185 461 OFFCURVE",
"280 461 CURVE SMOOTH",
"361 461 OFFCURVE",
"409 421 OFFCURVE",
"414 349 CURVE",
"501 349 LINE",
"496 466 OFFCURVE",
"412 540 OFFCURVE",
"280 540 CURVE SMOOTH",
"131 540 OFFCURVE",
"40 437 OFFCURVE",
"40 260 CURVE SMOOTH",
"40 203 OFFCURVE",
"49 154 OFFCURVE",
"68 113 CURVE SMOOTH",
"105 29 OFFCURVE",
"177 -16 OFFCURVE",
"270 -16 CURVE SMOOTH"
);
}
);
width = 525;
}
);
note = u1D5BC;
unicode = 1D5BC;
},
{
glyphname = u1D5BD;
lastChange = "2017-03-13 20:15:23 +0000";
layers = (
{
layerId = "873A0A4B-B0F6-46C2-B3B5-B41B81B55E35";
paths = (
{
closed = 1;
nodes = (
"338 -16 OFFCURVE",
"395 11 OFFCURVE",
"439 66 CURVE",
"439 0 LINE",
"524 0 LINE",
"524 719 LINE",
"439 719 LINE",
"439 459 LINE",
"397 513 OFFCURVE",
"340 540 OFFCURVE",
"269 540 CURVE SMOOTH",
"224 540 OFFCURVE",
"184 529 OFFCURVE",
"149 506 CURVE SMOOTH",
"80 461 OFFCURVE",
"40 375 OFFCURVE",
"40 260 CURVE SMOOTH",
"40 205 OFFCURVE",
"49 156 OFFCURVE",
"68 115 CURVE SMOOTH",
"105 31 OFFCURVE",
"176 -16 OFFCURVE",
"269 -16 CURVE SMOOTH"
);
},
{
closed = 1;
nodes = (
"191 62 OFFCURVE",
"131 134 OFFCURVE",
"131 254 CURVE SMOOTH",
"131 389 OFFCURVE",
"187 461 OFFCURVE",
"286 461 CURVE SMOOTH",
"390 461 OFFCURVE",
"442 396 OFFCURVE",
"442 265 CURVE SMOOTH",
"442 133 OFFCURVE",
"386 62 OFFCURVE",
"287 62 CURVE SMOOTH"
);
}
);
width = 594;
}
);
note = u1D5BD;
unicode = 1D5BD;
},
{
glyphname = u1D5BE;
lastChange = "2017-03-13 20:15:23 +0000";
layers = (
{
layerId = "873A0A4B-B0F6-46C2-B3B5-B41B81B55E35";
paths = (
{
closed = 1;
nodes = (
"401 -17 OFFCURVE",
"489 53 OFFCURVE",
"506 169 CURVE",
"419 169 LINE",
"404 101 OFFCURVE",
"357 63 OFFCURVE",
"285 63 CURVE SMOOTH",
"190 63 OFFCURVE",
"137 124 OFFCURVE",
"134 236 CURVE",
"512 236 LINE",
"513 256 LINE",
"513 275 LINE SMOOTH",
"513 444 OFFCURVE",
"428 540 OFFCURVE",
"277 540 CURVE SMOOTH",
"132 540 OFFCURVE",
"42 435 OFFCURVE",
"42 256 CURVE SMOOTH",
"42 87 OFFCURVE",
"130 -17 OFFCURVE",
"277 -17 CURVE SMOOTH"
);
},
{
closed = 1;
nodes = (
"142 411 OFFCURVE",
"191 462 OFFCURVE",
"280 462 CURVE SMOOTH",
"369 462 OFFCURVE",
"418 408 OFFCURVE",
"421 309 CURVE",
"134 309 LINE"
);
}
);
width = 547;
}
);
note = u1D5BE;
unicode = 1D5BE;
},
{
glyphname = u1D5BF;
lastChange = "2017-03-13 20:15:23 +0000";
layers = (
{
layerId = "873A0A4B-B0F6-46C2-B3B5-B41B81B55E35";
paths = (
{
closed = 1;
nodes = (
"175 0 LINE",
"175 453 LINE",
"269 453 LINE",
"269 523 LINE",
"175 523 LINE",
"175 567 LINE SMOOTH",
"175 627 OFFCURVE",
"186 649 OFFCURVE",
"230 649 CURVE",
"269 644 LINE",
"269 723 LINE",
"240 728 OFFCURVE",
"219 730 OFFCURVE",
"204 730 CURVE SMOOTH",
"125 730 OFFCURVE",
"86 687 OFFCURVE",
"86 600 CURVE SMOOTH",
"86 523 LINE",
"0 523 LINE",
"0 453 LINE",
"86 453 LINE",
"86 0 LINE"
);
}
);
width = 264;
}
);
note = u1D5BF;
unicode = 1D5BF;
},
{
glyphname = u1D5C0;
lastChange = "2017-03-13 20:15:23 +0000";
layers = (
{
layerId = "873A0A4B-B0F6-46C2-B3B5-B41B81B55E35";
paths = (
{
closed = 1;
nodes = (
"456 -218 OFFCURVE",
"528 -149 OFFCURVE",
"528 11 CURVE SMOOTH",
"528 523 LINE",
"443 523 LINE",
"443 457 LINE",
"399 512 OFFCURVE",
"344 540 OFFCURVE",
"278 540 CURVE SMOOTH",
"231 540 OFFCURVE",
"190 529 OFFCURVE",
"155 506 CURVE SMOOTH",
"83 460 OFFCURVE",
"42 374 OFFCURVE",
"42 263 CURVE SMOOTH",
"42 208 OFFCURVE",
"52 159 OFFCURVE",
"72 117 CURVE SMOOTH",
"111 32 OFFCURVE",
"185 -17 OFFCURVE",
"277 -17 CURVE SMOOTH",
"346 -17 OFFCURVE",
"401 10 OFFCURVE",
"443 64 CURVE",
"443 -8 LINE SMOOTH",
"443 -104 OFFCURVE",
"399 -144 OFFCURVE",
"287 -144 CURVE SMOOTH",
"195 -144 OFFCURVE",
"149 -117 OFFCURVE",
"149 -63 CURVE SMOOTH",
"149 -61 LINE",
"63 -61 LINE",
"63 -65 LINE SMOOTH",
"63 -160 OFFCURVE",
"144 -218 OFFCURVE",
"284 -218 CURVE SMOOTH"
);
},
{
closed = 1;
nodes = (
"192 62 OFFCURVE",
"134 134 OFFCURVE",
"134 261 CURVE SMOOTH",
"134 392 OFFCURVE",
"188 461 OFFCURVE",
"288 461 CURVE SMOOTH",
"393 461 OFFCURVE",
"446 393 OFFCURVE",
"446 258 CURVE SMOOTH",
"446 126 OFFCURVE",
"397 62 OFFCURVE",
"289 62 CURVE SMOOTH"
);
}
);
width = 595;
}
);
note = u1D5C0;
unicode = 1D5C0;
},
{
glyphname = u1D5C1;
lastChange = "2017-03-13 20:15:23 +0000";
layers = (
{
layerId = "873A0A4B-B0F6-46C2-B3B5-B41B81B55E35";
paths = (
{
closed = 1;
nodes = (
"155 0 LINE",
"155 309 LINE SMOOTH",
"155 401 OFFCURVE",
"214 458 OFFCURVE",
"310 458 CURVE SMOOTH",
"336 458 OFFCURVE",
"357 454 OFFCURVE",
"372 446 CURVE SMOOTH",
"402 429 OFFCURVE",
"415 393 OFFCURVE",
"415 322 CURVE SMOOTH",
"415 0 LINE",
"504 0 LINE",
"504 339 LINE SMOOTH",
"504 390 OFFCURVE",
"500 424 OFFCURVE",
"493 442 CURVE SMOOTH",
"486 459 OFFCURVE",
"476 475 OFFCURVE",
"463 488 CURVE",
"436 517 OFFCURVE",
"387 536 OFFCURVE",
"319 536 CURVE SMOOTH",
"243 536 OFFCURVE",
"188 507 OFFCURVE",
"155 449 CURVE",
"155 719 LINE",
"67 719 LINE",
"67 0 LINE"
);
}
);
width = 569;
}
);
note = u1D5C1;
unicode = 1D5C1;
},
{
glyphname = u1D5C2;
lastChange = "2017-03-13 20:15:23 +0000";
layers = (
{
layerId = "873A0A4B-B0F6-46C2-B3B5-B41B81B55E35";
paths = (
{
closed = 1;
nodes = (
"155 619 LINE",
"155 719 LINE",
"67 719 LINE",
"67 619 LINE"
);
},
{
closed = 1;
nodes = (
"155 0 LINE",
"155 523 LINE",
"67 523 LINE",
"67 0 LINE"
);
}
);
width = 222;
}
);
note = u1D5C2;
unicode = 1D5C2;
},
{
glyphname = u1D5C3;
lastChange = "2017-03-13 20:15:23 +0000";
layers = (
{
layerId = "873A0A4B-B0F6-46C2-B3B5-B41B81B55E35";
paths = (
{
closed = 1;
nodes = (
"161 617 LINE",
"161 719 LINE",
"73 719 LINE",
"73 617 LINE"
);
},
{
closed = 1;
nodes = (
"125 -219 OFFCURVE",
"161 -182 OFFCURVE",
"161 -79 CURVE SMOOTH",
"161 523 LINE",
"73 523 LINE",
"73 -67 LINE SMOOTH",
"73 -87 OFFCURVE",
"72 -102 OFFCURVE",
"69 -111 CURVE",
"64 -131 OFFCURVE",
"50 -137 OFFCURVE",
"17 -137 CURVE SMOOTH",
"3 -137 LINE",
"-12 -136 LINE",
"-12 -217 LINE",
"28 -219 LINE"
);
}
);
width = 230;
}
);
note = u1D5C3;
unicode = 1D5C3;
},
{
glyphname = u1D5C4;
lastChange = "2017-03-13 20:15:23 +0000";
layers = (
{
layerId = "873A0A4B-B0F6-46C2-B3B5-B41B81B55E35";
paths = (
{
closed = 1;
nodes = (
"155 0 LINE",
"155 182 LINE",
"247 271 LINE",
"400 0 LINE",
"499 0 LINE",
"306 332 LINE",
"502 523 LINE",
"391 523 LINE",
"155 288 LINE",
"155 719 LINE",
"67 719 LINE",
"67 0 LINE"
);
}
);
width = 517;
}
);
note = u1D5C4;
unicode = 1D5C4;
},
{
glyphname = u1D5C5;
lastChange = "2017-03-13 20:15:23 +0000";
layers = (
{
layerId = "873A0A4B-B0F6-46C2-B3B5-B41B81B55E35";
paths = (
{
closed = 1;
nodes = (
"157 0 LINE",
"157 719 LINE",
"68 719 LINE",
"68 0 LINE"
);
}
);
width = 226;
}
);
note = u1D5C5;
unicode = 1D5C5;
},
{
glyphname = u1D5C6;
lastChange = "2017-03-13 20:15:23 +0000";
layers = (
{
layerId = "873A0A4B-B0F6-46C2-B3B5-B41B81B55E35";
paths = (
{
closed = 1;
nodes = (
"155 0 LINE",
"155 309 LINE SMOOTH",
"155 405 OFFCURVE",
"205 459 OFFCURVE",
"289 459 CURVE SMOOTH",
"360 459 OFFCURVE",
"385 425 OFFCURVE",
"385 322 CURVE SMOOTH",
"385 0 LINE",
"474 0 LINE",
"474 309 LINE SMOOTH",
"474 405 OFFCURVE",
"524 459 OFFCURVE",
"608 459 CURVE SMOOTH",
"680 459 OFFCURVE",
"704 425 OFFCURVE",
"704 322 CURVE SMOOTH",
"704 0 LINE",
"792 0 LINE",
"792 329 LINE SMOOTH",
"792 390 OFFCURVE",
"786 433 OFFCURVE",
"775 458 CURVE",
"751 507 OFFCURVE",
"698 536 OFFCURVE",
"625 536 CURVE SMOOTH",
"557 536 OFFCURVE",
"501 509 OFFCURVE",
"457 454 CURVE",
"424 510 OFFCURVE",
"379 536 OFFCURVE",
"314 536 CURVE SMOOTH",
"243 536 OFFCURVE",
"188 507 OFFCURVE",
"151 449 CURVE",
"151 523 LINE",
"67 523 LINE",
"67 0 LINE"
);
}
);
width = 858;
}
);
note = u1D5C6;
unicode = 1D5C6;
},
{
glyphname = u1D5C7;
lastChange = "2017-03-13 20:15:23 +0000";
layers = (
{
layerId = "873A0A4B-B0F6-46C2-B3B5-B41B81B55E35";
paths = (
{
closed = 1;
nodes = (
"155 0 LINE",
"155 298 LINE SMOOTH",
"155 401 OFFCURVE",
"211 458 OFFCURVE",
"310 458 CURVE SMOOTH",
"391 458 OFFCURVE",
"415 421 OFFCURVE",
"415 322 CURVE SMOOTH",
"415 0 LINE",
"504 0 LINE",
"504 339 LINE SMOOTH",
"504 390 OFFCURVE",
"500 424 OFFCURVE",
"493 442 CURVE SMOOTH",
"486 459 OFFCURVE",
"476 475 OFFCURVE",
"463 488 CURVE",
"436 517 OFFCURVE",
"387 536 OFFCURVE",
"319 536 CURVE SMOOTH",
"246 536 OFFCURVE",
"190 506 OFFCURVE",
"151 447 CURVE",
"151 523 LINE",
"67 523 LINE",
"67 0 LINE"
);
}
);
width = 569;
}
);
note = u1D5C7;
unicode = 1D5C7;
},
{
glyphname = u1D5C8;
lastChange = "2017-03-13 20:15:23 +0000";
layers = (
{
layerId = "873A0A4B-B0F6-46C2-B3B5-B41B81B55E35";
paths = (
{
closed = 1;
nodes = (
"450 -16 OFFCURVE",
"541 83 OFFCURVE",
"541 262 CURVE SMOOTH",
"541 439 OFFCURVE",
"450 540 OFFCURVE",
"290 540 CURVE SMOOTH",
"131 540 OFFCURVE",
"40 439 OFFCURVE",
"40 262 CURVE SMOOTH",
"40 83 OFFCURVE",
"131 -16 OFFCURVE",
"291 -16 CURVE SMOOTH"
);
},
{
closed = 1;
nodes = (
"187 62 OFFCURVE",
"130 131 OFFCURVE",
"130 262 CURVE SMOOTH",
"130 393 OFFCURVE",
"187 462 OFFCURVE",
"291 462 CURVE SMOOTH",
"394 462 OFFCURVE",
"450 393 OFFCURVE",
"450 262 CURVE SMOOTH",
"450 131 OFFCURVE",
"394 62 OFFCURVE",
"291 62 CURVE SMOOTH"
);
}
);
width = 581;
}
);
note = u1D5C8;
unicode = 1D5C8;
},
{
glyphname = u1D5C9;
lastChange = "2017-03-13 20:15:23 +0000";
layers = (
{
layerId = "873A0A4B-B0F6-46C2-B3B5-B41B81B55E35";
paths = (
{
closed = 1;
nodes = (
"155 -209 LINE",
"155 64 LINE",
"195 11 OFFCURVE",
"251 -16 OFFCURVE",
"324 -16 CURVE SMOOTH",
"371 -16 OFFCURVE",
"411 -4 OFFCURVE",
"446 19 CURVE SMOOTH",
"515 65 OFFCURVE",
"554 152 OFFCURVE",
"554 263 CURVE SMOOTH",
"554 318 OFFCURVE",
"545 367 OFFCURVE",
"526 409 CURVE SMOOTH",
"489 493 OFFCURVE",
"418 540 OFFCURVE",
"325 540 CURVE SMOOTH",
"249 540 OFFCURVE",
"198 513 OFFCURVE",
"155 449 CURVE",
"155 523 LINE",
"69 523 LINE",
"69 -209 LINE"
);
},
{
closed = 1;
nodes = (
"204 62 OFFCURVE",
"152 127 OFFCURVE",
"152 258 CURVE SMOOTH",
"152 390 OFFCURVE",
"207 461 OFFCURVE",
"306 461 CURVE SMOOTH",
"402 461 OFFCURVE",
"462 389 OFFCURVE",
"462 269 CURVE SMOOTH",
"462 134 OFFCURVE",
"406 62 OFFCURVE",
"307 62 CURVE SMOOTH"
);
}
);
width = 594;
}
);
note = u1D5C9;
unicode = 1D5C9;
},
{
glyphname = u1D5CA;
lastChange = "2017-03-13 20:15:23 +0000";
layers = (
{
layerId = "873A0A4B-B0F6-46C2-B3B5-B41B81B55E35";
paths = (
{
closed = 1;
nodes = (
"524 -209 LINE",
"524 523 LINE",
"439 523 LINE",
"439 452 LINE",
"397 511 OFFCURVE",
"340 540 OFFCURVE",
"269 540 CURVE SMOOTH",
"223 540 OFFCURVE",
"183 529 OFFCURVE",
"148 506 CURVE SMOOTH",
"79 461 OFFCURVE",
"40 375 OFFCURVE",
"40 263 CURVE SMOOTH",
"40 206 OFFCURVE",
"49 157 OFFCURVE",
"68 115 CURVE SMOOTH",
"105 31 OFFCURVE",
"177 -16 OFFCURVE",
"269 -16 CURVE SMOOTH",
"348 -16 OFFCURVE",
"404 12 OFFCURVE",
"439 69 CURVE",
"439 -209 LINE"
);
},
{
closed = 1;
nodes = (
"190 61 OFFCURVE",
"131 134 OFFCURVE",
"131 269 CURVE SMOOTH",
"131 389 OFFCURVE",
"191 461 OFFCURVE",
"288 461 CURVE SMOOTH",
"385 461 OFFCURVE",
"442 389 OFFCURVE",
"442 262 CURVE SMOOTH",
"442 131 OFFCURVE",
"387 61 OFFCURVE",
"291 61 CURVE SMOOTH"
);
}
);
width = 594;
}
);
note = u1D5CA;
unicode = 1D5CA;
},
{
glyphname = u1D5CB;
lastChange = "2017-03-13 20:15:23 +0000";
layers = (
{
layerId = "873A0A4B-B0F6-46C2-B3B5-B41B81B55E35";
paths = (
{
closed = 1;
nodes = (
"155 0 LINE",
"155 291 LINE SMOOTH",
"155 391 OFFCURVE",
"203 441 OFFCURVE",
"299 441 CURVE SMOOTH",
"310 441 LINE",
"320 440 LINE",
"320 533 LINE",
"309 534 LINE",
"297 534 LINE SMOOTH",
"228 534 OFFCURVE",
"179 499 OFFCURVE",
"152 429 CURVE",
"152 523 LINE",
"67 523 LINE",
"67 0 LINE"
);
}
);
width = 332;
}
);
note = u1D5CB;
unicode = 1D5CB;
},
{
glyphname = u1D5CC;
lastChange = "2017-03-13 20:15:23 +0000";
layers = (
{
layerId = "873A0A4B-B0F6-46C2-B3B5-B41B81B55E35";
paths = (
{
closed = 1;
nodes = (
"381 -16 OFFCURVE",
"459 47 OFFCURVE",
"459 156 CURVE SMOOTH",
"459 239 OFFCURVE",
"417 279 OFFCURVE",
"300 306 CURVE SMOOTH",
"215 326 LINE SMOOTH",
"155 339 OFFCURVE",
"133 354 OFFCURVE",
"133 391 CURVE SMOOTH",
"133 440 OFFCURVE",
"169 464 OFFCURVE",
"241 464 CURVE SMOOTH",
"313 464 OFFCURVE",
"356 433 OFFCURVE",
"359 377 CURVE",
"445 377 LINE",
"445 379 LINE SMOOTH",
"445 478 OFFCURVE",
"366 539 OFFCURVE",
"241 539 CURVE SMOOTH",
"117 539 OFFCURVE",
"45 480 OFFCURVE",
"45 388 CURVE SMOOTH",
"45 304 OFFCURVE",
"85 266 OFFCURVE",
"193 241 CURVE SMOOTH",
"291 216 LINE SMOOTH",
"350 203 OFFCURVE",
"371 186 OFFCURVE",
"371 145 CURVE SMOOTH",
"371 93 OFFCURVE",
"326 62 OFFCURVE",
"249 62 CURVE SMOOTH",
"166 62 OFFCURVE",
"122 98 OFFCURVE",
"116 170 CURVE",
"31 170 LINE",
"34 49 OFFCURVE",
"106 -16 OFFCURVE",
"241 -16 CURVE SMOOTH"
);
}
);
width = 496;
}
);
note = u1D5CC;
unicode = 1D5CC;
},
{
glyphname = u1D5CD;
lastChange = "2017-03-13 20:15:23 +0000";
layers = (
{
layerId = "873A0A4B-B0F6-46C2-B3B5-B41B81B55E35";
paths = (
{
closed = 1;
nodes = (
"210 -7 OFFCURVE",
"233 -4 OFFCURVE",
"264 1 CURVE",
"264 76 LINE",
"217 73 LINE",
"181 73 OFFCURVE",
"170 87 OFFCURVE",
"170 132 CURVE SMOOTH",
"170 453 LINE",
"264 453 LINE",
"264 523 LINE",
"170 523 LINE",
"170 669 LINE",
"82 669 LINE",
"82 523 LINE",
"4 523 LINE",
"4 453 LINE",
"82 453 LINE",
"82 102 LINE SMOOTH",
"82 21 OFFCURVE",
"111 -7 OFFCURVE",
"194 -7 CURVE SMOOTH"
);
}
);
width = 281;
}
);
note = u1D5CD;
unicode = 1D5CD;
},
{
glyphname = u1D5CE;
lastChange = "2017-03-13 20:15:23 +0000";
layers = (
{
layerId = "873A0A4B-B0F6-46C2-B3B5-B41B81B55E35";
paths = (
{
closed = 1;
nodes = (
"324 -13 OFFCURVE",
"381 17 OFFCURVE",
"418 78 CURVE",
"418 0 LINE",
"502 0 LINE",
"502 523 LINE",
"414 523 LINE",
"414 241 LINE SMOOTH",
"414 124 OFFCURVE",
"363 65 OFFCURVE",
"260 65 CURVE SMOOTH",
"179 65 OFFCURVE",
"154 103 OFFCURVE",
"154 202 CURVE SMOOTH",
"154 523 LINE",
"65 523 LINE",
"65 174 LINE SMOOTH",
"65 127 OFFCURVE",
"71 91 OFFCURVE",
"83 67 CURVE SMOOTH",
"108 18 OFFCURVE",
"165 -13 OFFCURVE",
"245 -13 CURVE SMOOTH"
);
}
);
width = 569;
}
);
note = u1D5CE;
unicode = 1D5CE;
},
{
glyphname = u1D5CF;
lastChange = "2017-03-13 20:15:23 +0000";
layers = (
{
layerId = "873A0A4B-B0F6-46C2-B3B5-B41B81B55E35";
paths = (
{
closed = 1;
nodes = (
"287 0 LINE",
"478 523 LINE",
"384 523 LINE",
"241 104 LINE",
"95 523 LINE",
"1 523 LINE",
"194 0 LINE"
);
}
);
width = 481;
}
);
note = u1D5CF;
unicode = 1D5CF;
},
{
glyphname = u1D5D0;
lastChange = "2017-03-13 20:15:23 +0000";
layers = (
{
layerId = "873A0A4B-B0F6-46C2-B3B5-B41B81B55E35";
paths = (
{
closed = 1;
nodes = (
"252 0 LINE",
"363 403 LINE",
"473 0 LINE",
"562 0 LINE",
"721 523 LINE",
"631 523 LINE",
"516 123 LINE",
"414 523 LINE",
"312 523 LINE",
"209 123 LINE",
"98 523 LINE",
"7 523 LINE",
"163 0 LINE"
);
}
);
width = 728;
}
);
note = u1D5D0;
unicode = 1D5D0;
},
{
glyphname = u1D5D1;
lastChange = "2017-03-13 20:15:23 +0000";
layers = (
{
layerId = "873A0A4B-B0F6-46C2-B3B5-B41B81B55E35";
paths = (
{
closed = 1;
nodes = (
"103 0 LINE",
"236 202 LINE",
"373 0 LINE",
"479 0 LINE",
"292 270 LINE",
"468 523 LINE",
"366 523 LINE",
"240 335 LINE",
"112 523 LINE",
"9 523 LINE",
"182 269 LINE",
"0 0 LINE"
);
}
);
width = 479;
}
);
note = u1D5D1;
unicode = 1D5D1;
},
{
glyphname = u1D5D2;
lastChange = "2017-03-13 20:15:23 +0000";
layers = (
{
layerId = "873A0A4B-B0F6-46C2-B3B5-B41B81B55E35";
paths = (
{
closed = 1;
nodes = (
"173 -219 OFFCURVE",
"208 -204 OFFCURVE",
"232 -172 CURVE SMOOTH",
"244 -157 OFFCURVE",
"259 -127 OFFCURVE",
"276 -81 CURVE SMOOTH",
"496 523 LINE",
"398 523 LINE",
"253 100 LINE",
"108 523 LINE",
"10 523 LINE",
"208 -30 LINE",
"185 -92 LINE SMOOTH",
"174 -121 OFFCURVE",
"153 -135 OFFCURVE",
"120 -135 CURVE SMOOTH",
"104 -135 OFFCURVE",
"87 -132 OFFCURVE",
"69 -127 CURVE",
"69 -211 LINE",
"87 -216 OFFCURVE",
"104 -219 OFFCURVE",
"121 -219 CURVE SMOOTH"
);
}
);
width = 507;
}
);
note = u1D5D2;
unicode = 1D5D2;
},
{
glyphname = u1D5D3;
lastChange = "2017-03-13 20:15:23 +0000";
layers = (
{
layerId = "873A0A4B-B0F6-46C2-B3B5-B41B81B55E35";
paths = (
{
closed = 1;
nodes = (
"461 0 LINE",
"461 79 LINE",
"141 79 LINE",
"447 452 LINE",
"447 523 LINE",
"41 523 LINE",
"41 446 LINE",
"334 446 LINE",
"25 72 LINE",
"25 0 LINE"
);
}
);
width = 481;
}
);
note = u1D5D3;
unicode = 1D5D3;
},
{
glyphname = u1D5D4;
lastChange = "2017-03-13 20:15:23 +0000";
layers = (
{
layerId = "873A0A4B-B0F6-46C2-B3B5-B41B81B55E35";
paths = (
{
closed = 1;
nodes = (
"156 0 LINE",
"203 148 LINE",
"482 148 LINE",
"531 0 LINE",
"686 0 LINE",
"427 719 LINE",
"256 719 LINE",
"0 0 LINE"
);
},
{
closed = 1;
nodes = (
"342 575 LINE",
"442 269 LINE",
"242 269 LINE"
);
}
);
width = 686;
}
);
note = u1D5D4;
unicode = 1D5D4;
},
{
glyphname = u1D5D5;
lastChange = "2017-03-13 20:15:23 +0000";
layers = (
{
layerId = "873A0A4B-B0F6-46C2-B3B5-B41B81B55E35";
paths = (
{
closed = 1;
nodes = (
"402 0 LINE SMOOTH",
"570 0 OFFCURVE",
"664 80 OFFCURVE",
"664 219 CURVE SMOOTH",
"664 304 OFFCURVE",
"627 360 OFFCURVE",
"553 389 CURVE",
"610 416 OFFCURVE",
"639 466 OFFCURVE",
"639 537 CURVE SMOOTH",
"639 654 OFFCURVE",
"561 719 OFFCURVE",
"413 719 CURVE SMOOTH",
"74 719 LINE",
"74 0 LINE"
);
},
{
closed = 1;
nodes = (
"216 594 LINE",
"384 594 LINE SMOOTH",
"459 594 OFFCURVE",
"490 574 OFFCURVE",
"490 519 CURVE SMOOTH",
"490 463 OFFCURVE",
"458 441 OFFCURVE",
"385 441 CURVE SMOOTH",
"216 441 LINE"
);
},
{
closed = 1;
nodes = (
"216 318 LINE",
"390 318 LINE SMOOTH",
"475 318 OFFCURVE",
"510 292 OFFCURVE",
"510 223 CURVE SMOOTH",
"510 156 OFFCURVE",
"474 130 OFFCURVE",
"391 130 CURVE SMOOTH",
"216 130 LINE"
);
}
);
width = 704;
}
);
note = u1D5D5;
unicode = 1D5D5;
},
{
glyphname = u1D5D6;
lastChange = "2017-03-13 20:15:23 +0000";
layers = (
{
layerId = "873A0A4B-B0F6-46C2-B3B5-B41B81B55E35";
paths = (
{
closed = 1;
nodes = (
"442 -20 OFFCURVE",
"497 -9 OFFCURVE",
"544 13 CURVE SMOOTH",
"638 57 OFFCURVE",
"693 140 OFFCURVE",
"700 247 CURVE",
"555 247 LINE",
"538 162 OFFCURVE",
"480 114 OFFCURVE",
"389 114 CURVE SMOOTH",
"265 114 OFFCURVE",
"195 202 OFFCURVE",
"195 359 CURVE SMOOTH",
"195 519 OFFCURVE",
"262 606 OFFCURVE",
"394 606 CURVE SMOOTH",
"488 606 OFFCURVE",
"541 564 OFFCURVE",
"553 481 CURVE",
"699 481 LINE",
"688 645 OFFCURVE",
"579 738 OFFCURVE",
"394 738 CURVE SMOOTH",
"166 738 OFFCURVE",
"44 606 OFFCURVE",
"44 359 CURVE SMOOTH",
"44 280 OFFCURVE",
"57 212 OFFCURVE",
"84 155 CURVE SMOOTH",
"136 42 OFFCURVE",
"240 -20 OFFCURVE",
"381 -20 CURVE SMOOTH"
);
}
);
width = 744;
}
);
note = u1D5D6;
unicode = 1D5D6;
},
{
glyphname = u1D5D7;
lastChange = "2017-03-13 20:15:23 +0000";
layers = (
{
layerId = "873A0A4B-B0F6-46C2-B3B5-B41B81B55E35";
paths = (
{
closed = 1;
nodes = (
"316 0 LINE SMOOTH",
"464 0 OFFCURVE",
"533 24 OFFCURVE",
"594 88 CURVE SMOOTH",
"654 151 OFFCURVE",
"684 242 OFFCURVE",
"684 359 CURVE SMOOTH",
"684 603 OFFCURVE",
"577 719 OFFCURVE",
"356 719 CURVE SMOOTH",
"74 719 LINE",
"74 0 LINE"
);
},
{
closed = 1;
nodes = (
"219 593 LINE",
"356 593 LINE SMOOTH",
"479 593 OFFCURVE",
"533 522 OFFCURVE",
"533 359 CURVE SMOOTH",
"533 196 OFFCURVE",
"475 130 OFFCURVE",
"338 130 CURVE SMOOTH",
"219 130 LINE"
);
}
);
width = 727;
}
);
note = u1D5D7;
unicode = 1D5D7;
},
{
glyphname = u1D5D8;
lastChange = "2017-03-13 20:15:23 +0000";
layers = (
{
layerId = "873A0A4B-B0F6-46C2-B3B5-B41B81B55E35";
paths = (
{
closed = 1;
nodes = (
"614 0 LINE",
"614 133 LINE",
"220 133 LINE",
"220 318 LINE",
"564 318 LINE",
"564 441 LINE",
"220 441 LINE",
"220 594 LINE",
"596 594 LINE",
"596 719 LINE",
"74 719 LINE",
"74 0 LINE"
);
}
);
width = 653;
}
);
note = u1D5D8;
unicode = 1D5D8;
},
{
glyphname = u1D5D9;
lastChange = "2017-03-13 20:15:23 +0000";
layers = (
{
layerId = "873A0A4B-B0F6-46C2-B3B5-B41B81B55E35";
paths = (
{
closed = 1;
nodes = (
"220 0 LINE",
"220 306 LINE",
"532 306 LINE",
"532 431 LINE",
"220 431 LINE",
"220 594 LINE",
"576 594 LINE",
"576 719 LINE",
"74 719 LINE",
"74 0 LINE"
);
}
);
width = 598;
}
);
note = u1D5D9;
unicode = 1D5D9;
},
{
glyphname = u1D5DA;
lastChange = "2017-03-13 20:15:23 +0000";
layers = (
{
layerId = "873A0A4B-B0F6-46C2-B3B5-B41B81B55E35";
paths = (
{
closed = 1;
nodes = (
"473 -20 OFFCURVE",
"537 12 OFFCURVE",
"592 85 CURVE",
"610 0 LINE",
"709 0 LINE",
"709 389 LINE",
"411 389 LINE",
"411 266 LINE",
"574 266 LINE",
"559 169 OFFCURVE",
"491 111 OFFCURVE",
"398 111 CURVE SMOOTH",
"273 111 OFFCURVE",
"197 202 OFFCURVE",
"197 361 CURVE SMOOTH",
"197 518 OFFCURVE",
"270 610 OFFCURVE",
"390 610 CURVE SMOOTH",
"482 610 OFFCURVE",
"537 572 OFFCURVE",
"556 495 CURVE",
"707 495 LINE",
"684 648 OFFCURVE",
"564 738 OFFCURVE",
"385 738 CURVE SMOOTH",
"316 738 OFFCURVE",
"256 722 OFFCURVE",
"205 691 CURVE SMOOTH",
"101 628 OFFCURVE",
"43 511 OFFCURVE",
"43 360 CURVE SMOOTH",
"43 285 OFFCURVE",
"57 219 OFFCURVE",
"85 162 CURVE SMOOTH",
"141 46 OFFCURVE",
"248 -20 OFFCURVE",
"381 -20 CURVE SMOOTH"
);
}
);
width = 777;
}
);
note = u1D5DA;
unicode = 1D5DA;
},
{
glyphname = u1D5DB;
lastChange = "2017-03-13 20:15:23 +0000";
layers = (
{
layerId = "873A0A4B-B0F6-46C2-B3B5-B41B81B55E35";
paths = (
{
closed = 1;
nodes = (
"223 0 LINE",
"223 319 LINE",
"520 319 LINE",
"520 0 LINE",
"669 0 LINE",
"669 719 LINE",
"520 719 LINE",
"520 451 LINE",
"223 451 LINE",
"223 719 LINE",
"74 719 LINE",
"74 0 LINE"
);
}
);
width = 743;
}
);
note = u1D5DB;
unicode = 1D5DB;
},
{
glyphname = u1D5DC;
lastChange = "2017-03-13 20:15:23 +0000";
layers = (
{
layerId = "873A0A4B-B0F6-46C2-B3B5-B41B81B55E35";
paths = (
{
closed = 1;
nodes = (
"227 0 LINE",
"227 719 LINE",
"79 719 LINE",
"79 0 LINE"
);
}
);
width = 307;
}
);
note = u1D5DC;
unicode = 1D5DC;
},
{
glyphname = u1D5DD;
lastChange = "2017-03-13 20:15:23 +0000";
layers = (
{
layerId = "873A0A4B-B0F6-46C2-B3B5-B41B81B55E35";
paths = (
{
closed = 1;
nodes = (
"335 -20 OFFCURVE",
"394 -1 OFFCURVE",
"433 36 CURVE SMOOTH",
"446 49 OFFCURVE",
"457 62 OFFCURVE",
"464 75 CURVE SMOOTH",
"478 99 OFFCURVE",
"484 138 OFFCURVE",
"484 211 CURVE SMOOTH",
"484 719 LINE",
"336 719 LINE",
"336 218 LINE SMOOTH",
"336 135 OFFCURVE",
"318 104 OFFCURVE",
"254 104 CURVE SMOOTH",
"196 104 OFFCURVE",
"167 130 OFFCURVE",
"167 181 CURVE SMOOTH",
"167 268 LINE",
"24 268 LINE",
"24 212 LINE SMOOTH",
"24 149 OFFCURVE",
"31 105 OFFCURVE",
"45 79 CURVE SMOOTH",
"76 22 OFFCURVE",
"148 -20 OFFCURVE",
"256 -20 CURVE SMOOTH"
);
}
);
width = 553;
}
);
note = u1D5DD;
unicode = 1D5DD;
},
{
glyphname = u1D5DE;
lastChange = "2017-03-13 20:15:23 +0000";
layers = (
{
layerId = "873A0A4B-B0F6-46C2-B3B5-B41B81B55E35";
paths = (
{
closed = 1;
nodes = (
"222 0 LINE",
"222 253 LINE",
"299 329 LINE",
"533 0 LINE",
"714 0 LINE",
"401 428 LINE",
"688 719 LINE",
"503 719 LINE",
"222 424 LINE",
"222 719 LINE",
"74 719 LINE",
"74 0 LINE"
);
}
);
width = 703;
}
);
note = u1D5DE;
unicode = 1D5DE;
},
{
glyphname = u1D5DF;
lastChange = "2017-03-13 20:15:23 +0000";
layers = (
{
layerId = "873A0A4B-B0F6-46C2-B3B5-B41B81B55E35";
paths = (
{
closed = 1;
nodes = (
"573 0 LINE",
"573 133 LINE",
"222 133 LINE",
"222 719 LINE",
"74 719 LINE",
"74 0 LINE"
);
}
);
width = 580;
}
);
note = u1D5DF;
unicode = 1D5DF;
},
{
glyphname = u1D5E0;
lastChange = "2017-03-13 20:15:23 +0000";
layers = (
{
layerId = "873A0A4B-B0F6-46C2-B3B5-B41B81B55E35";
paths = (
{
closed = 1;
nodes = (
"213 0 LINE",
"213 580 LINE",
"361 0 LINE",
"512 0 LINE",
"658 580 LINE",
"658 0 LINE",
"797 0 LINE",
"797 719 LINE",
"577 719 LINE",
"436 172 LINE",
"293 719 LINE",
"74 719 LINE",
"74 0 LINE"
);
}
);
width = 872;
}
);
note = u1D5E0;
unicode = 1D5E0;
},
{
glyphname = u1D5E1;
lastChange = "2017-03-13 20:15:23 +0000";
layers = (
{
layerId = "873A0A4B-B0F6-46C2-B3B5-B41B81B55E35";
paths = (
{
closed = 1;
nodes = (
"220 0 LINE",
"220 494 LINE",
"514 0 LINE",
"667 0 LINE",
"667 719 LINE",
"521 719 LINE",
"521 225 LINE",
"229 719 LINE",
"74 719 LINE",
"74 0 LINE"
);
}
);
width = 741;
}
);
note = u1D5E1;
unicode = 1D5E1;
},
{
glyphname = u1D5E2;
lastChange = "2017-03-13 20:15:23 +0000";
layers = (
{
layerId = "873A0A4B-B0F6-46C2-B3B5-B41B81B55E35";
paths = (
{
closed = 1;
nodes = (
"465 -20 OFFCURVE",
"528 -4 OFFCURVE",
"581 27 CURVE SMOOTH",
"687 90 OFFCURVE",
"746 207 OFFCURVE",
"746 359 CURVE SMOOTH",
"746 435 OFFCURVE",
"732 502 OFFCURVE",
"704 559 CURVE SMOOTH",
"647 673 OFFCURVE",
"538 738 OFFCURVE",
"394 738 CURVE SMOOTH",
"323 738 OFFCURVE",
"262 723 OFFCURVE",
"209 692 CURVE SMOOTH",
"103 631 OFFCURVE",
"43 514 OFFCURVE",
"43 359 CURVE SMOOTH",
"43 282 OFFCURVE",
"57 215 OFFCURVE",
"86 158 CURVE SMOOTH",
"143 43 OFFCURVE",
"253 -20 OFFCURVE",
"394 -20 CURVE SMOOTH"
);
},
{
closed = 1;
nodes = (
"267 109 OFFCURVE",
"194 199 OFFCURVE",
"194 359 CURVE SMOOTH",
"194 519 OFFCURVE",
"267 609 OFFCURVE",
"394 609 CURVE SMOOTH",
"522 609 OFFCURVE",
"596 520 OFFCURVE",
"596 359 CURVE SMOOTH",
"596 198 OFFCURVE",
"522 109 OFFCURVE",
"394 109 CURVE SMOOTH"
);
}
);
width = 789;
}
);
note = u1D5E2;
unicode = 1D5E2;
},
{
glyphname = u1D5E3;
lastChange = "2017-03-13 20:15:23 +0000";
layers = (
{
layerId = "873A0A4B-B0F6-46C2-B3B5-B41B81B55E35";
paths = (
{
closed = 1;
nodes = (
"222 0 LINE",
"222 256 LINE",
"404 256 LINE SMOOTH",
"547 256 OFFCURVE",
"624 339 OFFCURVE",
"624 488 CURVE SMOOTH",
"624 642 OFFCURVE",
"547 719 OFFCURVE",
"394 719 CURVE SMOOTH",
"74 719 LINE",
"74 0 LINE"
);
},
{
closed = 1;
nodes = (
"222 594 LINE",
"374 594 LINE SMOOTH",
"443 594 OFFCURVE",
"477 559 OFFCURVE",
"477 490 CURVE SMOOTH",
"477 417 OFFCURVE",
"443 386 OFFCURVE",
"366 386 CURVE SMOOTH",
"222 386 LINE"
);
}
);
width = 667;
}
);
note = u1D5E3;
unicode = 1D5E3;
},
{
glyphname = u1D5E4;
lastChange = "2017-03-13 20:15:23 +0000";
layers = (
{
layerId = "873A0A4B-B0F6-46C2-B3B5-B41B81B55E35";
paths = (
{
closed = 1;
nodes = (
"747 34 LINE",
"669 109 LINE",
"720 172 OFFCURVE",
"746 256 OFFCURVE",
"746 359 CURVE SMOOTH",
"746 435 OFFCURVE",
"732 502 OFFCURVE",
"704 559 CURVE SMOOTH",
"647 673 OFFCURVE",
"538 738 OFFCURVE",
"394 738 CURVE SMOOTH",
"323 738 OFFCURVE",
"262 723 OFFCURVE",
"209 692 CURVE SMOOTH",
"103 631 OFFCURVE",
"43 514 OFFCURVE",
"43 359 CURVE SMOOTH",
"43 282 OFFCURVE",
"57 215 OFFCURVE",
"86 158 CURVE SMOOTH",
"143 43 OFFCURVE",
"253 -20 OFFCURVE",
"394 -20 CURVE SMOOTH",
"471 -20 OFFCURVE",
"534 -3 OFFCURVE",
"585 30 CURVE",
"667 -50 LINE"
);
},
{
closed = 1;
nodes = (
"267 109 OFFCURVE",
"194 199 OFFCURVE",
"194 359 CURVE SMOOTH",
"194 519 OFFCURVE",
"267 609 OFFCURVE",
"394 609 CURVE SMOOTH",
"522 609 OFFCURVE",
"596 520 OFFCURVE",
"596 359 CURVE SMOOTH",
"596 300 OFFCURVE",
"585 251 OFFCURVE",
"564 210 CURVE",
"486 286 LINE",
"405 202 LINE",
"481 128 LINE",
"456 115 OFFCURVE",
"427 109 OFFCURVE",
"394 109 CURVE SMOOTH"
);
}
);
width = 789;
}
);
note = u1D5E4;
unicode = 1D5E4;
},
{
glyphname = u1D5E5;
lastChange = "2017-03-13 20:15:23 +0000";
layers = (
{
layerId = "873A0A4B-B0F6-46C2-B3B5-B41B81B55E35";
paths = (
{
closed = 1;
nodes = (
"222 0 LINE",
"222 280 LINE",
"379 280 LINE SMOOTH",
"458 280 OFFCURVE",
"483 253 OFFCURVE",
"486 166 CURVE SMOOTH",
"488 90 LINE SMOOTH",
"489 51 OFFCURVE",
"494 21 OFFCURVE",
"505 0 CURVE",
"667 0 LINE",
"667 22 LINE",
"643 35 OFFCURVE",
"642 50 OFFCURVE",
"639 103 CURVE SMOOTH",
"636 188 LINE SMOOTH",
"633 279 OFFCURVE",
"612 322 OFFCURVE",
"547 345 CURVE",
"618 368 OFFCURVE",
"654 425 OFFCURVE",
"654 515 CURVE SMOOTH",
"654 655 OFFCURVE",
"580 719 OFFCURVE",
"423 719 CURVE SMOOTH",
"74 719 LINE",
"74 0 LINE"
);
},
{
closed = 1;
nodes = (
"222 595 LINE",
"403 595 LINE SMOOTH",
"472 595 OFFCURVE",
"506 563 OFFCURVE",
"506 500 CURVE SMOOTH",
"506 433 OFFCURVE",
"472 405 OFFCURVE",
"396 405 CURVE SMOOTH",
"222 405 LINE"
);
}
);
width = 714;
}
);
note = u1D5E5;
unicode = 1D5E5;
},
{
glyphname = u1D5E6;
lastChange = "2017-03-13 20:15:23 +0000";
layers = (
{
layerId = "873A0A4B-B0F6-46C2-B3B5-B41B81B55E35";
paths = (
{
closed = 1;
nodes = (
"522 -20 OFFCURVE",
"626 67 OFFCURVE",
"626 216 CURVE SMOOTH",
"626 283 OFFCURVE",
"604 330 OFFCURVE",
"556 366 CURVE SMOOTH",
"513 397 OFFCURVE",
"390 431 OFFCURVE",
"286 454 CURVE SMOOTH",
"215 470 OFFCURVE",
"195 488 OFFCURVE",
"195 531 CURVE SMOOTH",
"195 587 OFFCURVE",
"237 618 OFFCURVE",
"316 618 CURVE SMOOTH",
"407 618 OFFCURVE",
"454 582 OFFCURVE",
"459 511 CURVE",
"601 511 LINE",
"596 656 OFFCURVE",
"500 739 OFFCURVE",
"329 739 CURVE SMOOTH",
"148 739 OFFCURVE",
"52 663 OFFCURVE",
"52 522 CURVE SMOOTH",
"52 486 OFFCURVE",
"58 454 OFFCURVE",
"70 427 CURVE SMOOTH",
"94 374 OFFCURVE",
"149 338 OFFCURVE",
"220 322 CURVE SMOOTH",
"279 309 OFFCURVE",
"330 297 OFFCURVE",
"374 285 CURVE SMOOTH",
"462 261 OFFCURVE",
"481 240 OFFCURVE",
"481 197 CURVE SMOOTH",
"481 136 OFFCURVE",
"438 106 OFFCURVE",
"351 106 CURVE SMOOTH",
"252 106 OFFCURVE",
"197 145 OFFCURVE",
"187 222 CURVE",
"41 222 LINE",
"49 67 OFFCURVE",
"154 -20 OFFCURVE",
"337 -20 CURVE SMOOTH"
);
}
);
width = 667;
}
);
note = u1D5E6;
unicode = 1D5E6;
},
{
glyphname = u1D5E7;
lastChange = "2017-03-13 20:15:23 +0000";
layers = (
{
layerId = "873A0A4B-B0F6-46C2-B3B5-B41B81B55E35";
paths = (
{
closed = 1;
nodes = (
"371 0 LINE",
"371 591 LINE",
"583 591 LINE",
"583 719 LINE",
"10 719 LINE",
"10 591 LINE",
"223 591 LINE",
"223 0 LINE"
);
}
);
width = 594;
}
);
note = u1D5E7;
unicode = 1D5E7;
},
{
glyphname = u1D5E8;
lastChange = "2017-03-13 20:15:23 +0000";
layers = (
{
layerId = "873A0A4B-B0F6-46C2-B3B5-B41B81B55E35";
paths = (
{
closed = 1;
nodes = (
"544 -20 OFFCURVE",
"646 77 OFFCURVE",
"646 254 CURVE SMOOTH",
"646 721 LINE",
"498 721 LINE",
"498 270 LINE SMOOTH",
"498 158 OFFCURVE",
"457 110 OFFCURVE",
"358 110 CURVE SMOOTH",
"261 110 OFFCURVE",
"219 159 OFFCURVE",
"219 270 CURVE SMOOTH",
"219 721 LINE",
"70 721 LINE",
"70 254 LINE SMOOTH",
"70 77 OFFCURVE",
"172 -20 OFFCURVE",
"359 -20 CURVE SMOOTH"
);
}
);
width = 717;
}
);
note = u1D5E8;
unicode = 1D5E8;
},
{
glyphname = u1D5E9;
lastChange = "2017-03-13 20:15:23 +0000";
layers = (
{
layerId = "873A0A4B-B0F6-46C2-B3B5-B41B81B55E35";
paths = (
{
closed = 1;
nodes = (
"385 0 LINE",
"630 719 LINE",
"468 719 LINE",
"312 181 LINE",
"159 719 LINE",
"-5 719 LINE",
"243 0 LINE"
);
}
);
width = 625;
}
);
note = u1D5E9;
unicode = 1D5E9;
},
{
glyphname = u1D5EA;
lastChange = "2017-03-13 20:15:23 +0000";
layers = (
{
layerId = "873A0A4B-B0F6-46C2-B3B5-B41B81B55E35";
paths = (
{
closed = 1;
nodes = (
"355 0 LINE",
"467 551 LINE",
"578 0 LINE",
"719 0 LINE",
"925 719 LINE",
"773 719 LINE",
"650 212 LINE",
"546 719 LINE",
"388 719 LINE",
"284 212 LINE",
"161 719 LINE",
"8 719 LINE",
"214 0 LINE"
);
}
);
width = 934;
}
);
note = u1D5EA;
unicode = 1D5EA;
},
{
glyphname = u1D5EB;
lastChange = "2017-03-13 20:15:23 +0000";
layers = (
{
layerId = "873A0A4B-B0F6-46C2-B3B5-B41B81B55E35";
paths = (
{
closed = 1;
nodes = (
"166 0 LINE",
"313 249 LINE",
"460 0 LINE",
"631 0 LINE",
"405 368 LINE",
"631 719 LINE",
"459 719 LINE",
"313 468 LINE",
"166 719 LINE",
"-5 719 LINE",
"221 367 LINE",
"-5 0 LINE"
);
}
);
width = 626;
}
);
note = u1D5EB;
unicode = 1D5EB;
},
{
glyphname = u1D5EC;
lastChange = "2017-03-13 20:15:23 +0000";
layers = (
{
layerId = "873A0A4B-B0F6-46C2-B3B5-B41B81B55E35";
paths = (
{
closed = 1;
nodes = (
"396 0 LINE",
"396 268 LINE",
"633 719 LINE",
"464 719 LINE",
"322 409 LINE",
"168 719 LINE",
"-13 719 LINE",
"248 268 LINE",
"248 0 LINE"
);
}
);
width = 622;
}
);
note = u1D5EC;
unicode = 1D5EC;
},
{
glyphname = u1D5ED;
lastChange = "2017-03-13 20:15:23 +0000";
layers = (
{
layerId = "873A0A4B-B0F6-46C2-B3B5-B41B81B55E35";
paths = (
{
closed = 1;
nodes = (
"580 0 LINE",
"580 130 LINE",
"197 130 LINE",
"589 594 LINE",
"589 719 LINE",
"26 719 LINE",
"26 589 LINE",
"409 589 LINE",
"18 125 LINE",
"18 0 LINE"
);
}
);
width = 601;
}
);
note = u1D5ED;
unicode = 1D5ED;
},
{
glyphname = u1D5EE;
lastChange = "2017-03-13 20:15:23 +0000";
layers = (
{
layerId = "873A0A4B-B0F6-46C2-B3B5-B41B81B55E35";
paths = (
{
closed = 1;
nodes = (
"274 -19 OFFCURVE",
"331 9 OFFCURVE",
"366 66 CURVE",
"368 39 OFFCURVE",
"373 17 OFFCURVE",
"382 0 CURVE",
"530 0 LINE",
"530 24 LINE",
"507 36 OFFCURVE",
"500 57 OFFCURVE",
"500 98 CURVE SMOOTH",
"500 400 LINE SMOOTH",
"500 497 OFFCURVE",
"421 550 OFFCURVE",
"270 550 CURVE SMOOTH",
"134 550 OFFCURVE",
"53 483 OFFCURVE",
"53 375 CURVE SMOOTH",
"53 365 LINE",
"186 365 LINE",
"186 373 LINE SMOOTH",
"186 417 OFFCURVE",
"216 439 OFFCURVE",
"275 439 CURVE SMOOTH",
"336 439 OFFCURVE",
"362 422 OFFCURVE",
"362 379 CURVE SMOOTH",
"362 344 OFFCURVE",
"345 335 OFFCURVE",
"284 328 CURVE SMOOTH",
"214 319 LINE SMOOTH",
"87 300 OFFCURVE",
"34 253 OFFCURVE",
"34 150 CURVE SMOOTH",
"34 42 OFFCURVE",
"92 -19 OFFCURVE",
"195 -19 CURVE SMOOTH"
);
},
{
closed = 1;
nodes = (
"197 90 OFFCURVE",
"170 115 OFFCURVE",
"170 154 CURVE SMOOTH",
"170 203 OFFCURVE",
"211 225 OFFCURVE",
"278 234 CURVE",
"307 239 OFFCURVE",
"335 248 OFFCURVE",
"364 261 CURVE",
"364 211 LINE SMOOTH",
"364 135 OFFCURVE",
"317 90 OFFCURVE",
"240 90 CURVE SMOOTH"
);
}
);
width = 562;
}
);
note = u1D5EE;
unicode = 1D5EE;
},
{
glyphname = u1D5EF;
lastChange = "2017-03-13 20:15:23 +0000";
layers = (
{
layerId = "873A0A4B-B0F6-46C2-B3B5-B41B81B55E35";
paths = (
{
closed = 1;
nodes = (
"401 -18 OFFCURVE",
"439 -6 OFFCURVE",
"472 17 CURVE SMOOTH",
"539 63 OFFCURVE",
"578 150 OFFCURVE",
"578 263 CURVE SMOOTH",
"578 320 OFFCURVE",
"569 370 OFFCURVE",
"550 413 CURVE SMOOTH",
"513 500 OFFCURVE",
"444 549 OFFCURVE",
"360 549 CURVE SMOOTH",
"291 549 OFFCURVE",
"238 521 OFFCURVE",
"203 465 CURVE",
"203 719 LINE",
"65 719 LINE",
"65 0 LINE",
"200 0 LINE",
"200 72 LINE",
"241 9 OFFCURVE",
"289 -18 OFFCURVE",
"358 -18 CURVE SMOOTH"
);
},
{
closed = 1;
nodes = (
"242 104 OFFCURVE",
"203 159 OFFCURVE",
"203 269 CURVE SMOOTH",
"203 370 OFFCURVE",
"246 426 OFFCURVE",
"322 426 CURVE SMOOTH",
"394 426 OFFCURVE",
"437 368 OFFCURVE",
"437 269 CURVE SMOOTH",
"437 161 OFFCURVE",
"395 104 OFFCURVE",
"319 104 CURVE SMOOTH"
);
}
);
width = 613;
}
);
note = u1D5EF;
unicode = 1D5EF;
},
{
glyphname = u1D5F0;
lastChange = "2017-03-13 20:15:23 +0000";
layers = (
{
layerId = "873A0A4B-B0F6-46C2-B3B5-B41B81B55E35";
paths = (
{
closed = 1;
nodes = (
"418 -18 OFFCURVE",
"510 67 OFFCURVE",
"523 200 CURVE",
"383 200 LINE",
"373 137 OFFCURVE",
"341 105 OFFCURVE",
"288 105 CURVE SMOOTH",
"220 105 OFFCURVE",
"183 160 OFFCURVE",
"183 264 CURVE SMOOTH",
"183 375 OFFCURVE",
"218 430 OFFCURVE",
"288 430 CURVE SMOOTH",
"342 430 OFFCURVE",
"373 401 OFFCURVE",
"381 343 CURVE",
"522 343 LINE",
"511 472 OFFCURVE",
"426 550 OFFCURVE",
"287 550 CURVE SMOOTH",
"130 550 OFFCURVE",
"35 442 OFFCURVE",
"35 266 CURVE SMOOTH",
"35 87 OFFCURVE",
"127 -18 OFFCURVE",
"282 -18 CURVE SMOOTH"
);
}
);
width = 551;
}
);
note = u1D5F0;
unicode = 1D5F0;
},
{
glyphname = u1D5F1;
lastChange = "2017-03-13 20:15:23 +0000";
layers = (
{
layerId = "873A0A4B-B0F6-46C2-B3B5-B41B81B55E35";
paths = (
{
closed = 1;
nodes = (
"327 -18 OFFCURVE",
"374 9 OFFCURVE",
"415 72 CURVE",
"415 0 LINE",
"550 0 LINE",
"550 719 LINE",
"412 719 LINE",
"412 465 LINE",
"377 521 OFFCURVE",
"325 549 OFFCURVE",
"254 549 CURVE SMOOTH",
"212 549 OFFCURVE",
"174 537 OFFCURVE",
"141 513 CURVE SMOOTH",
"74 465 OFFCURVE",
"36 375 OFFCURVE",
"36 263 CURVE SMOOTH",
"36 206 OFFCURVE",
"45 157 OFFCURVE",
"64 115 CURVE SMOOTH",
"101 30 OFFCURVE",
"171 -18 OFFCURVE",
"256 -18 CURVE SMOOTH"
);
},
{
closed = 1;
nodes = (
"220 104 OFFCURVE",
"178 162 OFFCURVE",
"178 269 CURVE SMOOTH",
"178 368 OFFCURVE",
"222 426 OFFCURVE",
"293 426 CURVE SMOOTH",
"369 426 OFFCURVE",
"412 370 OFFCURVE",
"412 269 CURVE SMOOTH",
"412 159 OFFCURVE",
"373 104 OFFCURVE",
"296 104 CURVE SMOOTH"
);
}
);
width = 615;
}
);
note = u1D5F1;
unicode = 1D5F1;
},
{
glyphname = u1D5F2;
lastChange = "2017-03-13 20:15:23 +0000";
layers = (
{
layerId = "873A0A4B-B0F6-46C2-B3B5-B41B81B55E35";
paths = (
{
closed = 1;
nodes = (
"412 -18 OFFCURVE",
"500 48 OFFCURVE",
"531 161 CURVE",
"389 161 LINE",
"372 122 OFFCURVE",
"339 102 OFFCURVE",
"292 102 CURVE SMOOTH",
"223 102 OFFCURVE",
"186 144 OFFCURVE",
"182 228 CURVE",
"537 228 LINE",
"538 247 LINE",
"538 265 LINE SMOOTH",
"538 448 OFFCURVE",
"446 550 OFFCURVE",
"283 550 CURVE SMOOTH",
"233 550 OFFCURVE",
"189 539 OFFCURVE",
"152 517 CURVE SMOOTH",
"77 472 OFFCURVE",
"35 385 OFFCURVE",
"35 269 CURVE SMOOTH",
"35 211 OFFCURVE",
"45 160 OFFCURVE",
"66 117 CURVE SMOOTH",
"106 30 OFFCURVE",
"184 -18 OFFCURVE",
"285 -18 CURVE SMOOTH"
);
},
{
closed = 1;
nodes = (
"188 394 OFFCURVE",
"223 431 OFFCURVE",
"286 431 CURVE SMOOTH",
"354 431 OFFCURVE",
"389 394 OFFCURVE",
"391 321 CURVE",
"182 321 LINE"
);
}
);
width = 570;
}
);
note = u1D5F2;
unicode = 1D5F2;
},
{
glyphname = u1D5F3;
lastChange = "2017-03-13 20:15:23 +0000";
layers = (
{
layerId = "873A0A4B-B0F6-46C2-B3B5-B41B81B55E35";
paths = (
{
closed = 1;
nodes = (
"226 0 LINE",
"226 431 LINE",
"314 431 LINE",
"314 531 LINE",
"225 531 LINE",
"225 568 LINE SMOOTH",
"225 601 OFFCURVE",
"236 608 OFFCURVE",
"277 608 CURVE SMOOTH",
"314 608 LINE",
"314 721 LINE",
"246 724 LINE",
"137 724 OFFCURVE",
"87 680 OFFCURVE",
"87 580 CURVE SMOOTH",
"87 531 LINE",
"11 531 LINE",
"11 431 LINE",
"87 431 LINE",
"87 0 LINE"
);
}
);
width = 324;
}
);
note = u1D5F3;
unicode = 1D5F3;
},
{
glyphname = u1D5F4;
lastChange = "2017-03-13 20:15:23 +0000";
layers = (
{
layerId = "873A0A4B-B0F6-46C2-B3B5-B41B81B55E35";
paths = (
{
closed = 1;
nodes = (
"339 -217 OFFCURVE",
"388 -209 OFFCURVE",
"431 -192 CURVE SMOOTH",
"514 -159 OFFCURVE",
"547 -100 OFFCURVE",
"547 35 CURVE SMOOTH",
"547 531 LINE",
"412 531 LINE",
"412 467 LINE",
"381 522 OFFCURVE",
"330 550 OFFCURVE",
"259 550 CURVE SMOOTH",
"214 550 OFFCURVE",
"174 539 OFFCURVE",
"140 516 CURVE SMOOTH",
"72 471 OFFCURVE",
"34 384 OFFCURVE",
"34 269 CURVE SMOOTH",
"34 215 OFFCURVE",
"43 168 OFFCURVE",
"62 127 CURVE SMOOTH",
"99 46 OFFCURVE",
"170 0 OFFCURVE",
"261 0 CURVE SMOOTH",
"331 0 OFFCURVE",
"380 25 OFFCURVE",
"409 75 CURVE",
"409 28 LINE SMOOTH",
"409 -6 OFFCURVE",
"405 -32 OFFCURVE",
"398 -51 CURVE",
"382 -89 OFFCURVE",
"350 -104 OFFCURVE",
"290 -104 CURVE SMOOTH",
"243 -104 OFFCURVE",
"214 -86 OFFCURVE",
"205 -51 CURVE",
"50 -51 LINE",
"57 -156 OFFCURVE",
"140 -217 OFFCURVE",
"283 -217 CURVE SMOOTH"
);
},
{
closed = 1;
nodes = (
"218 119 OFFCURVE",
"178 174 OFFCURVE",
"178 274 CURVE SMOOTH",
"178 374 OFFCURVE",
"220 428 OFFCURVE",
"292 428 CURVE SMOOTH",
"367 428 OFFCURVE",
"409 375 OFFCURVE",
"409 276 CURVE SMOOTH",
"409 171 OFFCURVE",
"371 119 OFFCURVE",
"294 119 CURVE SMOOTH"
);
}
);
width = 610;
}
);
note = u1D5F4;
unicode = 1D5F4;
},
{
glyphname = u1D5F5;
lastChange = "2017-03-13 20:15:23 +0000";
layers = (
{
layerId = "873A0A4B-B0F6-46C2-B3B5-B41B81B55E35";
paths = (
{
closed = 1;
nodes = (
"206 0 LINE",
"206 315 LINE SMOOTH",
"206 386 OFFCURVE",
"248 427 OFFCURVE",
"315 427 CURVE SMOOTH",
"360 427 OFFCURVE",
"383 410 OFFCURVE",
"392 375 CURVE SMOOTH",
"396 358 OFFCURVE",
"398 326 OFFCURVE",
"398 278 CURVE SMOOTH",
"398 0 LINE",
"539 0 LINE",
"539 354 LINE SMOOTH",
"539 402 OFFCURVE",
"534 437 OFFCURVE",
"525 460 CURVE",
"504 508 OFFCURVE",
"444 545 OFFCURVE",
"364 545 CURVE SMOOTH",
"297 545 OFFCURVE",
"245 521 OFFCURVE",
"206 472 CURVE",
"206 719 LINE",
"65 719 LINE",
"65 0 LINE"
);
}
);
width = 602;
}
);
note = u1D5F5;
unicode = 1D5F5;
},
{
glyphname = u1D5F6;
lastChange = "2017-03-13 20:15:23 +0000";
layers = (
{
layerId = "873A0A4B-B0F6-46C2-B3B5-B41B81B55E35";
paths = (
{
closed = 1;
nodes = (
"207 590 LINE",
"207 719 LINE",
"65 719 LINE",
"65 590 LINE"
);
},
{
closed = 1;
nodes = (
"207 0 LINE",
"207 531 LINE",
"65 531 LINE",
"65 0 LINE"
);
}
);
width = 272;
}
);
note = u1D5F6;
unicode = 1D5F6;
},
{
glyphname = u1D5F7;
lastChange = "2017-03-13 20:15:23 +0000";
layers = (
{
layerId = "873A0A4B-B0F6-46C2-B3B5-B41B81B55E35";
paths = (
{
closed = 1;
nodes = (
"207 590 LINE",
"207 718 LINE",
"65 718 LINE",
"65 590 LINE"
);
},
{
closed = 1;
nodes = (
"30 -217 LINE SMOOTH",
"159 -217 OFFCURVE",
"207 -181 OFFCURVE",
"207 -85 CURVE SMOOTH",
"207 531 LINE",
"65 531 LINE",
"65 -62 LINE SMOOTH",
"65 -86 OFFCURVE",
"54 -98 OFFCURVE",
"31 -98 CURVE SMOOTH",
"3 -98 LINE",
"3 -217 LINE"
);
}
);
width = 271;
}
);
note = u1D5F7;
unicode = 1D5F7;
},
{
glyphname = u1D5F8;
lastChange = "2017-03-13 20:15:23 +0000";
layers = (
{
layerId = "873A0A4B-B0F6-46C2-B3B5-B41B81B55E35";
paths = (
{
closed = 1;
nodes = (
"203 0 LINE",
"203 168 LINE",
"257 226 LINE",
"384 0 LINE",
"554 0 LINE",
"358 334 LINE",
"543 531 LINE",
"372 531 LINE",
"203 342 LINE",
"203 719 LINE",
"65 719 LINE",
"65 0 LINE"
);
}
);
width = 554;
}
);
note = u1D5F8;
unicode = 1D5F8;
},
{
glyphname = u1D5F9;
lastChange = "2017-03-13 20:15:23 +0000";
layers = (
{
layerId = "873A0A4B-B0F6-46C2-B3B5-B41B81B55E35";
paths = (
{
closed = 1;
nodes = (
"209 0 LINE",
"209 719 LINE",
"67 719 LINE",
"67 0 LINE"
);
}
);
width = 275;
}
);
note = u1D5F9;
unicode = 1D5F9;
},
{
glyphname = u1D5FA;
lastChange = "2017-03-13 20:15:23 +0000";
layers = (
{
layerId = "873A0A4B-B0F6-46C2-B3B5-B41B81B55E35";
paths = (
{
closed = 1;
nodes = (
"202 0 LINE",
"202 321 LINE SMOOTH",
"202 385 OFFCURVE",
"236 423 OFFCURVE",
"292 423 CURVE SMOOTH",
"340 423 OFFCURVE",
"369 393 OFFCURVE",
"369 341 CURVE SMOOTH",
"369 0 LINE",
"508 0 LINE",
"508 322 LINE SMOOTH",
"508 386 OFFCURVE",
"542 423 OFFCURVE",
"598 423 CURVE SMOOTH",
"647 423 OFFCURVE",
"677 394 OFFCURVE",
"677 342 CURVE SMOOTH",
"677 0 LINE",
"817 0 LINE",
"817 371 LINE SMOOTH",
"817 479 OFFCURVE",
"751 546 OFFCURVE",
"643 546 CURVE SMOOTH",
"580 546 OFFCURVE",
"530 520 OFFCURVE",
"492 468 CURVE",
"459 520 OFFCURVE",
"410 546 OFFCURVE",
"344 546 CURVE SMOOTH",
"285 546 OFFCURVE",
"236 521 OFFCURVE",
"197 472 CURVE",
"197 531 LINE",
"62 531 LINE",
"62 0 LINE"
);
}
);
width = 877;
}
);
note = u1D5FA;
unicode = 1D5FA;
},
{
glyphname = u1D5FB;
lastChange = "2017-03-13 20:15:23 +0000";
layers = (
{
layerId = "873A0A4B-B0F6-46C2-B3B5-B41B81B55E35";
paths = (
{
closed = 1;
nodes = (
"204 0 LINE",
"204 315 LINE SMOOTH",
"204 386 OFFCURVE",
"246 427 OFFCURVE",
"313 427 CURVE SMOOTH",
"373 427 OFFCURVE",
"395 396 OFFCURVE",
"395 321 CURVE SMOOTH",
"395 0 LINE",
"537 0 LINE",
"537 362 LINE SMOOTH",
"537 484 OFFCURVE",
"479 545 OFFCURVE",
"362 545 CURVE SMOOTH",
"295 545 OFFCURVE",
"241 519 OFFCURVE",
"201 468 CURVE",
"201 531 LINE",
"62 531 LINE",
"62 0 LINE"
);
}
);
width = 597;
}
);
note = u1D5FB;
unicode = 1D5FB;
},
{
glyphname = u1D5FC;
lastChange = "2017-03-13 20:15:23 +0000";
layers = (
{
layerId = "873A0A4B-B0F6-46C2-B3B5-B41B81B55E35";
paths = (
{
closed = 1;
nodes = (
"471 -18 OFFCURVE",
"573 87 OFFCURVE",
"573 266 CURVE SMOOTH",
"573 443 OFFCURVE",
"471 550 OFFCURVE",
"304 550 CURVE SMOOTH",
"249 550 OFFCURVE",
"202 539 OFFCURVE",
"161 516 CURVE SMOOTH",
"80 471 OFFCURVE",
"35 383 OFFCURVE",
"35 266 CURVE SMOOTH",
"35 89 OFFCURVE",
"137 -18 OFFCURVE",
"304 -18 CURVE SMOOTH"
);
},
{
closed = 1;
nodes = (
"224 101 OFFCURVE",
"179 159 OFFCURVE",
"179 266 CURVE SMOOTH",
"179 373 OFFCURVE",
"224 430 OFFCURVE",
"304 430 CURVE SMOOTH",
"384 430 OFFCURVE",
"428 373 OFFCURVE",
"428 266 CURVE SMOOTH",
"428 159 OFFCURVE",
"384 101 OFFCURVE",
"304 101 CURVE SMOOTH"
);
}
);
width = 608;
}
);
note = u1D5FC;
unicode = 1D5FC;
},
{
glyphname = u1D5FD;
lastChange = "2017-03-13 20:15:23 +0000";
layers = (
{
layerId = "873A0A4B-B0F6-46C2-B3B5-B41B81B55E35";
paths = (
{
closed = 1;
nodes = (
"203 -213 LINE",
"203 66 LINE",
"238 10 OFFCURVE",
"291 -18 OFFCURVE",
"360 -18 CURVE SMOOTH",
"402 -18 OFFCURVE",
"440 -6 OFFCURVE",
"473 18 CURVE SMOOTH",
"540 66 OFFCURVE",
"578 157 OFFCURVE",
"578 268 CURVE SMOOTH",
"578 324 OFFCURVE",
"569 373 OFFCURVE",
"550 416 CURVE SMOOTH",
"513 500 OFFCURVE",
"443 549 OFFCURVE",
"358 549 CURVE SMOOTH",
"289 549 OFFCURVE",
"241 522 OFFCURVE",
"200 459 CURVE",
"200 531 LINE",
"65 531 LINE",
"65 -213 LINE"
);
},
{
closed = 1;
nodes = (
"246 105 OFFCURVE",
"203 161 OFFCURVE",
"203 262 CURVE SMOOTH",
"203 372 OFFCURVE",
"242 427 OFFCURVE",
"319 427 CURVE SMOOTH",
"395 427 OFFCURVE",
"437 369 OFFCURVE",
"437 262 CURVE SMOOTH",
"437 163 OFFCURVE",
"394 105 OFFCURVE",
"322 105 CURVE SMOOTH"
);
}
);
width = 613;
}
);
note = u1D5FD;
unicode = 1D5FD;
},
{
glyphname = u1D5FE;
lastChange = "2017-03-13 20:15:23 +0000";
layers = (
{
layerId = "873A0A4B-B0F6-46C2-B3B5-B41B81B55E35";
paths = (
{
closed = 1;
nodes = (
"549 -213 LINE",
"549 531 LINE",
"412 531 LINE",
"412 463 LINE",
"376 520 OFFCURVE",
"323 549 OFFCURVE",
"253 549 CURVE SMOOTH",
"211 549 OFFCURVE",
"173 537 OFFCURVE",
"140 513 CURVE SMOOTH",
"73 465 OFFCURVE",
"35 375 OFFCURVE",
"35 263 CURVE SMOOTH",
"35 206 OFFCURVE",
"44 157 OFFCURVE",
"63 115 CURVE SMOOTH",
"100 30 OFFCURVE",
"170 -18 OFFCURVE",
"255 -18 CURVE SMOOTH",
"322 -18 OFFCURVE",
"373 11 OFFCURVE",
"410 69 CURVE",
"410 -213 LINE"
);
},
{
closed = 1;
nodes = (
"218 104 OFFCURVE",
"176 161 OFFCURVE",
"176 269 CURVE SMOOTH",
"176 368 OFFCURVE",
"219 426 OFFCURVE",
"291 426 CURVE SMOOTH",
"367 426 OFFCURVE",
"410 370 OFFCURVE",
"410 269 CURVE SMOOTH",
"410 159 OFFCURVE",
"371 104 OFFCURVE",
"294 104 CURVE SMOOTH"
);
}
);
width = 613;
}
);
note = u1D5FE;
unicode = 1D5FE;
},
{
glyphname = u1D5FF;
lastChange = "2017-03-13 20:15:23 +0000";
layers = (
{
layerId = "873A0A4B-B0F6-46C2-B3B5-B41B81B55E35";
paths = (
{
closed = 1;
nodes = (
"204 0 LINE",
"204 281 LINE SMOOTH",
"204 361 OFFCURVE",
"243 401 OFFCURVE",
"321 401 CURVE SMOOTH",
"368 401 LINE",
"368 545 LINE",
"358 546 LINE",
"347 546 LINE SMOOTH",
"281 546 OFFCURVE",
"230 511 OFFCURVE",
"194 440 CURVE",
"194 531 LINE",
"62 531 LINE",
"62 0 LINE"
);
}
);
width = 384;
}
);
note = u1D5FF;
unicode = 1D5FF;
},
{
glyphname = u1D600;
lastChange = "2017-03-13 20:15:23 +0000";
layers = (
{
layerId = "873A0A4B-B0F6-46C2-B3B5-B41B81B55E35";
paths = (
{
closed = 1;
nodes = (
"430 -18 OFFCURVE",
"515 46 OFFCURVE",
"515 167 CURVE SMOOTH",
"515 205 OFFCURVE",
"505 235 OFFCURVE",
"484 258 CURVE SMOOTH",
"451 295 OFFCURVE",
"379 315 OFFCURVE",
"268 342 CURVE",
"261 343 OFFCURVE",
"254 344 OFFCURVE",
"245 347 CURVE",
"206 355 OFFCURVE",
"187 370 OFFCURVE",
"187 391 CURVE SMOOTH",
"187 424 OFFCURVE",
"214 440 OFFCURVE",
"267 440 CURVE SMOOTH",
"326 440 OFFCURVE",
"357 416 OFFCURVE",
"360 369 CURVE",
"498 369 LINE",
"493 484 OFFCURVE",
"410 550 OFFCURVE",
"266 550 CURVE SMOOTH",
"130 550 OFFCURVE",
"48 482 OFFCURVE",
"48 373 CURVE SMOOTH",
"48 342 OFFCURVE",
"55 316 OFFCURVE",
"70 297 CURVE",
"99 256 OFFCURVE",
"163 226 OFFCURVE",
"261 207 CURVE SMOOTH",
"313 196 OFFCURVE",
"344 187 OFFCURVE",
"354 180 CURVE SMOOTH",
"366 172 OFFCURVE",
"372 161 OFFCURVE",
"372 146 CURVE SMOOTH",
"372 111 OFFCURVE",
"343 93 OFFCURVE",
"285 93 CURVE SMOOTH",
"213 93 OFFCURVE",
"176 120 OFFCURVE",
"174 173 CURVE",
"32 173 LINE",
"32 167 LINE SMOOTH",
"32 51 OFFCURVE",
"117 -18 OFFCURVE",
"266 -18 CURVE SMOOTH"
);
}
);
width = 546;
}
);
note = u1D600;
unicode = 1D600;
},
{
glyphname = u1D601;
lastChange = "2017-03-13 20:15:23 +0000";
layers = (
{
layerId = "873A0A4B-B0F6-46C2-B3B5-B41B81B55E35";
paths = (
{
closed = 1;
nodes = (
"298 103 LINE",
"263 103 LINE SMOOTH",
"224 103 OFFCURVE",
"216 109 OFFCURVE",
"216 137 CURVE SMOOTH",
"216 431 LINE",
"298 431 LINE",
"298 531 LINE",
"216 531 LINE",
"216 676 LINE",
"75 676 LINE",
"75 531 LINE",
"5 531 LINE",
"5 431 LINE",
"75 431 LINE",
"75 144 LINE SMOOTH",
"75 103 OFFCURVE",
"80 71 OFFCURVE",
"89 50 CURVE SMOOTH",
"107 7 OFFCURVE",
"144 -7 OFFCURVE",
"217 -7 CURVE",
"298 -4 LINE"
);
}
);
width = 318;
}
);
note = u1D601;
unicode = 1D601;
},
{
glyphname = u1D602;
lastChange = "2017-03-13 20:15:23 +0000";
layers = (
{
layerId = "873A0A4B-B0F6-46C2-B3B5-B41B81B55E35";
paths = (
{
closed = 1;
nodes = (
"302 -14 OFFCURVE",
"356 12 OFFCURVE",
"396 63 CURVE",
"396 0 LINE",
"535 0 LINE",
"535 531 LINE",
"393 531 LINE",
"393 217 LINE SMOOTH",
"393 146 OFFCURVE",
"352 105 OFFCURVE",
"284 105 CURVE SMOOTH",
"224 105 OFFCURVE",
"202 135 OFFCURVE",
"202 210 CURVE SMOOTH",
"202 531 LINE",
"60 531 LINE",
"60 169 LINE SMOOTH",
"60 47 OFFCURVE",
"118 -14 OFFCURVE",
"235 -14 CURVE SMOOTH"
);
}
);
width = 597;
}
);
note = u1D602;
unicode = 1D602;
},
{
glyphname = u1D603;
lastChange = "2017-03-13 20:15:23 +0000";
layers = (
{
layerId = "873A0A4B-B0F6-46C2-B3B5-B41B81B55E35";
paths = (
{
closed = 1;
nodes = (
"338 0 LINE",
"528 531 LINE",
"378 531 LINE",
"268 150 LINE",
"159 531 LINE",
"2 531 LINE",
"193 0 LINE"
);
}
);
width = 530;
}
);
note = u1D603;
unicode = 1D603;
},
